solid rov
facet normal 0.0 0.0 -1.0
outer loop
vertex 620.693052543624 1109.80782273267 0.0
vertex 572.250657663624 1099.89484801267 0.0
vertex 572.250657663624 1109.80782273267 0.0
endloop
endfacet
facet normal 0.0 0.0 -1.0
outer loop
vertex 572.250657663624 1099.89484801267 0.0
vertex 620.693052543624 1109.80782273267 0.0
vertex 611.246650303624 1099.89484801267 0.0
endloop
endfacet
facet normal 0.0 0.0 -1.0
outer loop
vertex 611.246650303624 1099.89484801267 0.0
vertex 620.693052543624 1109.80782273267 0.0
vertex 611.246650303624 1096.65588833267 0.0
endloop
endfacet
facet normal 0.0 0.0 -1.0
outer loop
vertex 611.246650303624 1096.65588833267 0.0
vertex 620.693052543624 1109.80782273267 0.0
vertex 620.693052543624 1096.65588833267 0.0
endloop
endfacet
facet normal 0.0 0.0 1.0
outer loop
vertex 620.693052543624 1096.65588833267 3.0
vertex 611.246650303624 1099.89484801267 3.0
vertex 611.246650303624 1096.65588833267 3.0
endloop
endfacet
facet normal 0.0 0.0 1.0
outer loop
vertex 611.246650303624 1099.89484801267 3.0
vertex 572.250657663624 1109.80782273267 3.0
vertex 572.250657663624 1099.89484801267 3.0
endloop
endfacet
facet normal 0.0 0.0 1.0
outer loop
vertex 572.250657663624 1109.80782273267 3.0
vertex 611.246650303624 1099.89484801267 3.0
vertex 620.693052543624 1109.80782273267 3.0
endloop
endfacet
facet normal 0.0 0.0 1.0
outer loop
vertex 620.693052543624 1109.80782273267 3.0
vertex 611.246650303624 1099.89484801267 3.0
vertex 620.693052543624 1096.65588833267 3.0
endloop
endfacet
facet normal 1.0 -0.0 0.0
outer loop
vertex 620.693052543624 1109.80782273267 0.0
vertex 620.693052543624 1096.65588833267 3.0
vertex 620.693052543624 1096.65588833267 0.0
endloop
endfacet
facet normal 1.0 -0.0 0.0
outer loop
vertex 620.693052543624 1096.65588833267 3.0
vertex 620.693052543624 1109.80782273267 0.0
vertex 620.693052543624 1109.80782273267 3.0
endloop
endfacet
facet normal 0.0 1.0 0.0
outer loop
vertex 572.250657663624 1109.80782273267 3.0
vertex 620.693052543624 1109.80782273267 0.0
vertex 572.250657663624 1109.80782273267 0.0
endloop
endfacet
facet normal 0.0 1.0 0.0
outer loop
vertex 620.693052543624 1109.80782273267 0.0
vertex 572.250657663624 1109.80782273267 3.0
vertex 620.693052543624 1109.80782273267 3.0
endloop
endfacet
facet normal -1.0 -0.0 -0.0
outer loop
vertex 572.250657663624 1109.80782273267 3.0
vertex 572.250657663624 1099.89484801267 0.0
vertex 572.250657663624 1099.89484801267 3.0
endloop
endfacet
facet normal -1.0 -0.0 -0.0
outer loop
vertex 572.250657663624 1099.89484801267 0.0
vertex 572.250657663624 1109.80782273267 3.0
vertex 572.250657663624 1109.80782273267 0.0
endloop
endfacet
facet normal 0.0 -1.0 0.0
outer loop
vertex 611.246650303624 1099.89484801267 3.0
vertex 572.250657663624 1099.89484801267 0.0
vertex 611.246650303624 1099.89484801267 0.0
endloop
endfacet
facet normal 0.0 -1.0 0.0
outer loop
vertex 572.250657663624 1099.89484801267 0.0
vertex 611.246650303624 1099.89484801267 3.0
vertex 572.250657663624 1099.89484801267 3.0
endloop
endfacet
facet normal -1.0 -0.0 -0.0
outer loop
vertex 611.246650303624 1099.89484801267 3.0
vertex 611.246650303624 1096.65588833267 0.0
vertex 611.246650303624 1096.65588833267 3.0
endloop
endfacet
facet normal -1.0 -0.0 -0.0
outer loop
vertex 611.246650303624 1096.65588833267 0.0
vertex 611.246650303624 1099.89484801267 3.0
vertex 611.246650303624 1099.89484801267 0.0
endloop
endfacet
facet normal 0.0 -1.0 0.0
outer loop
vertex 620.693052543624 1096.65588833267 3.0
vertex 611.246650303624 1096.65588833267 0.0
vertex 620.693052543624 1096.65588833267 0.0
endloop
endfacet
facet normal 0.0 -1.0 0.0
outer loop
vertex 611.246650303624 1096.65588833267 0.0
vertex 620.693052543624 1096.65588833267 3.0
vertex 611.246650303624 1096.65588833267 3.0
endloop
endfacet
endsolid rov
