solid rov
facet normal 0.0 0.0 1.0
outer loop
vertex 230.239276065491 1375.42520347379 3.0
vertex 229.592883431922 1388.14306075422 3.0
vertex 226.831268385491 1375.42520347379 3.0
endloop
endfacet
facet normal 0.0 0.0 1.0
outer loop
vertex 229.592883431922 1388.14306075422 3.0
vertex 230.239276065491 1375.42520347379 3.0
vertex 239.701953831922 1388.14306075422 3.0
endloop
endfacet
facet normal 0.0 0.0 1.0
outer loop
vertex 239.701953831922 1388.14306075422 3.0
vertex 230.239276065491 1375.42520347379 3.0
vertex 231.666301865168 1350.51180776627 3.0
endloop
endfacet
facet normal 0.0 0.0 1.0
outer loop
vertex 231.666301865168 1350.51180776627 3.0
vertex 230.239276065491 1375.42520347379 3.0
vertex 231.666301865168 1341.80245480627 3.0
endloop
endfacet
facet normal 0.0 0.0 1.0
outer loop
vertex 239.701953831922 1388.14306075422 3.0
vertex 231.666301865168 1350.51180776627 3.0
vertex 241.558990825168 1350.51180776627 3.0
endloop
endfacet
facet normal 0.0 0.0 1.0
outer loop
vertex 239.701953831922 1388.14306075422 3.0
vertex 241.558990825168 1350.51180776627 3.0
vertex 239.701953831922 1391.45640155422 3.0
endloop
endfacet
facet normal 0.0 0.0 1.0
outer loop
vertex 226.819239489911 1316.91518923138 3.0
vertex 229.624165893408 1303.95489957266 3.0
vertex 229.909436929911 1316.91518923138 3.0
endloop
endfacet
facet normal 0.0 0.0 1.0
outer loop
vertex 229.624165893408 1303.95489957266 3.0
vertex 226.819239489911 1316.91518923138 3.0
vertex 229.624165893408 1300.74974949266 3.0
endloop
endfacet
facet normal 0.0 0.0 1.0
outer loop
vertex 229.909436929911 1316.91518923138 3.0
vertex 229.624165893408 1303.95489957266 3.0
vertex 239.895522373408 1303.95489957266 3.0
endloop
endfacet
facet normal 0.0 0.0 1.0
outer loop
vertex 229.909436929911 1316.91518923138 3.0
vertex 239.895522373408 1303.95489957266 3.0
vertex 229.909436929911 1326.70644939138 3.0
endloop
endfacet
facet normal 0.0 0.0 1.0
outer loop
vertex 229.909436929911 1326.70644939138 3.0
vertex 239.895522373408 1303.95489957266 3.0
vertex 231.666301865168 1341.80245480627 3.0
endloop
endfacet
facet normal 0.0 0.0 1.0
outer loop
vertex 229.909436929911 1326.70644939138 3.0
vertex 231.666301865168 1341.80245480627 3.0
vertex 230.239276065491 1365.53927643379 3.0
endloop
endfacet
facet normal 0.0 0.0 1.0
outer loop
vertex 230.239276065491 1365.53927643379 3.0
vertex 231.666301865168 1341.80245480627 3.0
vertex 230.239276065491 1375.42520347379 3.0
endloop
endfacet
facet normal 0.0 0.0 1.0
outer loop
vertex 231.666301865168 1341.80245480627 3.0
vertex 239.895522373408 1303.95489957266 3.0
vertex 241.558990825168 1341.80245480627 3.0
endloop
endfacet
facet normal 0.0 0.0 1.0
outer loop
vertex 229.909436929911 1326.70644939138 3.0
vertex 226.831268385491 1365.53927643379 3.0
vertex 226.819239489911 1326.70644939138 3.0
endloop
endfacet
facet normal 0.0 0.0 1.0
outer loop
vertex 226.831268385491 1365.53927643379 3.0
vertex 229.909436929911 1326.70644939138 3.0
vertex 230.239276065491 1365.53927643379 3.0
endloop
endfacet
facet normal 0.0 0.0 1.0
outer loop
vertex 289.767864735538 1300.7823777411 3.0
vertex 299.568470284534 1287.6550421537 3.0
vertex 299.748458655538 1300.7823777411 3.0
endloop
endfacet
facet normal 0.0 0.0 1.0
outer loop
vertex 299.568470284534 1287.6550421537 3.0
vertex 289.767864735538 1300.7823777411 3.0
vertex 299.568470284534 1277.6676863137 3.0
endloop
endfacet
facet normal 0.0 0.0 1.0
outer loop
vertex 299.748458655538 1300.7823777411 3.0
vertex 299.568470284534 1287.6550421537 3.0
vertex 302.848001484534 1287.6550421537 3.0
endloop
endfacet
facet normal 0.0 0.0 1.0
outer loop
vertex 299.748458655538 1300.7823777411 3.0
vertex 302.848001484534 1287.6550421537 3.0
vertex 299.748458655538 1303.4330503811 3.0
endloop
endfacet
facet normal 0.0 0.0 1.0
outer loop
vertex 296.049063296817 1384.61107627055 3.0
vertex 290.055372618559 1387.95990297941 3.0
vertex 288.239684564889 1386.08958910968 3.0
endloop
endfacet
facet normal 0.0 0.0 1.0
outer loop
vertex 290.055372618559 1387.95990297941 3.0
vertex 296.049063296817 1384.61107627055 3.0
vertex 299.738442058559 1387.95990297941 3.0
endloop
endfacet
facet normal 0.0 0.0 1.0
outer loop
vertex 299.738442058559 1387.95990297941 3.0
vertex 296.049063296817 1384.61107627055 3.0
vertex 303.419943460296 1381.63743842949 3.0
endloop
endfacet
facet normal 0.0 0.0 1.0
outer loop
vertex 299.738442058559 1387.95990297941 3.0
vertex 303.419943460296 1381.63743842949 3.0
vertex 299.738442058559 1391.33410105941 3.0
endloop
endfacet
facet normal 0.0 0.0 1.0
outer loop
vertex 299.738442058559 1391.33410105941 3.0
vertex 303.419943460296 1381.63743842949 3.0
vertex 302.404391168417 1404.21158704995 3.0
endloop
endfacet
facet normal 0.0 0.0 1.0
outer loop
vertex 302.404391168417 1404.21158704995 3.0
vertex 303.419943460296 1381.63743842949 3.0
vertex 302.404391168417 1414.19894288994 3.0
endloop
endfacet
facet normal 0.0 0.0 1.0
outer loop
vertex 202.649784681751 1257.76606358039 3.0
vertex 207.567624680589 1342.01808600213 3.0
vertex 202.649784681751 1433.44750710039 3.0
endloop
endfacet
facet normal 0.0 0.0 1.0
outer loop
vertex 207.567624680589 1342.01808600213 3.0
vertex 202.649784681751 1257.76606358039 3.0
vertex 229.624165893408 1300.74974949266 3.0
endloop
endfacet
facet normal 0.0 0.0 1.0
outer loop
vertex 229.624165893408 1300.74974949266 3.0
vertex 202.649784681751 1257.76606358039 3.0
vertex 326.535260123621 1257.76606358039 3.0
endloop
endfacet
facet normal 0.0 0.0 1.0
outer loop
vertex 207.567624680589 1342.01808600213 3.0
vertex 229.624165893408 1300.74974949266 3.0
vertex 216.966693480589 1342.01808600213 3.0
endloop
endfacet
facet normal 0.0 0.0 1.0
outer loop
vertex 216.966693480589 1342.01808600213 3.0
vertex 229.624165893408 1300.74974949266 3.0
vertex 216.966693480589 1350.30819992213 3.0
endloop
endfacet
facet normal 0.0 0.0 1.0
outer loop
vertex 216.966693480589 1350.30819992213 3.0
vertex 229.624165893408 1300.74974949266 3.0
vertex 226.819239489911 1316.91518923138 3.0
endloop
endfacet
facet normal 0.0 0.0 1.0
outer loop
vertex 229.624165893408 1300.74974949266 3.0
vertex 326.535260123621 1257.76606358039 3.0
vertex 239.895522373408 1300.74974949266 3.0
endloop
endfacet
facet normal 0.0 0.0 1.0
outer loop
vertex 239.895522373408 1300.74974949266 3.0
vertex 326.535260123621 1257.76606358039 3.0
vertex 239.895522373408 1303.95489957266 3.0
endloop
endfacet
facet normal 0.0 0.0 1.0
outer loop
vertex 239.895522373408 1303.95489957266 3.0
vertex 326.535260123621 1257.76606358039 3.0
vertex 299.568470284534 1277.6676863137 3.0
endloop
endfacet
facet normal 0.0 0.0 1.0
outer loop
vertex 239.895522373408 1303.95489957266 3.0
vertex 299.568470284534 1277.6676863137 3.0
vertex 259.208088821508 1314.1277616725 3.0
endloop
endfacet
facet normal 0.0 0.0 1.0
outer loop
vertex 239.895522373408 1303.95489957266 3.0
vertex 259.208088821508 1314.1277616725 3.0
vertex 253.536245437504 1319.69575853147 3.0
endloop
endfacet
facet normal 0.0 0.0 1.0
outer loop
vertex 239.895522373408 1303.95489957266 3.0
vertex 253.536245437504 1319.69575853147 3.0
vertex 249.059647233921 1326.26328964429 3.0
endloop
endfacet
facet normal 0.0 0.0 1.0
outer loop
vertex 239.895522373408 1303.95489957266 3.0
vertex 249.059647233921 1326.26328964429 3.0
vertex 241.558990825168 1341.80245480627 3.0
endloop
endfacet
facet normal 0.0 0.0 1.0
outer loop
vertex 241.558990825168 1341.80245480627 3.0
vertex 249.059647233921 1326.26328964429 3.0
vertex 245.950327369218 1333.5779684734 3.0
endloop
endfacet
facet normal 0.0 0.0 1.0
outer loop
vertex 241.558990825168 1341.80245480627 3.0
vertex 245.950327369218 1333.5779684734 3.0
vertex 241.558990825168 1350.51180776627 3.0
endloop
endfacet
facet normal 0.0 0.0 1.0
outer loop
vertex 241.558990825168 1350.51180776627 3.0
vertex 245.950327369218 1333.5779684734 3.0
vertex 244.327775262069 1341.35869601353 3.0
endloop
endfacet
facet normal 0.0 0.0 1.0
outer loop
vertex 241.558990825168 1350.51180776627 3.0
vertex 244.327775262069 1341.35869601353 3.0
vertex 244.254344680014 1349.30646326879 3.0
endloop
endfacet
facet normal 0.0 0.0 1.0
outer loop
vertex 259.208088821508 1314.1277616725 3.0
vertex 299.568470284534 1277.6676863137 3.0
vertex 265.857211625493 1309.7732740641 3.0
endloop
endfacet
facet normal 0.0 0.0 1.0
outer loop
vertex 265.857211625493 1309.7732740641 3.0
vertex 299.568470284534 1277.6676863137 3.0
vertex 273.228091788972 1306.79963622304 3.0
endloop
endfacet
facet normal 0.0 0.0 1.0
outer loop
vertex 273.228091788972 1306.79963622304 3.0
vertex 299.568470284534 1277.6676863137 3.0
vertex 281.0374705209 1305.32112338392 3.0
endloop
endfacet
facet normal 0.0 0.0 1.0
outer loop
vertex 281.0374705209 1305.32112338392 3.0
vertex 299.568470284534 1277.6676863137 3.0
vertex 289.767864735538 1300.7823777411 3.0
endloop
endfacet
facet normal 0.0 0.0 1.0
outer loop
vertex 281.0374705209 1305.32112338392 3.0
vertex 289.767864735538 1300.7823777411 3.0
vertex 288.985237776159 1305.39455396597 3.0
endloop
endfacet
facet normal 0.0 0.0 1.0
outer loop
vertex 299.568470284534 1277.6676863137 3.0
vertex 326.535260123621 1257.76606358039 3.0
vertex 302.848001484534 1277.6676863137 3.0
endloop
endfacet
facet normal 0.0 0.0 1.0
outer loop
vertex 302.848001484534 1277.6676863137 3.0
vertex 326.535260123621 1257.76606358039 3.0
vertex 302.848001484534 1287.6550421537 3.0
endloop
endfacet
facet normal 0.0 0.0 1.0
outer loop
vertex 302.848001484534 1287.6550421537 3.0
vertex 326.535260123621 1257.76606358039 3.0
vertex 304.080644145405 1310.12642593782 3.0
endloop
endfacet
facet normal 0.0 0.0 1.0
outer loop
vertex 304.080644145405 1310.12642593782 3.0
vertex 326.535260123621 1257.76606358039 3.0
vertex 310.648175258223 1314.6030241414 3.0
endloop
endfacet
facet normal 0.0 0.0 1.0
outer loop
vertex 310.648175258223 1314.6030241414 3.0
vertex 326.535260123621 1257.76606358039 3.0
vertex 316.216172117192 1320.27486752541 3.0
endloop
endfacet
facet normal 0.0 0.0 1.0
outer loop
vertex 316.216172117192 1320.27486752541 3.0
vertex 326.535260123621 1257.76606358039 3.0
vertex 320.570659725589 1326.92399032939 3.0
endloop
endfacet
facet normal 0.0 0.0 1.0
outer loop
vertex 320.570659725589 1326.92399032939 3.0
vertex 326.535260123621 1257.76606358039 3.0
vertex 323.544297566649 1334.29487049287 3.0
endloop
endfacet
facet normal 0.0 0.0 1.0
outer loop
vertex 323.544297566649 1334.29487049287 3.0
vertex 326.535260123621 1257.76606358039 3.0
vertex 325.022810405775 1342.1042492248 3.0
endloop
endfacet
facet normal 0.0 0.0 1.0
outer loop
vertex 348.159541161751 1257.76606358039 3.0
vertex 336.666641300027 1264.02760150039 3.0
vertex 336.666641300027 1257.76606358039 3.0
endloop
endfacet
facet normal 0.0 0.0 1.0
outer loop
vertex 336.666641300027 1264.02760150039 3.0
vertex 327.106134161659 1427.84187542039 3.0
vertex 326.535260123621 1264.02760150039 3.0
endloop
endfacet
facet normal 0.0 0.0 1.0
outer loop
vertex 327.106134161659 1427.84187542039 3.0
vertex 336.666641300027 1264.02760150039 3.0
vertex 336.176236748312 1427.84187542039 3.0
endloop
endfacet
facet normal 0.0 0.0 1.0
outer loop
vertex 336.176236748312 1427.84187542039 3.0
vertex 336.666641300027 1264.02760150039 3.0
vertex 336.176236748312 1433.44750710039 3.0
endloop
endfacet
facet normal 0.0 0.0 1.0
outer loop
vertex 336.176236748312 1433.44750710039 3.0
vertex 336.666641300027 1264.02760150039 3.0
vertex 348.159541161751 1433.44750710039 3.0
endloop
endfacet
facet normal 0.0 0.0 1.0
outer loop
vertex 348.159541161751 1433.44750710039 3.0
vertex 336.666641300027 1264.02760150039 3.0
vertex 348.159541161751 1257.76606358039 3.0
endloop
endfacet
facet normal 0.0 0.0 1.0
outer loop
vertex 202.649784681751 1433.44750710039 3.0
vertex 229.592883431922 1391.45640155422 3.0
vertex 327.106134161659 1433.44750710039 3.0
endloop
endfacet
facet normal 0.0 0.0 1.0
outer loop
vertex 229.592883431922 1391.45640155422 3.0
vertex 202.649784681751 1433.44750710039 3.0
vertex 207.567624680589 1350.30819992213 3.0
endloop
endfacet
facet normal 0.0 0.0 1.0
outer loop
vertex 207.567624680589 1350.30819992213 3.0
vertex 202.649784681751 1433.44750710039 3.0
vertex 207.567624680589 1342.01808600213 3.0
endloop
endfacet
facet normal 0.0 0.0 1.0
outer loop
vertex 229.592883431922 1391.45640155422 3.0
vertex 207.567624680589 1350.30819992213 3.0
vertex 216.966693480589 1350.30819992213 3.0
endloop
endfacet
facet normal 0.0 0.0 1.0
outer loop
vertex 229.592883431922 1391.45640155422 3.0
vertex 216.966693480589 1350.30819992213 3.0
vertex 226.831268385491 1375.42520347379 3.0
endloop
endfacet
facet normal 0.0 0.0 1.0
outer loop
vertex 226.831268385491 1375.42520347379 3.0
vertex 216.966693480589 1350.30819992213 3.0
vertex 226.819239489911 1326.70644939138 3.0
endloop
endfacet
facet normal 0.0 0.0 1.0
outer loop
vertex 226.819239489911 1326.70644939138 3.0
vertex 216.966693480589 1350.30819992213 3.0
vertex 226.819239489911 1316.91518923138 3.0
endloop
endfacet
facet normal 0.0 0.0 1.0
outer loop
vertex 226.831268385491 1375.42520347379 3.0
vertex 226.819239489911 1326.70644939138 3.0
vertex 226.831268385491 1365.53927643379 3.0
endloop
endfacet
facet normal 0.0 0.0 1.0
outer loop
vertex 229.592883431922 1391.45640155422 3.0
vertex 226.831268385491 1375.42520347379 3.0
vertex 229.592883431922 1388.14306075422 3.0
endloop
endfacet
facet normal 0.0 0.0 1.0
outer loop
vertex 327.106134161659 1433.44750710039 3.0
vertex 229.592883431922 1391.45640155422 3.0
vertex 239.701953831922 1391.45640155422 3.0
endloop
endfacet
facet normal 0.0 0.0 1.0
outer loop
vertex 327.106134161659 1433.44750710039 3.0
vertex 239.701953831922 1391.45640155422 3.0
vertex 299.544099008417 1414.19894288994 3.0
endloop
endfacet
facet normal 0.0 0.0 1.0
outer loop
vertex 299.544099008417 1414.19894288994 3.0
vertex 239.701953831922 1391.45640155422 3.0
vertex 258.628979827566 1376.80768835219 3.0
endloop
endfacet
facet normal 0.0 0.0 1.0
outer loop
vertex 258.628979827566 1376.80768835219 3.0
vertex 239.701953831922 1391.45640155422 3.0
vertex 253.060982968597 1371.13584496818 3.0
endloop
endfacet
facet normal 0.0 0.0 1.0
outer loop
vertex 253.060982968597 1371.13584496818 3.0
vertex 239.701953831922 1391.45640155422 3.0
vertex 248.7064953602 1364.4867221642 3.0
endloop
endfacet
facet normal 0.0 0.0 1.0
outer loop
vertex 248.7064953602 1364.4867221642 3.0
vertex 239.701953831922 1391.45640155422 3.0
vertex 241.558990825168 1350.51180776627 3.0
endloop
endfacet
facet normal 0.0 0.0 1.0
outer loop
vertex 248.7064953602 1364.4867221642 3.0
vertex 241.558990825168 1350.51180776627 3.0
vertex 245.73285751914 1357.11584200072 3.0
endloop
endfacet
facet normal 0.0 0.0 1.0
outer loop
vertex 245.73285751914 1357.11584200072 3.0
vertex 241.558990825168 1350.51180776627 3.0
vertex 244.254344680014 1349.30646326879 3.0
endloop
endfacet
facet normal 0.0 0.0 1.0
outer loop
vertex 299.544099008417 1414.19894288994 3.0
vertex 258.628979827566 1376.80768835219 3.0
vertex 265.196510940384 1381.28428655577 3.0
endloop
endfacet
facet normal 0.0 0.0 1.0
outer loop
vertex 299.544099008417 1414.19894288994 3.0
vertex 265.196510940384 1381.28428655577 3.0
vertex 272.5111897695 1384.39360642047 3.0
endloop
endfacet
facet normal 0.0 0.0 1.0
outer loop
vertex 299.544099008417 1414.19894288994 3.0
vertex 272.5111897695 1384.39360642047 3.0
vertex 280.29191730963 1386.01615852762 3.0
endloop
endfacet
facet normal 0.0 0.0 1.0
outer loop
vertex 299.544099008417 1414.19894288994 3.0
vertex 280.29191730963 1386.01615852762 3.0
vertex 290.055372618559 1391.33410105941 3.0
endloop
endfacet
facet normal 0.0 0.0 1.0
outer loop
vertex 290.055372618559 1391.33410105941 3.0
vertex 280.29191730963 1386.01615852762 3.0
vertex 288.239684564889 1386.08958910968 3.0
endloop
endfacet
facet normal 0.0 0.0 1.0
outer loop
vertex 290.055372618559 1391.33410105941 3.0
vertex 288.239684564889 1386.08958910968 3.0
vertex 290.055372618559 1387.95990297941 3.0
endloop
endfacet
facet normal 0.0 0.0 1.0
outer loop
vertex 299.544099008417 1414.19894288994 3.0
vertex 290.055372618559 1391.33410105941 3.0
vertex 299.544099008417 1404.21158704995 3.0
endloop
endfacet
facet normal 0.0 0.0 1.0
outer loop
vertex 327.106134161659 1433.44750710039 3.0
vertex 299.544099008417 1414.19894288994 3.0
vertex 302.404391168417 1414.19894288994 3.0
endloop
endfacet
facet normal 0.0 0.0 1.0
outer loop
vertex 327.106134161659 1433.44750710039 3.0
vertex 302.404391168417 1414.19894288994 3.0
vertex 303.419943460296 1381.63743842949 3.0
endloop
endfacet
facet normal 0.0 0.0 1.0
outer loop
vertex 327.106134161659 1433.44750710039 3.0
vertex 303.419943460296 1381.63743842949 3.0
vertex 310.069066264281 1377.28295082109 3.0
endloop
endfacet
facet normal 0.0 0.0 1.0
outer loop
vertex 327.106134161659 1433.44750710039 3.0
vertex 310.069066264281 1377.28295082109 3.0
vertex 315.740909648285 1371.71495396212 3.0
endloop
endfacet
facet normal 0.0 0.0 1.0
outer loop
vertex 327.106134161659 1433.44750710039 3.0
vertex 315.740909648285 1371.71495396212 3.0
vertex 320.217507851868 1365.14742284931 3.0
endloop
endfacet
facet normal 0.0 0.0 1.0
outer loop
vertex 327.106134161659 1433.44750710039 3.0
vertex 320.217507851868 1365.14742284931 3.0
vertex 323.326827716571 1357.83274402019 3.0
endloop
endfacet
facet normal 0.0 0.0 1.0
outer loop
vertex 327.106134161659 1433.44750710039 3.0
vertex 323.326827716571 1357.83274402019 3.0
vertex 324.94937982372 1350.05201648006 3.0
endloop
endfacet
facet normal 0.0 0.0 1.0
outer loop
vertex 327.106134161659 1433.44750710039 3.0
vertex 324.94937982372 1350.05201648006 3.0
vertex 325.022810405775 1342.1042492248 3.0
endloop
endfacet
facet normal 0.0 0.0 1.0
outer loop
vertex 327.106134161659 1433.44750710039 3.0
vertex 325.022810405775 1342.1042492248 3.0
vertex 326.535260123621 1264.02760150039 3.0
endloop
endfacet
facet normal 0.0 0.0 1.0
outer loop
vertex 326.535260123621 1264.02760150039 3.0
vertex 325.022810405775 1342.1042492248 3.0
vertex 326.535260123621 1257.76606358039 3.0
endloop
endfacet
facet normal 0.0 0.0 1.0
outer loop
vertex 327.106134161659 1433.44750710039 3.0
vertex 326.535260123621 1264.02760150039 3.0
vertex 327.106134161659 1427.84187542039 3.0
endloop
endfacet
facet normal 0.0 0.0 1.0
outer loop
vertex 288.985237776159 1305.39455396597 3.0
vertex 289.767864735538 1303.4330503811 3.0
vertex 296.765965316289 1307.01710607312 3.0
endloop
endfacet
facet normal 0.0 0.0 1.0
outer loop
vertex 289.767864735538 1303.4330503811 3.0
vertex 288.985237776159 1305.39455396597 3.0
vertex 289.767864735538 1300.7823777411 3.0
endloop
endfacet
facet normal 0.0 0.0 1.0
outer loop
vertex 296.765965316289 1307.01710607312 3.0
vertex 289.767864735538 1303.4330503811 3.0
vertex 299.748458655538 1303.4330503811 3.0
endloop
endfacet
facet normal 0.0 0.0 1.0
outer loop
vertex 296.765965316289 1307.01710607312 3.0
vertex 299.748458655538 1303.4330503811 3.0
vertex 304.080644145405 1310.12642593782 3.0
endloop
endfacet
facet normal 0.0 0.0 1.0
outer loop
vertex 304.080644145405 1310.12642593782 3.0
vertex 299.748458655538 1303.4330503811 3.0
vertex 302.848001484534 1287.6550421537 3.0
endloop
endfacet
facet normal 0.0 0.0 1.0
outer loop
vertex 299.738442058559 1391.33410105941 3.0
vertex 299.544099008417 1404.21158704995 3.0
vertex 290.055372618559 1391.33410105941 3.0
endloop
endfacet
facet normal 0.0 0.0 1.0
outer loop
vertex 299.544099008417 1404.21158704995 3.0
vertex 299.738442058559 1391.33410105941 3.0
vertex 302.404391168417 1404.21158704995 3.0
endloop
endfacet
facet normal 0.0 -1.0 0.0
outer loop
vertex 348.159541161751 1257.76606358039 3.0
vertex 336.666641300027 1257.76606358039 0.0
vertex 348.159541161751 1257.76606358039 0.0
endloop
endfacet
facet normal 0.0 -1.0 0.0
outer loop
vertex 336.666641300027 1257.76606358039 0.0
vertex 348.159541161751 1257.76606358039 3.0
vertex 336.666641300027 1257.76606358039 3.0
endloop
endfacet
facet normal 1.0 -0.0 0.0
outer loop
vertex 348.159541161751 1433.44750710039 0.0
vertex 348.159541161751 1257.76606358039 3.0
vertex 348.159541161751 1257.76606358039 0.0
endloop
endfacet
facet normal 1.0 -0.0 0.0
outer loop
vertex 348.159541161751 1257.76606358039 3.0
vertex 348.159541161751 1433.44750710039 0.0
vertex 348.159541161751 1433.44750710039 3.0
endloop
endfacet
facet normal 0.0 1.0 0.0
outer loop
vertex 336.176236748312 1433.44750710039 3.0
vertex 348.159541161751 1433.44750710039 0.0
vertex 336.176236748312 1433.44750710039 0.0
endloop
endfacet
facet normal 0.0 1.0 0.0
outer loop
vertex 348.159541161751 1433.44750710039 0.0
vertex 336.176236748312 1433.44750710039 3.0
vertex 348.159541161751 1433.44750710039 3.0
endloop
endfacet
facet normal -1.0 -0.0 -0.0
outer loop
vertex 336.176236748312 1433.44750710039 3.0
vertex 336.176236748312 1427.84187542039 0.0
vertex 336.176236748312 1427.84187542039 3.0
endloop
endfacet
facet normal -1.0 -0.0 -0.0
outer loop
vertex 336.176236748312 1427.84187542039 0.0
vertex 336.176236748312 1433.44750710039 3.0
vertex 336.176236748312 1433.44750710039 0.0
endloop
endfacet
facet normal 0.0 1.0 0.0
outer loop
vertex 327.106134161659 1427.84187542039 3.0
vertex 336.176236748312 1427.84187542039 0.0
vertex 327.106134161659 1427.84187542039 0.0
endloop
endfacet
facet normal 0.0 1.0 0.0
outer loop
vertex 336.176236748312 1427.84187542039 0.0
vertex 327.106134161659 1427.84187542039 3.0
vertex 336.176236748312 1427.84187542039 3.0
endloop
endfacet
facet normal 1.0 -0.0 0.0
outer loop
vertex 327.106134161659 1433.44750710039 0.0
vertex 327.106134161659 1427.84187542039 3.0
vertex 327.106134161659 1427.84187542039 0.0
endloop
endfacet
facet normal 1.0 -0.0 0.0
outer loop
vertex 327.106134161659 1427.84187542039 3.0
vertex 327.106134161659 1433.44750710039 0.0
vertex 327.106134161659 1433.44750710039 3.0
endloop
endfacet
facet normal 0.0 1.0 0.0
outer loop
vertex 202.649784681751 1433.44750710039 3.0
vertex 327.106134161659 1433.44750710039 0.0
vertex 202.649784681751 1433.44750710039 0.0
endloop
endfacet
facet normal 0.0 1.0 0.0
outer loop
vertex 327.106134161659 1433.44750710039 0.0
vertex 202.649784681751 1433.44750710039 3.0
vertex 327.106134161659 1433.44750710039 3.0
endloop
endfacet
facet normal -1.0 -0.0 -0.0
outer loop
vertex 202.649784681751 1433.44750710039 3.0
vertex 202.649784681751 1257.76606358039 0.0
vertex 202.649784681751 1257.76606358039 3.0
endloop
endfacet
facet normal -1.0 -0.0 -0.0
outer loop
vertex 202.649784681751 1257.76606358039 0.0
vertex 202.649784681751 1433.44750710039 3.0
vertex 202.649784681751 1433.44750710039 0.0
endloop
endfacet
facet normal 0.0 -1.0 0.0
outer loop
vertex 326.535260123621 1257.76606358039 3.0
vertex 202.649784681751 1257.76606358039 0.0
vertex 326.535260123621 1257.76606358039 0.0
endloop
endfacet
facet normal 0.0 -1.0 0.0
outer loop
vertex 202.649784681751 1257.76606358039 0.0
vertex 326.535260123621 1257.76606358039 3.0
vertex 202.649784681751 1257.76606358039 3.0
endloop
endfacet
facet normal 1.0 -0.0 0.0
outer loop
vertex 326.535260123621 1264.02760150039 0.0
vertex 326.535260123621 1257.76606358039 3.0
vertex 326.535260123621 1257.76606358039 0.0
endloop
endfacet
facet normal 1.0 -0.0 0.0
outer loop
vertex 326.535260123621 1257.76606358039 3.0
vertex 326.535260123621 1264.02760150039 0.0
vertex 326.535260123621 1264.02760150039 3.0
endloop
endfacet
facet normal 0.0 -1.0 0.0
outer loop
vertex 336.666641300027 1264.02760150039 3.0
vertex 326.535260123621 1264.02760150039 0.0
vertex 336.666641300027 1264.02760150039 0.0
endloop
endfacet
facet normal 0.0 -1.0 0.0
outer loop
vertex 326.535260123621 1264.02760150039 0.0
vertex 336.666641300027 1264.02760150039 3.0
vertex 326.535260123621 1264.02760150039 3.0
endloop
endfacet
facet normal -1.0 -0.0 -0.0
outer loop
vertex 336.666641300027 1264.02760150039 3.0
vertex 336.666641300027 1257.76606358039 0.0
vertex 336.666641300027 1257.76606358039 3.0
endloop
endfacet
facet normal -1.0 -0.0 -0.0
outer loop
vertex 336.666641300027 1257.76606358039 0.0
vertex 336.666641300027 1264.02760150039 3.0
vertex 336.666641300027 1264.02760150039 0.0
endloop
endfacet
facet normal -0.920304585808933 -0.391202593727405 -0.0
outer loop
vertex 320.217507851868 1365.14742284931 3.0
vertex 323.326827716571 1357.83274402019 0.0
vertex 323.326827716571 1357.83274402019 3.0
endloop
endfacet
facet normal -0.920304585808933 -0.391202593727405 -0.0
outer loop
vertex 323.326827716571 1357.83274402019 0.0
vertex 320.217507851868 1365.14742284931 3.0
vertex 320.217507851868 1365.14742284931 0.0
endloop
endfacet
facet normal -0.978941031232824 -0.204143227584987 -0.0
outer loop
vertex 323.326827716571 1357.83274402019 3.0
vertex 324.94937982372 1350.05201648006 0.0
vertex 324.94937982372 1350.05201648006 3.0
endloop
endfacet
facet normal -0.978941031232824 -0.204143227584987 -0.0
outer loop
vertex 324.94937982372 1350.05201648006 0.0
vertex 323.326827716571 1357.83274402019 3.0
vertex 323.326827716571 1357.83274402019 0.0
endloop
endfacet
facet normal -0.99995732182288 -0.00923875169134913 -0.0
outer loop
vertex 324.94937982372 1350.05201648006 3.0
vertex 325.022810405775 1342.1042492248 0.0
vertex 325.022810405775 1342.1042492248 3.0
endloop
endfacet
facet normal -0.99995732182288 -0.00923875169134913 -0.0
outer loop
vertex 325.022810405775 1342.1042492248 0.0
vertex 324.94937982372 1350.05201648006 3.0
vertex 324.94937982372 1350.05201648006 0.0
endloop
endfacet
facet normal -0.982545813317812 0.186020764248619 0.0
outer loop
vertex 325.022810405775 1342.1042492248 3.0
vertex 323.544297566649 1334.29487049287 0.0
vertex 323.544297566649 1334.29487049287 3.0
endloop
endfacet
facet normal -0.982545813317812 0.186020764248619 0.0
outer loop
vertex 323.544297566649 1334.29487049287 0.0
vertex 325.022810405775 1342.1042492248 3.0
vertex 325.022810405775 1342.1042492248 0.0
endloop
endfacet
facet normal -0.927375620224975 0.37413160654019 0.0
outer loop
vertex 323.544297566649 1334.29487049287 3.0
vertex 320.570659725589 1326.92399032939 0.0
vertex 320.570659725589 1326.92399032939 3.0
endloop
endfacet
facet normal -0.927375620224975 0.37413160654019 0.0
outer loop
vertex 320.570659725589 1326.92399032939 0.0
vertex 323.544297566649 1334.29487049287 3.0
vertex 323.544297566649 1334.29487049287 0.0
endloop
endfacet
facet normal -0.836566902125172 0.547864781007771 0.0
outer loop
vertex 320.570659725589 1326.92399032939 3.0
vertex 316.216172117192 1320.27486752541 0.0
vertex 316.216172117192 1320.27486752541 3.0
endloop
endfacet
facet normal -0.836566902125172 0.547864781007771 0.0
outer loop
vertex 316.216172117192 1320.27486752541 0.0
vertex 320.570659725589 1326.92399032939 3.0
vertex 320.570659725589 1326.92399032939 0.0
endloop
endfacet
facet normal -0.713609387128737 0.700543819187457 0.0
outer loop
vertex 316.216172117192 1320.27486752541 3.0
vertex 310.648175258223 1314.6030241414 0.0
vertex 310.648175258223 1314.6030241414 3.0
endloop
endfacet
facet normal -0.713609387128737 0.700543819187457 0.0
outer loop
vertex 310.648175258223 1314.6030241414 0.0
vertex 316.216172117192 1320.27486752541 3.0
vertex 316.216172117192 1320.27486752541 0.0
endloop
endfacet
facet normal -0.563228263581712 0.826301351265221 0.0
outer loop
vertex 304.080644145405 1310.12642593782 3.0
vertex 310.648175258223 1314.6030241414 0.0
vertex 304.080644145405 1310.12642593782 0.0
endloop
endfacet
facet normal -0.563228263581712 0.826301351265221 0.0
outer loop
vertex 310.648175258223 1314.6030241414 0.0
vertex 304.080644145405 1310.12642593782 3.0
vertex 310.648175258223 1314.6030241414 3.0
endloop
endfacet
facet normal -0.391202593727436 0.92030458580892 0.0
outer loop
vertex 296.765965316289 1307.01710607312 3.0
vertex 304.080644145405 1310.12642593782 0.0
vertex 296.765965316289 1307.01710607312 0.0
endloop
endfacet
facet normal -0.391202593727436 0.92030458580892 0.0
outer loop
vertex 304.080644145405 1310.12642593782 0.0
vertex 296.765965316289 1307.01710607312 3.0
vertex 304.080644145405 1310.12642593782 3.0
endloop
endfacet
facet normal -0.204143227584942 0.978941031232833 0.0
outer loop
vertex 288.985237776159 1305.39455396597 3.0
vertex 296.765965316289 1307.01710607312 0.0
vertex 288.985237776159 1305.39455396597 0.0
endloop
endfacet
facet normal -0.204143227584942 0.978941031232833 0.0
outer loop
vertex 296.765965316289 1307.01710607312 0.0
vertex 288.985237776159 1305.39455396597 3.0
vertex 296.765965316289 1307.01710607312 3.0
endloop
endfacet
facet normal -0.00923875169137205 0.999957321822879 0.0
outer loop
vertex 281.0374705209 1305.32112338392 3.0
vertex 288.985237776159 1305.39455396597 0.0
vertex 281.0374705209 1305.32112338392 0.0
endloop
endfacet
facet normal -0.00923875169137205 0.999957321822879 0.0
outer loop
vertex 288.985237776159 1305.39455396597 0.0
vertex 281.0374705209 1305.32112338392 3.0
vertex 288.985237776159 1305.39455396597 3.0
endloop
endfacet
facet normal 0.186020764248637 0.982545813317808 0.0
outer loop
vertex 273.228091788972 1306.79963622304 3.0
vertex 281.0374705209 1305.32112338392 0.0
vertex 273.228091788972 1306.79963622304 0.0
endloop
endfacet
facet normal 0.186020764248637 0.982545813317808 0.0
outer loop
vertex 281.0374705209 1305.32112338392 0.0
vertex 273.228091788972 1306.79963622304 3.0
vertex 281.0374705209 1305.32112338392 3.0
endloop
endfacet
facet normal 0.37413160654014 0.927375620224995 0.0
outer loop
vertex 265.857211625493 1309.7732740641 3.0
vertex 273.228091788972 1306.79963622304 0.0
vertex 265.857211625493 1309.7732740641 0.0
endloop
endfacet
facet normal 0.37413160654014 0.927375620224995 0.0
outer loop
vertex 273.228091788972 1306.79963622304 0.0
vertex 265.857211625493 1309.7732740641 3.0
vertex 273.228091788972 1306.79963622304 3.0
endloop
endfacet
facet normal 0.547864781007856 0.836566902125116 0.0
outer loop
vertex 259.208088821508 1314.1277616725 3.0
vertex 265.857211625493 1309.7732740641 0.0
vertex 259.208088821508 1314.1277616725 0.0
endloop
endfacet
facet normal 0.547864781007856 0.836566902125116 0.0
outer loop
vertex 265.857211625493 1309.7732740641 0.0
vertex 259.208088821508 1314.1277616725 3.0
vertex 265.857211625493 1309.7732740641 3.0
endloop
endfacet
facet normal 0.700543819187443 0.713609387128751 0.0
outer loop
vertex 253.536245437504 1319.69575853147 3.0
vertex 259.208088821508 1314.1277616725 0.0
vertex 253.536245437504 1319.69575853147 0.0
endloop
endfacet
facet normal 0.700543819187443 0.713609387128751 0.0
outer loop
vertex 259.208088821508 1314.1277616725 0.0
vertex 253.536245437504 1319.69575853147 3.0
vertex 259.208088821508 1314.1277616725 3.0
endloop
endfacet
facet normal 0.826301351265181 0.56322826358177 0.0
outer loop
vertex 249.059647233921 1326.26328964429 0.0
vertex 253.536245437504 1319.69575853147 3.0
vertex 253.536245437504 1319.69575853147 0.0
endloop
endfacet
facet normal 0.826301351265181 0.56322826358177 0.0
outer loop
vertex 253.536245437504 1319.69575853147 3.0
vertex 249.059647233921 1326.26328964429 0.0
vertex 249.059647233921 1326.26328964429 3.0
endloop
endfacet
facet normal 0.920304585808924 0.391202593727426 0.0
outer loop
vertex 245.950327369218 1333.5779684734 0.0
vertex 249.059647233921 1326.26328964429 3.0
vertex 249.059647233921 1326.26328964429 0.0
endloop
endfacet
facet normal 0.920304585808924 0.391202593727426 0.0
outer loop
vertex 249.059647233921 1326.26328964429 3.0
vertex 245.950327369218 1333.5779684734 0.0
vertex 245.950327369218 1333.5779684734 3.0
endloop
endfacet
facet normal 0.978941031232827 0.20414322758497 0.0
outer loop
vertex 244.327775262069 1341.35869601353 0.0
vertex 245.950327369218 1333.5779684734 3.0
vertex 245.950327369218 1333.5779684734 0.0
endloop
endfacet
facet normal 0.978941031232827 0.20414322758497 0.0
outer loop
vertex 245.950327369218 1333.5779684734 3.0
vertex 244.327775262069 1341.35869601353 0.0
vertex 244.327775262069 1341.35869601353 3.0
endloop
endfacet
facet normal 0.999957321822879 0.00923875169136133 0.0
outer loop
vertex 244.254344680014 1349.30646326879 0.0
vertex 244.327775262069 1341.35869601353 3.0
vertex 244.327775262069 1341.35869601353 0.0
endloop
endfacet
facet normal 0.999957321822879 0.00923875169136133 0.0
outer loop
vertex 244.327775262069 1341.35869601353 3.0
vertex 244.254344680014 1349.30646326879 0.0
vertex 244.254344680014 1349.30646326879 3.0
endloop
endfacet
facet normal 0.982545813317807 -0.186020764248644 0.0
outer loop
vertex 245.73285751914 1357.11584200072 0.0
vertex 244.254344680014 1349.30646326879 3.0
vertex 244.254344680014 1349.30646326879 0.0
endloop
endfacet
facet normal 0.982545813317807 -0.186020764248644 0.0
outer loop
vertex 244.254344680014 1349.30646326879 3.0
vertex 245.73285751914 1357.11584200072 0.0
vertex 245.73285751914 1357.11584200072 3.0
endloop
endfacet
facet normal 0.927375620224984 -0.374131606540167 0.0
outer loop
vertex 248.7064953602 1364.4867221642 0.0
vertex 245.73285751914 1357.11584200072 3.0
vertex 245.73285751914 1357.11584200072 0.0
endloop
endfacet
facet normal 0.927375620224984 -0.374131606540167 0.0
outer loop
vertex 245.73285751914 1357.11584200072 3.0
vertex 248.7064953602 1364.4867221642 0.0
vertex 248.7064953602 1364.4867221642 3.0
endloop
endfacet
facet normal 0.836566902125126 -0.547864781007841 0.0
outer loop
vertex 253.060982968597 1371.13584496818 0.0
vertex 248.7064953602 1364.4867221642 3.0
vertex 248.7064953602 1364.4867221642 0.0
endloop
endfacet
facet normal 0.836566902125126 -0.547864781007841 0.0
outer loop
vertex 248.7064953602 1364.4867221642 3.0
vertex 253.060982968597 1371.13584496818 0.0
vertex 253.060982968597 1371.13584496818 3.0
endloop
endfacet
facet normal 0.713609387128754 -0.70054381918744 0.0
outer loop
vertex 258.628979827566 1376.80768835219 0.0
vertex 253.060982968597 1371.13584496818 3.0
vertex 253.060982968597 1371.13584496818 0.0
endloop
endfacet
facet normal 0.713609387128754 -0.70054381918744 0.0
outer loop
vertex 253.060982968597 1371.13584496818 3.0
vertex 258.628979827566 1376.80768835219 0.0
vertex 258.628979827566 1376.80768835219 3.0
endloop
endfacet
facet normal 0.563228263581815 -0.826301351265151 0.0
outer loop
vertex 265.196510940384 1381.28428655577 3.0
vertex 258.628979827566 1376.80768835219 0.0
vertex 265.196510940384 1381.28428655577 0.0
endloop
endfacet
facet normal 0.563228263581815 -0.826301351265151 0.0
outer loop
vertex 258.628979827566 1376.80768835219 0.0
vertex 265.196510940384 1381.28428655577 3.0
vertex 258.628979827566 1376.80768835219 3.0
endloop
endfacet
facet normal 0.391202593727399 -0.920304585808935 0.0
outer loop
vertex 272.5111897695 1384.39360642047 3.0
vertex 265.196510940384 1381.28428655577 0.0
vertex 272.5111897695 1384.39360642047 0.0
endloop
endfacet
facet normal 0.391202593727399 -0.920304585808935 0.0
outer loop
vertex 265.196510940384 1381.28428655577 0.0
vertex 272.5111897695 1384.39360642047 3.0
vertex 265.196510940384 1381.28428655577 3.0
endloop
endfacet
facet normal 0.20414322758496 -0.978941031232829 0.0
outer loop
vertex 280.29191730963 1386.01615852762 3.0
vertex 272.5111897695 1384.39360642047 0.0
vertex 280.29191730963 1386.01615852762 0.0
endloop
endfacet
facet normal 0.20414322758496 -0.978941031232829 0.0
outer loop
vertex 272.5111897695 1384.39360642047 0.0
vertex 280.29191730963 1386.01615852762 3.0
vertex 272.5111897695 1384.39360642047 3.0
endloop
endfacet
facet normal 0.0092387516913494 -0.999957321822879 0.0
outer loop
vertex 288.239684564889 1386.08958910968 3.0
vertex 280.29191730963 1386.01615852762 0.0
vertex 288.239684564889 1386.08958910968 0.0
endloop
endfacet
facet normal 0.0092387516913494 -0.999957321822879 0.0
outer loop
vertex 280.29191730963 1386.01615852762 0.0
vertex 288.239684564889 1386.08958910968 3.0
vertex 280.29191730963 1386.01615852762 3.0
endloop
endfacet
facet normal -0.186020764248613 -0.982545813317813 -0.0
outer loop
vertex 296.049063296817 1384.61107627055 3.0
vertex 288.239684564889 1386.08958910968 0.0
vertex 296.049063296817 1384.61107627055 0.0
endloop
endfacet
facet normal -0.186020764248613 -0.982545813317813 -0.0
outer loop
vertex 288.239684564889 1386.08958910968 0.0
vertex 296.049063296817 1384.61107627055 3.0
vertex 288.239684564889 1386.08958910968 3.0
endloop
endfacet
facet normal -0.374131606540191 -0.927375620224974 -0.0
outer loop
vertex 303.419943460296 1381.63743842949 3.0
vertex 296.049063296817 1384.61107627055 0.0
vertex 303.419943460296 1381.63743842949 0.0
endloop
endfacet
facet normal -0.374131606540191 -0.927375620224974 -0.0
outer loop
vertex 296.049063296817 1384.61107627055 0.0
vertex 303.419943460296 1381.63743842949 3.0
vertex 296.049063296817 1384.61107627055 3.0
endloop
endfacet
facet normal -0.547864781007803 -0.836566902125151 -0.0
outer loop
vertex 310.069066264281 1377.28295082109 3.0
vertex 303.419943460296 1381.63743842949 0.0
vertex 310.069066264281 1377.28295082109 0.0
endloop
endfacet
facet normal -0.547864781007803 -0.836566902125151 -0.0
outer loop
vertex 303.419943460296 1381.63743842949 0.0
vertex 310.069066264281 1377.28295082109 3.0
vertex 303.419943460296 1381.63743842949 3.0
endloop
endfacet
facet normal -0.700543819187489 -0.713609387128706 -0.0
outer loop
vertex 315.740909648285 1371.71495396212 3.0
vertex 310.069066264281 1377.28295082109 0.0
vertex 315.740909648285 1371.71495396212 0.0
endloop
endfacet
facet normal -0.700543819187489 -0.713609387128706 -0.0
outer loop
vertex 310.069066264281 1377.28295082109 0.0
vertex 315.740909648285 1371.71495396212 3.0
vertex 310.069066264281 1377.28295082109 3.0
endloop
endfacet
facet normal -0.826301351265167 -0.563228263581791 -0.0
outer loop
vertex 315.740909648285 1371.71495396212 3.0
vertex 320.217507851868 1365.14742284931 0.0
vertex 320.217507851868 1365.14742284931 3.0
endloop
endfacet
facet normal -0.826301351265167 -0.563228263581791 -0.0
outer loop
vertex 320.217507851868 1365.14742284931 0.0
vertex 315.740909648285 1371.71495396212 3.0
vertex 315.740909648285 1371.71495396212 0.0
endloop
endfacet
facet normal 0.0 -1.0 0.0
outer loop
vertex 302.404391168417 1414.19894288994 3.0
vertex 299.544099008417 1414.19894288994 0.0
vertex 302.404391168417 1414.19894288994 0.0
endloop
endfacet
facet normal 0.0 -1.0 0.0
outer loop
vertex 299.544099008417 1414.19894288994 0.0
vertex 302.404391168417 1414.19894288994 3.0
vertex 299.544099008417 1414.19894288994 3.0
endloop
endfacet
facet normal -1.0 -0.0 -0.0
outer loop
vertex 302.404391168417 1414.19894288994 3.0
vertex 302.404391168417 1404.21158704995 0.0
vertex 302.404391168417 1404.21158704995 3.0
endloop
endfacet
facet normal -1.0 -0.0 -0.0
outer loop
vertex 302.404391168417 1404.21158704995 0.0
vertex 302.404391168417 1414.19894288994 3.0
vertex 302.404391168417 1414.19894288994 0.0
endloop
endfacet
facet normal 0.0 1.0 0.0
outer loop
vertex 299.544099008417 1404.21158704995 3.0
vertex 302.404391168417 1404.21158704995 0.0
vertex 299.544099008417 1404.21158704995 0.0
endloop
endfacet
facet normal 0.0 1.0 0.0
outer loop
vertex 302.404391168417 1404.21158704995 0.0
vertex 299.544099008417 1404.21158704995 3.0
vertex 302.404391168417 1404.21158704995 3.0
endloop
endfacet
facet normal 1.0 -0.0 0.0
outer loop
vertex 299.544099008417 1414.19894288994 0.0
vertex 299.544099008417 1404.21158704995 3.0
vertex 299.544099008417 1404.21158704995 0.0
endloop
endfacet
facet normal 1.0 -0.0 0.0
outer loop
vertex 299.544099008417 1404.21158704995 3.0
vertex 299.544099008417 1414.19894288994 0.0
vertex 299.544099008417 1414.19894288994 3.0
endloop
endfacet
facet normal -1.0 -0.0 -0.0
outer loop
vertex 299.738442058559 1391.33410105941 3.0
vertex 299.738442058559 1387.95990297941 0.0
vertex 299.738442058559 1387.95990297941 3.0
endloop
endfacet
facet normal -1.0 -0.0 -0.0
outer loop
vertex 299.738442058559 1387.95990297941 0.0
vertex 299.738442058559 1391.33410105941 3.0
vertex 299.738442058559 1391.33410105941 0.0
endloop
endfacet
facet normal 0.0 1.0 0.0
outer loop
vertex 290.055372618559 1387.95990297941 3.0
vertex 299.738442058559 1387.95990297941 0.0
vertex 290.055372618559 1387.95990297941 0.0
endloop
endfacet
facet normal 0.0 1.0 0.0
outer loop
vertex 299.738442058559 1387.95990297941 0.0
vertex 290.055372618559 1387.95990297941 3.0
vertex 299.738442058559 1387.95990297941 3.0
endloop
endfacet
facet normal 1.0 -0.0 0.0
outer loop
vertex 290.055372618559 1391.33410105941 0.0
vertex 290.055372618559 1387.95990297941 3.0
vertex 290.055372618559 1387.95990297941 0.0
endloop
endfacet
facet normal 1.0 -0.0 0.0
outer loop
vertex 290.055372618559 1387.95990297941 3.0
vertex 290.055372618559 1391.33410105941 0.0
vertex 290.055372618559 1391.33410105941 3.0
endloop
endfacet
facet normal 0.0 -1.0 0.0
outer loop
vertex 299.738442058559 1391.33410105941 3.0
vertex 290.055372618559 1391.33410105941 0.0
vertex 299.738442058559 1391.33410105941 0.0
endloop
endfacet
facet normal 0.0 -1.0 0.0
outer loop
vertex 290.055372618559 1391.33410105941 0.0
vertex 299.738442058559 1391.33410105941 3.0
vertex 290.055372618559 1391.33410105941 3.0
endloop
endfacet
facet normal -1.0 -0.0 -0.0
outer loop
vertex 299.748458655538 1303.4330503811 3.0
vertex 299.748458655538 1300.7823777411 0.0
vertex 299.748458655538 1300.7823777411 3.0
endloop
endfacet
facet normal -1.0 -0.0 -0.0
outer loop
vertex 299.748458655538 1300.7823777411 0.0
vertex 299.748458655538 1303.4330503811 3.0
vertex 299.748458655538 1303.4330503811 0.0
endloop
endfacet
facet normal 0.0 1.0 0.0
outer loop
vertex 289.767864735538 1300.7823777411 3.0
vertex 299.748458655538 1300.7823777411 0.0
vertex 289.767864735538 1300.7823777411 0.0
endloop
endfacet
facet normal 0.0 1.0 0.0
outer loop
vertex 299.748458655538 1300.7823777411 0.0
vertex 289.767864735538 1300.7823777411 3.0
vertex 299.748458655538 1300.7823777411 3.0
endloop
endfacet
facet normal 1.0 -0.0 0.0
outer loop
vertex 289.767864735538 1303.4330503811 0.0
vertex 289.767864735538 1300.7823777411 3.0
vertex 289.767864735538 1300.7823777411 0.0
endloop
endfacet
facet normal 1.0 -0.0 0.0
outer loop
vertex 289.767864735538 1300.7823777411 3.0
vertex 289.767864735538 1303.4330503811 0.0
vertex 289.767864735538 1303.4330503811 3.0
endloop
endfacet
facet normal 0.0 -1.0 0.0
outer loop
vertex 299.748458655538 1303.4330503811 3.0
vertex 289.767864735538 1303.4330503811 0.0
vertex 299.748458655538 1303.4330503811 0.0
endloop
endfacet
facet normal 0.0 -1.0 0.0
outer loop
vertex 289.767864735538 1303.4330503811 0.0
vertex 299.748458655538 1303.4330503811 3.0
vertex 289.767864735538 1303.4330503811 3.0
endloop
endfacet
facet normal 0.0 -1.0 0.0
outer loop
vertex 302.848001484534 1287.6550421537 3.0
vertex 299.568470284534 1287.6550421537 0.0
vertex 302.848001484534 1287.6550421537 0.0
endloop
endfacet
facet normal 0.0 -1.0 0.0
outer loop
vertex 299.568470284534 1287.6550421537 0.0
vertex 302.848001484534 1287.6550421537 3.0
vertex 299.568470284534 1287.6550421537 3.0
endloop
endfacet
facet normal -1.0 -0.0 -0.0
outer loop
vertex 302.848001484534 1287.6550421537 3.0
vertex 302.848001484534 1277.6676863137 0.0
vertex 302.848001484534 1277.6676863137 3.0
endloop
endfacet
facet normal -1.0 -0.0 -0.0
outer loop
vertex 302.848001484534 1277.6676863137 0.0
vertex 302.848001484534 1287.6550421537 3.0
vertex 302.848001484534 1287.6550421537 0.0
endloop
endfacet
facet normal 0.0 1.0 0.0
outer loop
vertex 299.568470284534 1277.6676863137 3.0
vertex 302.848001484534 1277.6676863137 0.0
vertex 299.568470284534 1277.6676863137 0.0
endloop
endfacet
facet normal 0.0 1.0 0.0
outer loop
vertex 302.848001484534 1277.6676863137 0.0
vertex 299.568470284534 1277.6676863137 3.0
vertex 302.848001484534 1277.6676863137 3.0
endloop
endfacet
facet normal 1.0 -0.0 0.0
outer loop
vertex 299.568470284534 1287.6550421537 0.0
vertex 299.568470284534 1277.6676863137 3.0
vertex 299.568470284534 1277.6676863137 0.0
endloop
endfacet
facet normal 1.0 -0.0 0.0
outer loop
vertex 299.568470284534 1277.6676863137 3.0
vertex 299.568470284534 1287.6550421537 0.0
vertex 299.568470284534 1287.6550421537 3.0
endloop
endfacet
facet normal -1.0 -0.0 -0.0
outer loop
vertex 239.895522373408 1303.95489957266 3.0
vertex 239.895522373408 1300.74974949266 0.0
vertex 239.895522373408 1300.74974949266 3.0
endloop
endfacet
facet normal -1.0 -0.0 -0.0
outer loop
vertex 239.895522373408 1300.74974949266 0.0
vertex 239.895522373408 1303.95489957266 3.0
vertex 239.895522373408 1303.95489957266 0.0
endloop
endfacet
facet normal 0.0 1.0 0.0
outer loop
vertex 229.624165893408 1300.74974949266 3.0
vertex 239.895522373408 1300.74974949266 0.0
vertex 229.624165893408 1300.74974949266 0.0
endloop
endfacet
facet normal 0.0 1.0 0.0
outer loop
vertex 239.895522373408 1300.74974949266 0.0
vertex 229.624165893408 1300.74974949266 3.0
vertex 239.895522373408 1300.74974949266 3.0
endloop
endfacet
facet normal 1.0 -0.0 0.0
outer loop
vertex 229.624165893408 1303.95489957266 0.0
vertex 229.624165893408 1300.74974949266 3.0
vertex 229.624165893408 1300.74974949266 0.0
endloop
endfacet
facet normal 1.0 -0.0 0.0
outer loop
vertex 229.624165893408 1300.74974949266 3.0
vertex 229.624165893408 1303.95489957266 0.0
vertex 229.624165893408 1303.95489957266 3.0
endloop
endfacet
facet normal 0.0 -1.0 0.0
outer loop
vertex 239.895522373408 1303.95489957266 3.0
vertex 229.624165893408 1303.95489957266 0.0
vertex 239.895522373408 1303.95489957266 0.0
endloop
endfacet
facet normal 0.0 -1.0 0.0
outer loop
vertex 229.624165893408 1303.95489957266 0.0
vertex 239.895522373408 1303.95489957266 3.0
vertex 229.624165893408 1303.95489957266 3.0
endloop
endfacet
facet normal 0.0 1.0 0.0
outer loop
vertex 226.819239489911 1316.91518923138 3.0
vertex 229.909436929911 1316.91518923138 0.0
vertex 226.819239489911 1316.91518923138 0.0
endloop
endfacet
facet normal 0.0 1.0 0.0
outer loop
vertex 229.909436929911 1316.91518923138 0.0
vertex 226.819239489911 1316.91518923138 3.0
vertex 229.909436929911 1316.91518923138 3.0
endloop
endfacet
facet normal 1.0 -0.0 0.0
outer loop
vertex 226.819239489911 1326.70644939138 0.0
vertex 226.819239489911 1316.91518923138 3.0
vertex 226.819239489911 1316.91518923138 0.0
endloop
endfacet
facet normal 1.0 -0.0 0.0
outer loop
vertex 226.819239489911 1316.91518923138 3.0
vertex 226.819239489911 1326.70644939138 0.0
vertex 226.819239489911 1326.70644939138 3.0
endloop
endfacet
facet normal 0.0 -1.0 0.0
outer loop
vertex 229.909436929911 1326.70644939138 3.0
vertex 226.819239489911 1326.70644939138 0.0
vertex 229.909436929911 1326.70644939138 0.0
endloop
endfacet
facet normal 0.0 -1.0 0.0
outer loop
vertex 226.819239489911 1326.70644939138 0.0
vertex 229.909436929911 1326.70644939138 3.0
vertex 226.819239489911 1326.70644939138 3.0
endloop
endfacet
facet normal -1.0 -0.0 -0.0
outer loop
vertex 229.909436929911 1326.70644939138 3.0
vertex 229.909436929911 1316.91518923138 0.0
vertex 229.909436929911 1316.91518923138 3.0
endloop
endfacet
facet normal -1.0 -0.0 -0.0
outer loop
vertex 229.909436929911 1316.91518923138 0.0
vertex 229.909436929911 1326.70644939138 3.0
vertex 229.909436929911 1326.70644939138 0.0
endloop
endfacet
facet normal -1.0 -0.0 -0.0
outer loop
vertex 241.558990825168 1350.51180776627 3.0
vertex 241.558990825168 1341.80245480627 0.0
vertex 241.558990825168 1341.80245480627 3.0
endloop
endfacet
facet normal -1.0 -0.0 -0.0
outer loop
vertex 241.558990825168 1341.80245480627 0.0
vertex 241.558990825168 1350.51180776627 3.0
vertex 241.558990825168 1350.51180776627 0.0
endloop
endfacet
facet normal 0.0 1.0 0.0
outer loop
vertex 231.666301865168 1341.80245480627 3.0
vertex 241.558990825168 1341.80245480627 0.0
vertex 231.666301865168 1341.80245480627 0.0
endloop
endfacet
facet normal 0.0 1.0 0.0
outer loop
vertex 241.558990825168 1341.80245480627 0.0
vertex 231.666301865168 1341.80245480627 3.0
vertex 241.558990825168 1341.80245480627 3.0
endloop
endfacet
facet normal 1.0 -0.0 0.0
outer loop
vertex 231.666301865168 1350.51180776627 0.0
vertex 231.666301865168 1341.80245480627 3.0
vertex 231.666301865168 1341.80245480627 0.0
endloop
endfacet
facet normal 1.0 -0.0 0.0
outer loop
vertex 231.666301865168 1341.80245480627 3.0
vertex 231.666301865168 1350.51180776627 0.0
vertex 231.666301865168 1350.51180776627 3.0
endloop
endfacet
facet normal 0.0 -1.0 0.0
outer loop
vertex 241.558990825168 1350.51180776627 3.0
vertex 231.666301865168 1350.51180776627 0.0
vertex 241.558990825168 1350.51180776627 0.0
endloop
endfacet
facet normal 0.0 -1.0 0.0
outer loop
vertex 231.666301865168 1350.51180776627 0.0
vertex 241.558990825168 1350.51180776627 3.0
vertex 231.666301865168 1350.51180776627 3.0
endloop
endfacet
facet normal -1.0 -0.0 -0.0
outer loop
vertex 216.966693480589 1350.30819992213 3.0
vertex 216.966693480589 1342.01808600213 0.0
vertex 216.966693480589 1342.01808600213 3.0
endloop
endfacet
facet normal -1.0 -0.0 -0.0
outer loop
vertex 216.966693480589 1342.01808600213 0.0
vertex 216.966693480589 1350.30819992213 3.0
vertex 216.966693480589 1350.30819992213 0.0
endloop
endfacet
facet normal 0.0 1.0 0.0
outer loop
vertex 207.567624680589 1342.01808600213 3.0
vertex 216.966693480589 1342.01808600213 0.0
vertex 207.567624680589 1342.01808600213 0.0
endloop
endfacet
facet normal 0.0 1.0 0.0
outer loop
vertex 216.966693480589 1342.01808600213 0.0
vertex 207.567624680589 1342.01808600213 3.0
vertex 216.966693480589 1342.01808600213 3.0
endloop
endfacet
facet normal 1.0 -0.0 0.0
outer loop
vertex 207.567624680589 1350.30819992213 0.0
vertex 207.567624680589 1342.01808600213 3.0
vertex 207.567624680589 1342.01808600213 0.0
endloop
endfacet
facet normal 1.0 -0.0 0.0
outer loop
vertex 207.567624680589 1342.01808600213 3.0
vertex 207.567624680589 1350.30819992213 0.0
vertex 207.567624680589 1350.30819992213 3.0
endloop
endfacet
facet normal 0.0 -1.0 0.0
outer loop
vertex 216.966693480589 1350.30819992213 3.0
vertex 207.567624680589 1350.30819992213 0.0
vertex 216.966693480589 1350.30819992213 0.0
endloop
endfacet
facet normal 0.0 -1.0 0.0
outer loop
vertex 207.567624680589 1350.30819992213 0.0
vertex 216.966693480589 1350.30819992213 3.0
vertex 207.567624680589 1350.30819992213 3.0
endloop
endfacet
facet normal 0.0 -1.0 0.0
outer loop
vertex 230.239276065491 1375.42520347379 3.0
vertex 226.831268385491 1375.42520347379 0.0
vertex 230.239276065491 1375.42520347379 0.0
endloop
endfacet
facet normal 0.0 -1.0 0.0
outer loop
vertex 226.831268385491 1375.42520347379 0.0
vertex 230.239276065491 1375.42520347379 3.0
vertex 226.831268385491 1375.42520347379 3.0
endloop
endfacet
facet normal -1.0 -0.0 -0.0
outer loop
vertex 230.239276065491 1375.42520347379 3.0
vertex 230.239276065491 1365.53927643379 0.0
vertex 230.239276065491 1365.53927643379 3.0
endloop
endfacet
facet normal -1.0 -0.0 -0.0
outer loop
vertex 230.239276065491 1365.53927643379 0.0
vertex 230.239276065491 1375.42520347379 3.0
vertex 230.239276065491 1375.42520347379 0.0
endloop
endfacet
facet normal 0.0 1.0 0.0
outer loop
vertex 226.831268385491 1365.53927643379 3.0
vertex 230.239276065491 1365.53927643379 0.0
vertex 226.831268385491 1365.53927643379 0.0
endloop
endfacet
facet normal 0.0 1.0 0.0
outer loop
vertex 230.239276065491 1365.53927643379 0.0
vertex 226.831268385491 1365.53927643379 3.0
vertex 230.239276065491 1365.53927643379 3.0
endloop
endfacet
facet normal 1.0 -0.0 0.0
outer loop
vertex 226.831268385491 1375.42520347379 0.0
vertex 226.831268385491 1365.53927643379 3.0
vertex 226.831268385491 1365.53927643379 0.0
endloop
endfacet
facet normal 1.0 -0.0 0.0
outer loop
vertex 226.831268385491 1365.53927643379 3.0
vertex 226.831268385491 1375.42520347379 0.0
vertex 226.831268385491 1375.42520347379 3.0
endloop
endfacet
facet normal -1.0 -0.0 -0.0
outer loop
vertex 239.701953831922 1391.45640155422 3.0
vertex 239.701953831922 1388.14306075422 0.0
vertex 239.701953831922 1388.14306075422 3.0
endloop
endfacet
facet normal -1.0 -0.0 -0.0
outer loop
vertex 239.701953831922 1388.14306075422 0.0
vertex 239.701953831922 1391.45640155422 3.0
vertex 239.701953831922 1391.45640155422 0.0
endloop
endfacet
facet normal 0.0 1.0 0.0
outer loop
vertex 229.592883431922 1388.14306075422 3.0
vertex 239.701953831922 1388.14306075422 0.0
vertex 229.592883431922 1388.14306075422 0.0
endloop
endfacet
facet normal 0.0 1.0 0.0
outer loop
vertex 239.701953831922 1388.14306075422 0.0
vertex 229.592883431922 1388.14306075422 3.0
vertex 239.701953831922 1388.14306075422 3.0
endloop
endfacet
facet normal 1.0 -0.0 0.0
outer loop
vertex 229.592883431922 1391.45640155422 0.0
vertex 229.592883431922 1388.14306075422 3.0
vertex 229.592883431922 1388.14306075422 0.0
endloop
endfacet
facet normal 1.0 -0.0 0.0
outer loop
vertex 229.592883431922 1388.14306075422 3.0
vertex 229.592883431922 1391.45640155422 0.0
vertex 229.592883431922 1391.45640155422 3.0
endloop
endfacet
facet normal 0.0 -1.0 0.0
outer loop
vertex 239.701953831922 1391.45640155422 3.0
vertex 229.592883431922 1391.45640155422 0.0
vertex 239.701953831922 1391.45640155422 0.0
endloop
endfacet
facet normal 0.0 -1.0 0.0
outer loop
vertex 229.592883431922 1391.45640155422 0.0
vertex 239.701953831922 1391.45640155422 3.0
vertex 229.592883431922 1391.45640155422 3.0
endloop
endfacet
facet normal 0.0 0.0 -1.0
outer loop
vertex 226.819239489911 1326.70644939138 0.0
vertex 226.831268385491 1365.53927643379 0.0
vertex 229.909436929911 1326.70644939138 0.0
endloop
endfacet
facet normal 0.0 0.0 -1.0
outer loop
vertex 226.831268385491 1365.53927643379 0.0
vertex 226.819239489911 1326.70644939138 0.0
vertex 226.831268385491 1375.42520347379 0.0
endloop
endfacet
facet normal 0.0 0.0 -1.0
outer loop
vertex 229.909436929911 1326.70644939138 0.0
vertex 226.831268385491 1365.53927643379 0.0
vertex 230.239276065491 1365.53927643379 0.0
endloop
endfacet
facet normal 0.0 0.0 -1.0
outer loop
vertex 229.909436929911 1326.70644939138 0.0
vertex 230.239276065491 1365.53927643379 0.0
vertex 229.909436929911 1316.91518923138 0.0
endloop
endfacet
facet normal 0.0 0.0 -1.0
outer loop
vertex 229.909436929911 1316.91518923138 0.0
vertex 229.624165893408 1303.95489957266 0.0
vertex 226.819239489911 1316.91518923138 0.0
endloop
endfacet
facet normal 0.0 0.0 -1.0
outer loop
vertex 229.624165893408 1303.95489957266 0.0
vertex 229.909436929911 1316.91518923138 0.0
vertex 239.895522373408 1303.95489957266 0.0
endloop
endfacet
facet normal 0.0 0.0 -1.0
outer loop
vertex 239.895522373408 1303.95489957266 0.0
vertex 229.909436929911 1316.91518923138 0.0
vertex 231.666301865168 1341.80245480627 0.0
endloop
endfacet
facet normal 0.0 0.0 -1.0
outer loop
vertex 231.666301865168 1341.80245480627 0.0
vertex 229.909436929911 1316.91518923138 0.0
vertex 230.239276065491 1365.53927643379 0.0
endloop
endfacet
facet normal 0.0 0.0 -1.0
outer loop
vertex 231.666301865168 1341.80245480627 0.0
vertex 230.239276065491 1365.53927643379 0.0
vertex 231.666301865168 1350.51180776627 0.0
endloop
endfacet
facet normal 0.0 0.0 -1.0
outer loop
vertex 239.895522373408 1303.95489957266 0.0
vertex 231.666301865168 1341.80245480627 0.0
vertex 241.558990825168 1341.80245480627 0.0
endloop
endfacet
facet normal 0.0 0.0 -1.0
outer loop
vertex 239.895522373408 1303.95489957266 0.0
vertex 241.558990825168 1341.80245480627 0.0
vertex 239.895522373408 1300.74974949266 0.0
endloop
endfacet
facet normal 0.0 0.0 -1.0
outer loop
vertex 226.831268385491 1375.42520347379 0.0
vertex 229.592883431922 1388.14306075422 0.0
vertex 230.239276065491 1375.42520347379 0.0
endloop
endfacet
facet normal 0.0 0.0 -1.0
outer loop
vertex 229.592883431922 1388.14306075422 0.0
vertex 226.831268385491 1375.42520347379 0.0
vertex 229.592883431922 1391.45640155422 0.0
endloop
endfacet
facet normal 0.0 0.0 -1.0
outer loop
vertex 230.239276065491 1375.42520347379 0.0
vertex 229.592883431922 1388.14306075422 0.0
vertex 239.701953831922 1388.14306075422 0.0
endloop
endfacet
facet normal 0.0 0.0 -1.0
outer loop
vertex 230.239276065491 1375.42520347379 0.0
vertex 239.701953831922 1388.14306075422 0.0
vertex 230.239276065491 1365.53927643379 0.0
endloop
endfacet
facet normal 0.0 0.0 -1.0
outer loop
vertex 230.239276065491 1365.53927643379 0.0
vertex 239.701953831922 1388.14306075422 0.0
vertex 231.666301865168 1350.51180776627 0.0
endloop
endfacet
facet normal 0.0 0.0 -1.0
outer loop
vertex 231.666301865168 1350.51180776627 0.0
vertex 239.701953831922 1388.14306075422 0.0
vertex 241.558990825168 1350.51180776627 0.0
endloop
endfacet
facet normal 0.0 0.0 -1.0
outer loop
vertex 290.055372618559 1391.33410105941 0.0
vertex 299.544099008417 1404.21158704995 0.0
vertex 299.738442058559 1391.33410105941 0.0
endloop
endfacet
facet normal 0.0 0.0 -1.0
outer loop
vertex 299.544099008417 1404.21158704995 0.0
vertex 290.055372618559 1391.33410105941 0.0
vertex 299.544099008417 1414.19894288994 0.0
endloop
endfacet
facet normal 0.0 0.0 -1.0
outer loop
vertex 299.738442058559 1391.33410105941 0.0
vertex 299.544099008417 1404.21158704995 0.0
vertex 302.404391168417 1404.21158704995 0.0
endloop
endfacet
facet normal 0.0 0.0 -1.0
outer loop
vertex 299.738442058559 1391.33410105941 0.0
vertex 302.404391168417 1404.21158704995 0.0
vertex 299.738442058559 1387.95990297941 0.0
endloop
endfacet
facet normal 0.0 0.0 -1.0
outer loop
vertex 296.765965316289 1307.01710607312 0.0
vertex 289.767864735538 1303.4330503811 0.0
vertex 288.985237776159 1305.39455396597 0.0
endloop
endfacet
facet normal 0.0 0.0 -1.0
outer loop
vertex 289.767864735538 1303.4330503811 0.0
vertex 296.765965316289 1307.01710607312 0.0
vertex 299.748458655538 1303.4330503811 0.0
endloop
endfacet
facet normal 0.0 0.0 -1.0
outer loop
vertex 299.748458655538 1303.4330503811 0.0
vertex 296.765965316289 1307.01710607312 0.0
vertex 304.080644145405 1310.12642593782 0.0
endloop
endfacet
facet normal 0.0 0.0 -1.0
outer loop
vertex 299.748458655538 1303.4330503811 0.0
vertex 304.080644145405 1310.12642593782 0.0
vertex 299.748458655538 1300.7823777411 0.0
endloop
endfacet
facet normal 0.0 0.0 -1.0
outer loop
vertex 299.748458655538 1300.7823777411 0.0
vertex 304.080644145405 1310.12642593782 0.0
vertex 302.848001484534 1287.6550421537 0.0
endloop
endfacet
facet normal 0.0 0.0 -1.0
outer loop
vertex 302.848001484534 1287.6550421537 0.0
vertex 304.080644145405 1310.12642593782 0.0
vertex 302.848001484534 1277.6676863137 0.0
endloop
endfacet
facet normal 0.0 0.0 -1.0
outer loop
vertex 348.159541161751 1433.44750710039 0.0
vertex 336.176236748312 1427.84187542039 0.0
vertex 336.176236748312 1433.44750710039 0.0
endloop
endfacet
facet normal 0.0 0.0 -1.0
outer loop
vertex 336.176236748312 1427.84187542039 0.0
vertex 348.159541161751 1433.44750710039 0.0
vertex 336.666641300027 1264.02760150039 0.0
endloop
endfacet
facet normal 0.0 0.0 -1.0
outer loop
vertex 336.666641300027 1264.02760150039 0.0
vertex 348.159541161751 1433.44750710039 0.0
vertex 336.666641300027 1257.76606358039 0.0
endloop
endfacet
facet normal 0.0 0.0 -1.0
outer loop
vertex 336.666641300027 1257.76606358039 0.0
vertex 348.159541161751 1433.44750710039 0.0
vertex 348.159541161751 1257.76606358039 0.0
endloop
endfacet
facet normal 0.0 0.0 -1.0
outer loop
vertex 202.649784681751 1433.44750710039 0.0
vertex 207.567624680589 1350.30819992213 0.0
vertex 202.649784681751 1257.76606358039 0.0
endloop
endfacet
facet normal 0.0 0.0 -1.0
outer loop
vertex 207.567624680589 1350.30819992213 0.0
vertex 202.649784681751 1433.44750710039 0.0
vertex 229.592883431922 1391.45640155422 0.0
endloop
endfacet
facet normal 0.0 0.0 -1.0
outer loop
vertex 229.592883431922 1391.45640155422 0.0
vertex 202.649784681751 1433.44750710039 0.0
vertex 327.106134161659 1433.44750710039 0.0
endloop
endfacet
facet normal 0.0 0.0 -1.0
outer loop
vertex 207.567624680589 1350.30819992213 0.0
vertex 229.592883431922 1391.45640155422 0.0
vertex 216.966693480589 1350.30819992213 0.0
endloop
endfacet
facet normal 0.0 0.0 -1.0
outer loop
vertex 216.966693480589 1350.30819992213 0.0
vertex 229.592883431922 1391.45640155422 0.0
vertex 216.966693480589 1342.01808600213 0.0
endloop
endfacet
facet normal 0.0 0.0 -1.0
outer loop
vertex 216.966693480589 1342.01808600213 0.0
vertex 229.592883431922 1391.45640155422 0.0
vertex 226.831268385491 1375.42520347379 0.0
endloop
endfacet
facet normal 0.0 0.0 -1.0
outer loop
vertex 216.966693480589 1342.01808600213 0.0
vertex 226.831268385491 1375.42520347379 0.0
vertex 226.819239489911 1326.70644939138 0.0
endloop
endfacet
facet normal 0.0 0.0 -1.0
outer loop
vertex 229.592883431922 1391.45640155422 0.0
vertex 327.106134161659 1433.44750710039 0.0
vertex 239.701953831922 1391.45640155422 0.0
endloop
endfacet
facet normal 0.0 0.0 -1.0
outer loop
vertex 239.701953831922 1391.45640155422 0.0
vertex 327.106134161659 1433.44750710039 0.0
vertex 239.701953831922 1388.14306075422 0.0
endloop
endfacet
facet normal 0.0 0.0 -1.0
outer loop
vertex 239.701953831922 1388.14306075422 0.0
vertex 327.106134161659 1433.44750710039 0.0
vertex 299.544099008417 1414.19894288994 0.0
endloop
endfacet
facet normal 0.0 0.0 -1.0
outer loop
vertex 239.701953831922 1388.14306075422 0.0
vertex 299.544099008417 1414.19894288994 0.0
vertex 258.628979827566 1376.80768835219 0.0
endloop
endfacet
facet normal 0.0 0.0 -1.0
outer loop
vertex 239.701953831922 1388.14306075422 0.0
vertex 258.628979827566 1376.80768835219 0.0
vertex 253.060982968597 1371.13584496818 0.0
endloop
endfacet
facet normal 0.0 0.0 -1.0
outer loop
vertex 239.701953831922 1388.14306075422 0.0
vertex 253.060982968597 1371.13584496818 0.0
vertex 248.7064953602 1364.4867221642 0.0
endloop
endfacet
facet normal 0.0 0.0 -1.0
outer loop
vertex 239.701953831922 1388.14306075422 0.0
vertex 248.7064953602 1364.4867221642 0.0
vertex 241.558990825168 1350.51180776627 0.0
endloop
endfacet
facet normal 0.0 0.0 -1.0
outer loop
vertex 241.558990825168 1350.51180776627 0.0
vertex 248.7064953602 1364.4867221642 0.0
vertex 245.73285751914 1357.11584200072 0.0
endloop
endfacet
facet normal 0.0 0.0 -1.0
outer loop
vertex 241.558990825168 1350.51180776627 0.0
vertex 245.73285751914 1357.11584200072 0.0
vertex 241.558990825168 1341.80245480627 0.0
endloop
endfacet
facet normal 0.0 0.0 -1.0
outer loop
vertex 241.558990825168 1341.80245480627 0.0
vertex 245.73285751914 1357.11584200072 0.0
vertex 244.254344680014 1349.30646326879 0.0
endloop
endfacet
facet normal 0.0 0.0 -1.0
outer loop
vertex 258.628979827566 1376.80768835219 0.0
vertex 299.544099008417 1414.19894288994 0.0
vertex 265.196510940384 1381.28428655577 0.0
endloop
endfacet
facet normal 0.0 0.0 -1.0
outer loop
vertex 265.196510940384 1381.28428655577 0.0
vertex 299.544099008417 1414.19894288994 0.0
vertex 272.5111897695 1384.39360642047 0.0
endloop
endfacet
facet normal 0.0 0.0 -1.0
outer loop
vertex 272.5111897695 1384.39360642047 0.0
vertex 299.544099008417 1414.19894288994 0.0
vertex 280.29191730963 1386.01615852762 0.0
endloop
endfacet
facet normal 0.0 0.0 -1.0
outer loop
vertex 280.29191730963 1386.01615852762 0.0
vertex 299.544099008417 1414.19894288994 0.0
vertex 290.055372618559 1391.33410105941 0.0
endloop
endfacet
facet normal 0.0 0.0 -1.0
outer loop
vertex 280.29191730963 1386.01615852762 0.0
vertex 290.055372618559 1391.33410105941 0.0
vertex 288.239684564889 1386.08958910968 0.0
endloop
endfacet
facet normal 0.0 0.0 -1.0
outer loop
vertex 299.544099008417 1414.19894288994 0.0
vertex 327.106134161659 1433.44750710039 0.0
vertex 302.404391168417 1414.19894288994 0.0
endloop
endfacet
facet normal 0.0 0.0 -1.0
outer loop
vertex 302.404391168417 1414.19894288994 0.0
vertex 327.106134161659 1433.44750710039 0.0
vertex 302.404391168417 1404.21158704995 0.0
endloop
endfacet
facet normal 0.0 0.0 -1.0
outer loop
vertex 302.404391168417 1404.21158704995 0.0
vertex 327.106134161659 1433.44750710039 0.0
vertex 303.419943460296 1381.63743842949 0.0
endloop
endfacet
facet normal 0.0 0.0 -1.0
outer loop
vertex 303.419943460296 1381.63743842949 0.0
vertex 327.106134161659 1433.44750710039 0.0
vertex 310.069066264281 1377.28295082109 0.0
endloop
endfacet
facet normal 0.0 0.0 -1.0
outer loop
vertex 310.069066264281 1377.28295082109 0.0
vertex 327.106134161659 1433.44750710039 0.0
vertex 315.740909648285 1371.71495396212 0.0
endloop
endfacet
facet normal 0.0 0.0 -1.0
outer loop
vertex 315.740909648285 1371.71495396212 0.0
vertex 327.106134161659 1433.44750710039 0.0
vertex 320.217507851868 1365.14742284931 0.0
endloop
endfacet
facet normal 0.0 0.0 -1.0
outer loop
vertex 320.217507851868 1365.14742284931 0.0
vertex 327.106134161659 1433.44750710039 0.0
vertex 323.326827716571 1357.83274402019 0.0
endloop
endfacet
facet normal 0.0 0.0 -1.0
outer loop
vertex 323.326827716571 1357.83274402019 0.0
vertex 327.106134161659 1433.44750710039 0.0
vertex 324.94937982372 1350.05201648006 0.0
endloop
endfacet
facet normal 0.0 0.0 -1.0
outer loop
vertex 324.94937982372 1350.05201648006 0.0
vertex 327.106134161659 1433.44750710039 0.0
vertex 325.022810405775 1342.1042492248 0.0
endloop
endfacet
facet normal 0.0 0.0 -1.0
outer loop
vertex 325.022810405775 1342.1042492248 0.0
vertex 327.106134161659 1433.44750710039 0.0
vertex 326.535260123621 1264.02760150039 0.0
endloop
endfacet
facet normal 0.0 0.0 -1.0
outer loop
vertex 326.535260123621 1264.02760150039 0.0
vertex 327.106134161659 1433.44750710039 0.0
vertex 327.106134161659 1427.84187542039 0.0
endloop
endfacet
facet normal 0.0 0.0 -1.0
outer loop
vertex 326.535260123621 1264.02760150039 0.0
vertex 327.106134161659 1427.84187542039 0.0
vertex 336.666641300027 1264.02760150039 0.0
endloop
endfacet
facet normal 0.0 0.0 -1.0
outer loop
vertex 336.666641300027 1264.02760150039 0.0
vertex 327.106134161659 1427.84187542039 0.0
vertex 336.176236748312 1427.84187542039 0.0
endloop
endfacet
facet normal 0.0 0.0 -1.0
outer loop
vertex 202.649784681751 1257.76606358039 0.0
vertex 229.624165893408 1300.74974949266 0.0
vertex 326.535260123621 1257.76606358039 0.0
endloop
endfacet
facet normal 0.0 0.0 -1.0
outer loop
vertex 229.624165893408 1300.74974949266 0.0
vertex 202.649784681751 1257.76606358039 0.0
vertex 207.567624680589 1342.01808600213 0.0
endloop
endfacet
facet normal 0.0 0.0 -1.0
outer loop
vertex 207.567624680589 1342.01808600213 0.0
vertex 202.649784681751 1257.76606358039 0.0
vertex 207.567624680589 1350.30819992213 0.0
endloop
endfacet
facet normal 0.0 0.0 -1.0
outer loop
vertex 229.624165893408 1300.74974949266 0.0
vertex 207.567624680589 1342.01808600213 0.0
vertex 216.966693480589 1342.01808600213 0.0
endloop
endfacet
facet normal 0.0 0.0 -1.0
outer loop
vertex 229.624165893408 1300.74974949266 0.0
vertex 216.966693480589 1342.01808600213 0.0
vertex 226.819239489911 1316.91518923138 0.0
endloop
endfacet
facet normal 0.0 0.0 -1.0
outer loop
vertex 226.819239489911 1316.91518923138 0.0
vertex 216.966693480589 1342.01808600213 0.0
vertex 226.819239489911 1326.70644939138 0.0
endloop
endfacet
facet normal 0.0 0.0 -1.0
outer loop
vertex 229.624165893408 1300.74974949266 0.0
vertex 226.819239489911 1316.91518923138 0.0
vertex 229.624165893408 1303.95489957266 0.0
endloop
endfacet
facet normal 0.0 0.0 -1.0
outer loop
vertex 326.535260123621 1257.76606358039 0.0
vertex 229.624165893408 1300.74974949266 0.0
vertex 239.895522373408 1300.74974949266 0.0
endloop
endfacet
facet normal 0.0 0.0 -1.0
outer loop
vertex 326.535260123621 1257.76606358039 0.0
vertex 239.895522373408 1300.74974949266 0.0
vertex 299.568470284534 1277.6676863137 0.0
endloop
endfacet
facet normal 0.0 0.0 -1.0
outer loop
vertex 299.568470284534 1277.6676863137 0.0
vertex 239.895522373408 1300.74974949266 0.0
vertex 259.208088821508 1314.1277616725 0.0
endloop
endfacet
facet normal 0.0 0.0 -1.0
outer loop
vertex 259.208088821508 1314.1277616725 0.0
vertex 239.895522373408 1300.74974949266 0.0
vertex 253.536245437504 1319.69575853147 0.0
endloop
endfacet
facet normal 0.0 0.0 -1.0
outer loop
vertex 253.536245437504 1319.69575853147 0.0
vertex 239.895522373408 1300.74974949266 0.0
vertex 249.059647233921 1326.26328964429 0.0
endloop
endfacet
facet normal 0.0 0.0 -1.0
outer loop
vertex 249.059647233921 1326.26328964429 0.0
vertex 239.895522373408 1300.74974949266 0.0
vertex 241.558990825168 1341.80245480627 0.0
endloop
endfacet
facet normal 0.0 0.0 -1.0
outer loop
vertex 249.059647233921 1326.26328964429 0.0
vertex 241.558990825168 1341.80245480627 0.0
vertex 245.950327369218 1333.5779684734 0.0
endloop
endfacet
facet normal 0.0 0.0 -1.0
outer loop
vertex 245.950327369218 1333.5779684734 0.0
vertex 241.558990825168 1341.80245480627 0.0
vertex 244.327775262069 1341.35869601353 0.0
endloop
endfacet
facet normal 0.0 0.0 -1.0
outer loop
vertex 244.327775262069 1341.35869601353 0.0
vertex 241.558990825168 1341.80245480627 0.0
vertex 244.254344680014 1349.30646326879 0.0
endloop
endfacet
facet normal 0.0 0.0 -1.0
outer loop
vertex 299.568470284534 1277.6676863137 0.0
vertex 259.208088821508 1314.1277616725 0.0
vertex 265.857211625493 1309.7732740641 0.0
endloop
endfacet
facet normal 0.0 0.0 -1.0
outer loop
vertex 299.568470284534 1277.6676863137 0.0
vertex 265.857211625493 1309.7732740641 0.0
vertex 273.228091788972 1306.79963622304 0.0
endloop
endfacet
facet normal 0.0 0.0 -1.0
outer loop
vertex 299.568470284534 1277.6676863137 0.0
vertex 273.228091788972 1306.79963622304 0.0
vertex 281.0374705209 1305.32112338392 0.0
endloop
endfacet
facet normal 0.0 0.0 -1.0
outer loop
vertex 299.568470284534 1277.6676863137 0.0
vertex 281.0374705209 1305.32112338392 0.0
vertex 289.767864735538 1300.7823777411 0.0
endloop
endfacet
facet normal 0.0 0.0 -1.0
outer loop
vertex 289.767864735538 1300.7823777411 0.0
vertex 281.0374705209 1305.32112338392 0.0
vertex 288.985237776159 1305.39455396597 0.0
endloop
endfacet
facet normal 0.0 0.0 -1.0
outer loop
vertex 289.767864735538 1300.7823777411 0.0
vertex 288.985237776159 1305.39455396597 0.0
vertex 289.767864735538 1303.4330503811 0.0
endloop
endfacet
facet normal 0.0 0.0 -1.0
outer loop
vertex 299.568470284534 1277.6676863137 0.0
vertex 289.767864735538 1300.7823777411 0.0
vertex 299.568470284534 1287.6550421537 0.0
endloop
endfacet
facet normal 0.0 0.0 -1.0
outer loop
vertex 326.535260123621 1257.76606358039 0.0
vertex 299.568470284534 1277.6676863137 0.0
vertex 302.848001484534 1277.6676863137 0.0
endloop
endfacet
facet normal 0.0 0.0 -1.0
outer loop
vertex 326.535260123621 1257.76606358039 0.0
vertex 302.848001484534 1277.6676863137 0.0
vertex 304.080644145405 1310.12642593782 0.0
endloop
endfacet
facet normal 0.0 0.0 -1.0
outer loop
vertex 326.535260123621 1257.76606358039 0.0
vertex 304.080644145405 1310.12642593782 0.0
vertex 310.648175258223 1314.6030241414 0.0
endloop
endfacet
facet normal 0.0 0.0 -1.0
outer loop
vertex 326.535260123621 1257.76606358039 0.0
vertex 310.648175258223 1314.6030241414 0.0
vertex 316.216172117192 1320.27486752541 0.0
endloop
endfacet
facet normal 0.0 0.0 -1.0
outer loop
vertex 326.535260123621 1257.76606358039 0.0
vertex 316.216172117192 1320.27486752541 0.0
vertex 320.570659725589 1326.92399032939 0.0
endloop
endfacet
facet normal 0.0 0.0 -1.0
outer loop
vertex 326.535260123621 1257.76606358039 0.0
vertex 320.570659725589 1326.92399032939 0.0
vertex 323.544297566649 1334.29487049287 0.0
endloop
endfacet
facet normal 0.0 0.0 -1.0
outer loop
vertex 326.535260123621 1257.76606358039 0.0
vertex 323.544297566649 1334.29487049287 0.0
vertex 325.022810405775 1342.1042492248 0.0
endloop
endfacet
facet normal 0.0 0.0 -1.0
outer loop
vertex 326.535260123621 1257.76606358039 0.0
vertex 325.022810405775 1342.1042492248 0.0
vertex 326.535260123621 1264.02760150039 0.0
endloop
endfacet
facet normal 0.0 0.0 -1.0
outer loop
vertex 288.239684564889 1386.08958910968 0.0
vertex 290.055372618559 1387.95990297941 0.0
vertex 296.049063296817 1384.61107627055 0.0
endloop
endfacet
facet normal 0.0 0.0 -1.0
outer loop
vertex 290.055372618559 1387.95990297941 0.0
vertex 288.239684564889 1386.08958910968 0.0
vertex 290.055372618559 1391.33410105941 0.0
endloop
endfacet
facet normal 0.0 0.0 -1.0
outer loop
vertex 296.049063296817 1384.61107627055 0.0
vertex 290.055372618559 1387.95990297941 0.0
vertex 299.738442058559 1387.95990297941 0.0
endloop
endfacet
facet normal 0.0 0.0 -1.0
outer loop
vertex 296.049063296817 1384.61107627055 0.0
vertex 299.738442058559 1387.95990297941 0.0
vertex 303.419943460296 1381.63743842949 0.0
endloop
endfacet
facet normal 0.0 0.0 -1.0
outer loop
vertex 303.419943460296 1381.63743842949 0.0
vertex 299.738442058559 1387.95990297941 0.0
vertex 302.404391168417 1404.21158704995 0.0
endloop
endfacet
facet normal 0.0 0.0 -1.0
outer loop
vertex 299.748458655538 1300.7823777411 0.0
vertex 299.568470284534 1287.6550421537 0.0
vertex 289.767864735538 1300.7823777411 0.0
endloop
endfacet
facet normal 0.0 0.0 -1.0
outer loop
vertex 299.568470284534 1287.6550421537 0.0
vertex 299.748458655538 1300.7823777411 0.0
vertex 302.848001484534 1287.6550421537 0.0
endloop
endfacet
endsolid rov
