solid rov
facet normal 0.0 0.0 -1.0
outer loop
vertex 652.677012251806 1313.03510169387 0.0
vertex 642.575356548974 1294.92667993387 0.0
vertex 642.575356548974 1313.03510169387 0.0
endloop
endfacet
facet normal 0.0 0.0 -1.0
outer loop
vertex 642.575356548974 1294.92667993387 0.0
vertex 652.677012251806 1313.03510169387 0.0
vertex 652.561507389885 1294.92667993387 0.0
endloop
endfacet
facet normal 0.0 0.0 -1.0
outer loop
vertex 652.561507389885 1294.92667993387 0.0
vertex 652.677012251806 1313.03510169387 0.0
vertex 652.561507389885 1291.3615175307 0.0
endloop
endfacet
facet normal 0.0 0.0 -1.0
outer loop
vertex 652.561507389885 1291.3615175307 0.0
vertex 652.677012251806 1313.03510169387 0.0
vertex 668.582020521618 1291.3615175307 0.0
endloop
endfacet
facet normal 0.0 0.0 -1.0
outer loop
vertex 631.125895556533 1302.18762189443 0.0
vertex 631.128615278459 1300.6251066116 0.0
vertex 631.119585646641 1301.40635090298 0.0
endloop
endfacet
facet normal 0.0 0.0 -1.0
outer loop
vertex 631.128615278459 1300.6251066116 0.0
vertex 631.125895556533 1302.18762189443 0.0
vertex 631.147542575834 1302.96861842683 0.0
endloop
endfacet
facet normal 0.0 0.0 -1.0
outer loop
vertex 631.128615278459 1300.6251066116 0.0
vertex 631.147542575834 1302.96861842683 0.0
vertex 631.152980971305 1299.84419016917 0.0
endloop
endfacet
facet normal 0.0 0.0 -1.0
outer loop
vertex 631.152980971305 1299.84419016917 0.0
vertex 631.147542575834 1302.96861842683 0.0
vertex 631.184518360194 1303.74903944681 0.0
endloop
endfacet
facet normal 0.0 0.0 -1.0
outer loop
vertex 631.152980971305 1299.84419016917 0.0
vertex 631.184518360194 1303.74903944681 0.0
vertex 631.192673332854 1299.06390259814 0.0
endloop
endfacet
facet normal 0.0 0.0 -1.0
outer loop
vertex 631.192673332854 1299.06390259814 0.0
vertex 631.184518360194 1303.74903944681 0.0
vertex 631.236808656433 1304.52858412287 0.0
endloop
endfacet
facet normal 0.0 0.0 -1.0
outer loop
vertex 631.192673332854 1299.06390259814 0.0
vertex 631.236808656433 1304.52858412287 0.0
vertex 631.247677062758 1298.2845446786 0.0
endloop
endfacet
facet normal 0.0 0.0 -1.0
outer loop
vertex 631.247677062758 1298.2845446786 0.0
vertex 631.236808656433 1304.52858412287 0.0
vertex 631.304393308037 1305.30695196131 0.0
endloop
endfacet
facet normal 0.0 0.0 -1.0
outer loop
vertex 631.247677062758 1298.2845446786 0.0
vertex 631.304393308037 1305.30695196131 0.0
vertex 631.317970958545 1297.50641683225 0.0
endloop
endfacet
facet normal 0.0 0.0 -1.0
outer loop
vertex 631.317970958545 1297.50641683225 0.0
vertex 631.304393308037 1305.30695196131 0.0
vertex 631.387246262922 1306.08384292208 0.0
endloop
endfacet
facet normal 0.0 0.0 -1.0
outer loop
vertex 631.317970958545 1297.50641683225 0.0
vertex 631.387246262922 1306.08384292208 0.0
vertex 631.403527923791 1296.72981900663 0.0
endloop
endfacet
facet normal 0.0 0.0 -1.0
outer loop
vertex 631.403527923791 1296.72981900663 0.0
vertex 631.387246262922 1306.08384292208 0.0
vertex 631.485335583484 1306.85895753441 0.0
endloop
endfacet
facet normal 0.0 0.0 -1.0
outer loop
vertex 631.403527923791 1296.72981900663 0.0
vertex 631.485335583484 1306.85895753441 0.0
vertex 631.504314978567 1295.95505055952 0.0
endloop
endfacet
facet normal 0.0 0.0 -1.0
outer loop
vertex 631.504314978567 1295.95505055952 0.0
vertex 631.485335583484 1306.85895753441 0.0
vertex 631.598623458902 1307.63199701228 0.0
endloop
endfacet
facet normal 0.0 0.0 -1.0
outer loop
vertex 631.504314978567 1295.95505055952 0.0
vertex 631.598623458902 1307.63199701228 0.0
vertex 631.620293272149 1295.18241014349 0.0
endloop
endfacet
facet normal 0.0 0.0 -1.0
outer loop
vertex 631.620293272149 1295.18241014349 0.0
vertex 631.598623458902 1307.63199701228 0.0
vertex 631.72706621972 1308.40266336956 0.0
endloop
endfacet
facet normal 0.0 0.0 -1.0
outer loop
vertex 631.620293272149 1295.18241014349 0.0
vertex 631.72706621972 1308.40266336956 0.0
vertex 631.751418097995 1294.41219559085 0.0
endloop
endfacet
facet normal 0.0 0.0 -1.0
outer loop
vertex 631.751418097995 1294.41219559085 0.0
vertex 631.72706621972 1308.40266336956 0.0
vertex 631.870614354676 1309.17065953492 0.0
endloop
endfacet
facet normal 0.0 0.0 -1.0
outer loop
vertex 631.751418097995 1294.41219559085 0.0
vertex 631.870614354676 1309.17065953492 0.0
vertex 631.897638910979 1293.64470379877 0.0
endloop
endfacet
facet normal 0.0 0.0 -1.0
outer loop
vertex 631.897638910979 1293.64470379877 0.0
vertex 631.870614354676 1309.17065953492 0.0
vertex 632.029212529791 1309.9356894663 0.0
endloop
endfacet
facet normal 0.0 0.0 -1.0
outer loop
vertex 631.897638910979 1293.64470379877 0.0
vertex 632.029212529791 1309.9356894663 0.0
vertex 632.058899346875 1292.88023061489 0.0
endloop
endfacet
facet normal 0.0 0.0 -1.0
outer loop
vertex 632.058899346875 1292.88023061489 0.0
vertex 632.029212529791 1309.9356894663 0.0
vertex 632.202799609693 1310.69745826505 0.0
endloop
endfacet
facet normal 0.0 0.0 -1.0
outer loop
vertex 632.058899346875 1292.88023061489 0.0
vertex 632.202799609693 1310.69745826505 0.0
vertex 632.235137244082 1292.11907072325 0.0
endloop
endfacet
facet normal 0.0 0.0 -1.0
outer loop
vertex 632.235137244082 1292.11907072325 0.0
vertex 632.202799609693 1310.69745826505 0.0
vertex 632.39130868119 1311.4556722896 0.0
endloop
endfacet
facet normal 0.0 0.0 -1.0
outer loop
vertex 632.235137244082 1292.11907072325 0.0
vertex 632.39130868119 1311.4556722896 0.0
vertex 632.426284667588 1291.3615175307 0.0
endloop
endfacet
facet normal 0.0 0.0 -1.0
outer loop
vertex 632.426284667588 1291.3615175307 0.0
vertex 632.39130868119 1311.4556722896 0.0
vertex 632.426284667588 1311.58541725943 0.0
endloop
endfacet
facet normal 0.0 0.0 -1.0
outer loop
vertex 632.426284667588 1291.3615175307 0.0
vertex 632.426284667588 1311.58541725943 0.0
vertex 632.594667079059 1312.21003926864 0.0
endloop
endfacet
facet normal 0.0 0.0 -1.0
outer loop
vertex 632.426284667588 1291.3615175307 0.0
vertex 632.594667079059 1312.21003926864 0.0
vertex 642.575356548974 1291.3615175307 0.0
endloop
endfacet
facet normal 0.0 0.0 -1.0
outer loop
vertex 642.575356548974 1291.3615175307 0.0
vertex 632.594667079059 1312.21003926864 0.0
vertex 632.812796414055 1312.96026841381 0.0
endloop
endfacet
facet normal 0.0 0.0 -1.0
outer loop
vertex 642.575356548974 1291.3615175307 0.0
vertex 632.812796414055 1312.96026841381 0.0
vertex 633.045612603135 1313.70607053178 0.0
endloop
endfacet
facet normal 0.0 0.0 -1.0
outer loop
vertex 642.575356548974 1291.3615175307 0.0
vertex 633.045612603135 1313.70607053178 0.0
vertex 633.29302590186 1314.44715813569 0.0
endloop
endfacet
facet normal 0.0 0.0 -1.0
outer loop
vertex 642.575356548974 1291.3615175307 0.0
vertex 633.29302590186 1314.44715813569 0.0
vertex 633.554940938999 1315.18324555602 0.0
endloop
endfacet
facet normal 0.0 0.0 -1.0
outer loop
vertex 642.575356548974 1291.3615175307 0.0
vertex 633.554940938999 1315.18324555602 0.0
vertex 633.831256753284 1315.9140490507 0.0
endloop
endfacet
facet normal 0.0 0.0 -1.0
outer loop
vertex 642.575356548974 1291.3615175307 0.0
vertex 633.831256753284 1315.9140490507 0.0
vertex 642.575356548974 1315.9140490507 0.0
endloop
endfacet
facet normal 0.0 0.0 -1.0
outer loop
vertex 642.575356548974 1291.3615175307 0.0
vertex 642.575356548974 1315.9140490507 0.0
vertex 642.575356548974 1313.03510169387 0.0
endloop
endfacet
facet normal 0.0 0.0 -1.0
outer loop
vertex 642.575356548974 1291.3615175307 0.0
vertex 642.575356548974 1313.03510169387 0.0
vertex 642.575356548974 1294.92667993387 0.0
endloop
endfacet
facet normal 0.0 0.0 -1.0
outer loop
vertex 719.703121898883 1315.9140490507 0.0
vertex 710.924843908974 1313.03510169387 0.0
vertex 710.924843908974 1315.9140490507 0.0
endloop
endfacet
facet normal 0.0 0.0 -1.0
outer loop
vertex 710.924843908974 1313.03510169387 0.0
vertex 719.703121898883 1315.9140490507 0.0
vertex 710.924843908974 1294.92667993387 0.0
endloop
endfacet
facet normal 0.0 0.0 -1.0
outer loop
vertex 710.924843908974 1294.92667993387 0.0
vertex 719.703121898883 1315.9140490507 0.0
vertex 710.924843908974 1291.3615175307 0.0
endloop
endfacet
facet normal 0.0 0.0 -1.0
outer loop
vertex 710.924843908974 1291.3615175307 0.0
vertex 719.703121898883 1315.9140490507 0.0
vertex 721.758009787588 1291.3615175307 0.0
endloop
endfacet
facet normal 0.0 0.0 -1.0
outer loop
vertex 721.758009787588 1291.3615175307 0.0
vertex 719.703121898883 1315.9140490507 0.0
vertex 719.947348877249 1315.17578803688 0.0
endloop
endfacet
facet normal 0.0 0.0 -1.0
outer loop
vertex 721.758009787588 1291.3615175307 0.0
vertex 719.947348877249 1315.17578803688 0.0
vertex 720.180308204946 1314.43389445077 0.0
endloop
endfacet
facet normal 0.0 0.0 -1.0
outer loop
vertex 721.758009787588 1291.3615175307 0.0
vertex 720.180308204946 1314.43389445077 0.0
vertex 720.401945885235 1313.68854025298 0.0
endloop
endfacet
facet normal 0.0 0.0 -1.0
outer loop
vertex 721.758009787588 1291.3615175307 0.0
vertex 720.401945885235 1313.68854025298 0.0
vertex 720.612210545582 1312.93989820627 0.0
endloop
endfacet
facet normal 0.0 0.0 -1.0
outer loop
vertex 721.758009787588 1291.3615175307 0.0
vertex 720.612210545582 1312.93989820627 0.0
vertex 720.811053449557 1312.18814183549 0.0
endloop
endfacet
facet normal 0.0 0.0 -1.0
outer loop
vertex 721.758009787588 1291.3615175307 0.0
vertex 720.811053449557 1312.18814183549 0.0
vertex 720.998428508136 1311.4334453873 0.0
endloop
endfacet
facet normal 0.0 0.0 -1.0
outer loop
vertex 721.758009787588 1291.3615175307 0.0
vertex 720.998428508136 1311.4334453873 0.0
vertex 721.174292290382 1310.67598378987 0.0
endloop
endfacet
facet normal 0.0 0.0 -1.0
outer loop
vertex 721.758009787588 1291.3615175307 0.0
vertex 721.174292290382 1310.67598378987 0.0
vertex 721.338604033512 1309.91593261228 0.0
endloop
endfacet
facet normal 0.0 0.0 -1.0
outer loop
vertex 721.758009787588 1291.3615175307 0.0
vertex 721.338604033512 1309.91593261228 0.0
vertex 721.491325652347 1309.15346802384 0.0
endloop
endfacet
facet normal 0.0 0.0 -1.0
outer loop
vertex 721.758009787588 1291.3615175307 0.0
vertex 721.491325652347 1309.15346802384 0.0
vertex 721.632421748136 1308.38876675326 0.0
endloop
endfacet
facet normal 0.0 0.0 -1.0
outer loop
vertex 721.758009787588 1291.3615175307 0.0
vertex 721.632421748136 1308.38876675326 0.0
vertex 721.758009787588 1307.64481156637 0.0
endloop
endfacet
facet normal 0.0 0.0 -1.0
outer loop
vertex 721.758009787588 1291.3615175307 0.0
vertex 721.758009787588 1307.64481156637 0.0
vertex 721.879609256327 1306.85336363154 0.0
endloop
endfacet
facet normal 0.0 0.0 -1.0
outer loop
vertex 721.758009787588 1291.3615175307 0.0
vertex 721.879609256327 1306.85336363154 0.0
vertex 721.876123381101 1292.13010410391 0.0
endloop
endfacet
facet normal 0.0 0.0 -1.0
outer loop
vertex 721.876123381101 1292.13010410391 0.0
vertex 721.879609256327 1306.85336363154 0.0
vertex 721.982522260797 1292.90039977434 0.0
endloop
endfacet
facet normal 0.0 0.0 -1.0
outer loop
vertex 721.982522260797 1292.90039977434 0.0
vertex 721.879609256327 1306.85336363154 0.0
vertex 721.985643374096 1306.08301766552 0.0
endloop
endfacet
facet normal 0.0 0.0 -1.0
outer loop
vertex 721.982522260797 1292.90039977434 0.0
vertex 721.985643374096 1306.08301766552 0.0
vertex 722.077181764894 1293.67222599815 0.0
endloop
endfacet
facet normal 0.0 0.0 -1.0
outer loop
vertex 722.077181764894 1293.67222599815 0.0
vertex 721.985643374096 1306.08301766552 0.0
vertex 722.079937392836 1305.31114670512 0.0
endloop
endfacet
facet normal 0.0 0.0 -1.0
outer loop
vertex 722.077181764894 1293.67222599815 0.0
vertex 722.079937392836 1305.31114670512 0.0
vertex 722.160079952633 1294.44540387675 0.0
endloop
endfacet
facet normal 0.0 0.0 -1.0
outer loop
vertex 722.160079952633 1294.44540387675 0.0
vertex 722.079937392836 1305.31114670512 0.0
vertex 722.162469456501 1304.5379296593 0.0
endloop
endfacet
facet normal 0.0 0.0 -1.0
outer loop
vertex 722.160079952633 1294.44540387675 0.0
vertex 722.162469456501 1304.5379296593 0.0
vertex 722.231197609365 1295.21975419823 0.0
endloop
endfacet
facet normal 0.0 0.0 -1.0
outer loop
vertex 722.231197609365 1295.21975419823 0.0
vertex 722.162469456501 1304.5379296593 0.0
vertex 722.233220435306 1303.76354574903 0.0
endloop
endfacet
facet normal 0.0 0.0 -1.0
outer loop
vertex 722.231197609365 1295.21975419823 0.0
vertex 722.233220435306 1303.76354574903 0.0
vertex 722.290518251005 1295.99509747895 0.0
endloop
endfacet
facet normal 0.0 0.0 -1.0
outer loop
vertex 722.290518251005 1295.99509747895 0.0
vertex 722.233220435306 1303.76354574903 0.0
vertex 722.292173930155 1302.98817446575 0.0
endloop
endfacet
facet normal 0.0 0.0 -1.0
outer loop
vertex 722.290518251005 1295.99509747895 0.0
vertex 722.292173930155 1302.98817446575 0.0
vertex 722.338028127851 1296.7712540051 0.0
endloop
endfacet
facet normal 0.0 0.0 -1.0
outer loop
vertex 722.338028127851 1296.7712540051 0.0
vertex 722.292173930155 1302.98817446575 0.0
vertex 722.339316276447 1302.21199552977 0.0
endloop
endfacet
facet normal 0.0 0.0 -1.0
outer loop
vertex 722.338028127851 1296.7712540051 0.0
vertex 722.339316276447 1302.21199552977 0.0
vertex 722.373716227775 1297.54804387438 0.0
endloop
endfacet
facet normal 0.0 0.0 -1.0
outer loop
vertex 722.373716227775 1297.54804387438 0.0
vertex 722.339316276447 1302.21199552977 0.0
vertex 722.374636547242 1301.43518884857 0.0
endloop
endfacet
facet normal 0.0 0.0 -1.0
outer loop
vertex 722.373716227775 1297.54804387438 0.0
vertex 722.374636547242 1301.43518884857 0.0
vertex 722.39757427877 1298.32528703767 0.0
endloop
endfacet
facet normal 0.0 0.0 -1.0
outer loop
vertex 722.39757427877 1298.32528703767 0.0
vertex 722.374636547242 1301.43518884857 0.0
vertex 722.398126555791 1300.65793447516 0.0
endloop
endfacet
facet normal 0.0 0.0 -1.0
outer loop
vertex 722.39757427877 1298.32528703767 0.0
vertex 722.398126555791 1300.65793447516 0.0
vertex 722.409596750871 1299.10280334081 0.0
endloop
endfacet
facet normal 0.0 0.0 -1.0
outer loop
vertex 722.409596750871 1299.10280334081 0.0
vertex 722.398126555791 1300.65793447516 0.0
vertex 722.409780857435 1299.88041256631 0.0
endloop
endfacet
facet normal 0.0 0.0 -1.0
outer loop
vertex 701.067272251631 1315.9140490507 0.0
vertex 652.677012251806 1313.03510169387 0.0
vertex 652.677012251806 1315.9140490507 0.0
endloop
endfacet
facet normal 0.0 0.0 -1.0
outer loop
vertex 652.677012251806 1313.03510169387 0.0
vertex 701.067272251631 1315.9140490507 0.0
vertex 668.582020521618 1291.3615175307 0.0
endloop
endfacet
facet normal 0.0 0.0 -1.0
outer loop
vertex 668.582020521618 1291.3615175307 0.0
vertex 701.067272251631 1315.9140490507 0.0
vertex 669.027705794976 1290.98306509269 0.0
endloop
endfacet
facet normal 0.0 0.0 -1.0
outer loop
vertex 669.027705794976 1290.98306509269 0.0
vertex 701.067272251631 1315.9140490507 0.0
vertex 669.490114570053 1290.62523868862 0.0
endloop
endfacet
facet normal 0.0 0.0 -1.0
outer loop
vertex 669.490114570053 1290.62523868862 0.0
vertex 701.067272251631 1315.9140490507 0.0
vertex 669.968293102762 1290.28877635554 0.0
endloop
endfacet
facet normal 0.0 0.0 -1.0
outer loop
vertex 669.968293102762 1290.28877635554 0.0
vertex 701.067272251631 1315.9140490507 0.0
vertex 670.461255123004 1289.97437206594 0.0
endloop
endfacet
facet normal 0.0 0.0 -1.0
outer loop
vertex 670.461255123004 1289.97437206594 0.0
vertex 701.067272251631 1315.9140490507 0.0
vertex 670.967983868907 1289.68267429632 0.0
endloop
endfacet
facet normal 0.0 0.0 -1.0
outer loop
vertex 670.967983868907 1289.68267429632 0.0
vertex 701.067272251631 1315.9140490507 0.0
vertex 671.487434183953 1289.41428468974 0.0
endloop
endfacet
facet normal 0.0 0.0 -1.0
outer loop
vertex 671.487434183953 1289.41428468974 0.0
vertex 701.067272251631 1315.9140490507 0.0
vertex 672.018534672674 1289.16975681484 0.0
endloop
endfacet
facet normal 0.0 0.0 -1.0
outer loop
vertex 672.018534672674 1289.16975681484 0.0
vertex 701.067272251631 1315.9140490507 0.0
vertex 672.560189910462 1288.94959502411 0.0
endloop
endfacet
facet normal 0.0 0.0 -1.0
outer loop
vertex 672.560189910462 1288.94959502411 0.0
vertex 701.067272251631 1315.9140490507 0.0
vertex 673.111282702948 1288.75425341361 0.0
endloop
endfacet
facet normal 0.0 0.0 -1.0
outer loop
vertex 673.111282702948 1288.75425341361 0.0
vertex 701.067272251631 1315.9140490507 0.0
vertex 673.670676390274 1288.58413488639 0.0
endloop
endfacet
facet normal 0.0 0.0 -1.0
outer loop
vertex 673.670676390274 1288.58413488639 0.0
vertex 701.067272251631 1315.9140490507 0.0
vertex 674.23721719152 1288.43959032148 0.0
endloop
endfacet
facet normal 0.0 0.0 -1.0
outer loop
vertex 674.23721719152 1288.43959032148 0.0
vertex 701.067272251631 1315.9140490507 0.0
vertex 674.809736584445 1288.32091785016 0.0
endloop
endfacet
facet normal 0.0 0.0 -1.0
outer loop
vertex 674.809736584445 1288.32091785016 0.0
vertex 701.067272251631 1315.9140490507 0.0
vertex 675.387053715622 1288.22836224109 0.0
endloop
endfacet
facet normal 0.0 0.0 -1.0
outer loop
vertex 675.387053715622 1288.22836224109 0.0
vertex 701.067272251631 1315.9140490507 0.0
vertex 675.967977836023 1288.16211439539 0.0
endloop
endfacet
facet normal 0.0 0.0 -1.0
outer loop
vertex 675.967977836023 1288.16211439539 0.0
vertex 701.067272251631 1315.9140490507 0.0
vertex 676.551310757 1288.12231095298 0.0
endloop
endfacet
facet normal 0.0 0.0 -1.0
outer loop
vertex 676.551310757 1288.12231095298 0.0
vertex 701.067272251631 1315.9140490507 0.0
vertex 677.135849321618 1288.1090340107 0.0
endloop
endfacet
facet normal 0.0 0.0 -1.0
outer loop
vertex 677.135849321618 1288.1090340107 0.0
vertex 701.067272251631 1315.9140490507 0.0
vertex 677.720387886236 1288.12231095298 0.0
endloop
endfacet
facet normal 0.0 0.0 -1.0
outer loop
vertex 677.720387886236 1288.12231095298 0.0
vertex 701.067272251631 1315.9140490507 0.0
vertex 678.303720807213 1288.16211439539 0.0
endloop
endfacet
facet normal 0.0 0.0 -1.0
outer loop
vertex 678.303720807213 1288.16211439539 0.0
vertex 701.067272251631 1315.9140490507 0.0
vertex 678.884644927613 1288.22836224109 0.0
endloop
endfacet
facet normal 0.0 0.0 -1.0
outer loop
vertex 678.884644927613 1288.22836224109 0.0
vertex 701.067272251631 1315.9140490507 0.0
vertex 679.461962058791 1288.32091785016 0.0
endloop
endfacet
facet normal 0.0 0.0 -1.0
outer loop
vertex 679.461962058791 1288.32091785016 0.0
vertex 701.067272251631 1315.9140490507 0.0
vertex 680.034481451715 1288.43959032148 0.0
endloop
endfacet
facet normal 0.0 0.0 -1.0
outer loop
vertex 680.034481451715 1288.43959032148 0.0
vertex 701.067272251631 1315.9140490507 0.0
vertex 680.601022252962 1288.58413488639 0.0
endloop
endfacet
facet normal 0.0 0.0 -1.0
outer loop
vertex 680.601022252962 1288.58413488639 0.0
vertex 701.067272251631 1315.9140490507 0.0
vertex 681.160415940288 1288.75425341361 0.0
endloop
endfacet
facet normal 0.0 0.0 -1.0
outer loop
vertex 681.160415940288 1288.75425341361 0.0
vertex 701.067272251631 1315.9140490507 0.0
vertex 681.711508732773 1288.94959502411 0.0
endloop
endfacet
facet normal 0.0 0.0 -1.0
outer loop
vertex 681.711508732773 1288.94959502411 0.0
vertex 701.067272251631 1315.9140490507 0.0
vertex 682.253163970562 1289.16975681484 0.0
endloop
endfacet
facet normal 0.0 0.0 -1.0
outer loop
vertex 682.253163970562 1289.16975681484 0.0
vertex 701.067272251631 1315.9140490507 0.0
vertex 682.784264459282 1289.41428468974 0.0
endloop
endfacet
facet normal 0.0 0.0 -1.0
outer loop
vertex 682.784264459282 1289.41428468974 0.0
vertex 701.067272251631 1315.9140490507 0.0
vertex 683.303714774329 1289.68267429632 0.0
endloop
endfacet
facet normal 0.0 0.0 -1.0
outer loop
vertex 683.303714774329 1289.68267429632 0.0
vertex 701.067272251631 1315.9140490507 0.0
vertex 683.810443520232 1289.97437206594 0.0
endloop
endfacet
facet normal 0.0 0.0 -1.0
outer loop
vertex 683.810443520232 1289.97437206594 0.0
vertex 701.067272251631 1315.9140490507 0.0
vertex 684.303405540473 1290.28877635554 0.0
endloop
endfacet
facet normal 0.0 0.0 -1.0
outer loop
vertex 684.303405540473 1290.28877635554 0.0
vertex 701.067272251631 1315.9140490507 0.0
vertex 684.781584073183 1290.62523868862 0.0
endloop
endfacet
facet normal 0.0 0.0 -1.0
outer loop
vertex 684.781584073183 1290.62523868862 0.0
vertex 701.067272251631 1315.9140490507 0.0
vertex 685.243992848259 1290.98306509269 0.0
endloop
endfacet
facet normal 0.0 0.0 -1.0
outer loop
vertex 685.243992848259 1290.98306509269 0.0
vertex 701.067272251631 1315.9140490507 0.0
vertex 685.689678121618 1291.3615175307 0.0
endloop
endfacet
facet normal 0.0 0.0 -1.0
outer loop
vertex 685.689678121618 1291.3615175307 0.0
vertex 701.067272251631 1315.9140490507 0.0
vertex 701.018852382596 1294.92667993387 0.0
endloop
endfacet
facet normal 0.0 0.0 -1.0
outer loop
vertex 701.018852382596 1294.92667993387 0.0
vertex 701.067272251631 1315.9140490507 0.0
vertex 701.067272251631 1313.03510169387 0.0
endloop
endfacet
facet normal 0.0 0.0 -1.0
outer loop
vertex 701.018852382596 1294.92667993387 0.0
vertex 701.067272251631 1313.03510169387 0.0
vertex 710.924843908974 1294.92667993387 0.0
endloop
endfacet
facet normal 0.0 0.0 -1.0
outer loop
vertex 710.924843908974 1294.92667993387 0.0
vertex 701.067272251631 1313.03510169387 0.0
vertex 710.924843908974 1313.03510169387 0.0
endloop
endfacet
facet normal 0.0 0.0 -1.0
outer loop
vertex 701.018852382596 1291.3615175307 0.0
vertex 685.689678121618 1291.3615175307 0.0
vertex 701.018852382596 1294.92667993387 0.0
endloop
endfacet
facet normal 0.0 0.0 1.0
outer loop
vertex 721.758009787588 1291.3615175307 3.0
vertex 710.924843908974 1294.92667993387 3.0
vertex 710.924843908974 1291.3615175307 3.0
endloop
endfacet
facet normal 0.0 0.0 1.0
outer loop
vertex 710.924843908974 1294.92667993387 3.0
vertex 721.758009787588 1291.3615175307 3.0
vertex 710.924843908974 1313.03510169387 3.0
endloop
endfacet
facet normal 0.0 0.0 1.0
outer loop
vertex 710.924843908974 1313.03510169387 3.0
vertex 721.758009787588 1291.3615175307 3.0
vertex 710.924843908974 1315.9140490507 3.0
endloop
endfacet
facet normal 0.0 0.0 1.0
outer loop
vertex 710.924843908974 1315.9140490507 3.0
vertex 721.758009787588 1291.3615175307 3.0
vertex 719.703121898883 1315.9140490507 3.0
endloop
endfacet
facet normal 0.0 0.0 1.0
outer loop
vertex 719.703121898883 1315.9140490507 3.0
vertex 721.758009787588 1291.3615175307 3.0
vertex 719.947348877249 1315.17578803688 3.0
endloop
endfacet
facet normal 0.0 0.0 1.0
outer loop
vertex 719.947348877249 1315.17578803688 3.0
vertex 721.758009787588 1291.3615175307 3.0
vertex 720.180308204946 1314.43389445077 3.0
endloop
endfacet
facet normal 0.0 0.0 1.0
outer loop
vertex 720.180308204946 1314.43389445077 3.0
vertex 721.758009787588 1291.3615175307 3.0
vertex 720.401945885235 1313.68854025298 3.0
endloop
endfacet
facet normal 0.0 0.0 1.0
outer loop
vertex 720.401945885235 1313.68854025298 3.0
vertex 721.758009787588 1291.3615175307 3.0
vertex 720.612210545582 1312.93989820627 3.0
endloop
endfacet
facet normal 0.0 0.0 1.0
outer loop
vertex 720.612210545582 1312.93989820627 3.0
vertex 721.758009787588 1291.3615175307 3.0
vertex 720.811053449557 1312.18814183549 3.0
endloop
endfacet
facet normal 0.0 0.0 1.0
outer loop
vertex 720.811053449557 1312.18814183549 3.0
vertex 721.758009787588 1291.3615175307 3.0
vertex 720.998428508136 1311.4334453873 3.0
endloop
endfacet
facet normal 0.0 0.0 1.0
outer loop
vertex 720.998428508136 1311.4334453873 3.0
vertex 721.758009787588 1291.3615175307 3.0
vertex 721.174292290382 1310.67598378987 3.0
endloop
endfacet
facet normal 0.0 0.0 1.0
outer loop
vertex 721.174292290382 1310.67598378987 3.0
vertex 721.758009787588 1291.3615175307 3.0
vertex 721.338604033512 1309.91593261228 3.0
endloop
endfacet
facet normal 0.0 0.0 1.0
outer loop
vertex 721.338604033512 1309.91593261228 3.0
vertex 721.758009787588 1291.3615175307 3.0
vertex 721.491325652347 1309.15346802384 3.0
endloop
endfacet
facet normal 0.0 0.0 1.0
outer loop
vertex 721.491325652347 1309.15346802384 3.0
vertex 721.758009787588 1291.3615175307 3.0
vertex 721.632421748136 1308.38876675326 3.0
endloop
endfacet
facet normal 0.0 0.0 1.0
outer loop
vertex 721.632421748136 1308.38876675326 3.0
vertex 721.758009787588 1291.3615175307 3.0
vertex 721.758009787588 1307.64481156637 3.0
endloop
endfacet
facet normal 0.0 0.0 1.0
outer loop
vertex 721.758009787588 1307.64481156637 3.0
vertex 721.758009787588 1291.3615175307 3.0
vertex 721.876123381101 1292.13010410391 3.0
endloop
endfacet
facet normal 0.0 0.0 1.0
outer loop
vertex 721.758009787588 1307.64481156637 3.0
vertex 721.876123381101 1292.13010410391 3.0
vertex 721.879609256327 1306.85336363154 3.0
endloop
endfacet
facet normal 0.0 0.0 1.0
outer loop
vertex 721.879609256327 1306.85336363154 3.0
vertex 721.876123381101 1292.13010410391 3.0
vertex 721.982522260797 1292.90039977434 3.0
endloop
endfacet
facet normal 0.0 0.0 1.0
outer loop
vertex 721.879609256327 1306.85336363154 3.0
vertex 721.982522260797 1292.90039977434 3.0
vertex 721.985643374096 1306.08301766552 3.0
endloop
endfacet
facet normal 0.0 0.0 1.0
outer loop
vertex 721.985643374096 1306.08301766552 3.0
vertex 721.982522260797 1292.90039977434 3.0
vertex 722.077181764894 1293.67222599815 3.0
endloop
endfacet
facet normal 0.0 0.0 1.0
outer loop
vertex 721.985643374096 1306.08301766552 3.0
vertex 722.077181764894 1293.67222599815 3.0
vertex 722.079937392836 1305.31114670512 3.0
endloop
endfacet
facet normal 0.0 0.0 1.0
outer loop
vertex 722.079937392836 1305.31114670512 3.0
vertex 722.077181764894 1293.67222599815 3.0
vertex 722.160079952633 1294.44540387675 3.0
endloop
endfacet
facet normal 0.0 0.0 1.0
outer loop
vertex 722.079937392836 1305.31114670512 3.0
vertex 722.160079952633 1294.44540387675 3.0
vertex 722.162469456501 1304.5379296593 3.0
endloop
endfacet
facet normal 0.0 0.0 1.0
outer loop
vertex 722.162469456501 1304.5379296593 3.0
vertex 722.160079952633 1294.44540387675 3.0
vertex 722.231197609365 1295.21975419823 3.0
endloop
endfacet
facet normal 0.0 0.0 1.0
outer loop
vertex 722.162469456501 1304.5379296593 3.0
vertex 722.231197609365 1295.21975419823 3.0
vertex 722.233220435306 1303.76354574903 3.0
endloop
endfacet
facet normal 0.0 0.0 1.0
outer loop
vertex 722.233220435306 1303.76354574903 3.0
vertex 722.231197609365 1295.21975419823 3.0
vertex 722.290518251005 1295.99509747895 3.0
endloop
endfacet
facet normal 0.0 0.0 1.0
outer loop
vertex 722.233220435306 1303.76354574903 3.0
vertex 722.290518251005 1295.99509747895 3.0
vertex 722.292173930155 1302.98817446575 3.0
endloop
endfacet
facet normal 0.0 0.0 1.0
outer loop
vertex 722.292173930155 1302.98817446575 3.0
vertex 722.290518251005 1295.99509747895 3.0
vertex 722.338028127851 1296.7712540051 3.0
endloop
endfacet
facet normal 0.0 0.0 1.0
outer loop
vertex 722.292173930155 1302.98817446575 3.0
vertex 722.338028127851 1296.7712540051 3.0
vertex 722.339316276447 1302.21199552977 3.0
endloop
endfacet
facet normal 0.0 0.0 1.0
outer loop
vertex 722.339316276447 1302.21199552977 3.0
vertex 722.338028127851 1296.7712540051 3.0
vertex 722.373716227775 1297.54804387438 3.0
endloop
endfacet
facet normal 0.0 0.0 1.0
outer loop
vertex 722.339316276447 1302.21199552977 3.0
vertex 722.373716227775 1297.54804387438 3.0
vertex 722.374636547242 1301.43518884857 3.0
endloop
endfacet
facet normal 0.0 0.0 1.0
outer loop
vertex 722.374636547242 1301.43518884857 3.0
vertex 722.373716227775 1297.54804387438 3.0
vertex 722.39757427877 1298.32528703767 3.0
endloop
endfacet
facet normal 0.0 0.0 1.0
outer loop
vertex 722.374636547242 1301.43518884857 3.0
vertex 722.39757427877 1298.32528703767 3.0
vertex 722.398126555791 1300.65793447516 3.0
endloop
endfacet
facet normal 0.0 0.0 1.0
outer loop
vertex 722.398126555791 1300.65793447516 3.0
vertex 722.39757427877 1298.32528703767 3.0
vertex 722.409596750871 1299.10280334081 3.0
endloop
endfacet
facet normal 0.0 0.0 1.0
outer loop
vertex 722.398126555791 1300.65793447516 3.0
vertex 722.409596750871 1299.10280334081 3.0
vertex 722.409780857435 1299.88041256631 3.0
endloop
endfacet
facet normal 0.0 0.0 1.0
outer loop
vertex 710.924843908974 1294.92667993387 3.0
vertex 701.067272251631 1313.03510169387 3.0
vertex 701.018852382596 1294.92667993387 3.0
endloop
endfacet
facet normal 0.0 0.0 1.0
outer loop
vertex 701.067272251631 1313.03510169387 3.0
vertex 710.924843908974 1294.92667993387 3.0
vertex 710.924843908974 1313.03510169387 3.0
endloop
endfacet
facet normal 0.0 0.0 1.0
outer loop
vertex 668.582020521618 1291.3615175307 3.0
vertex 652.561507389885 1294.92667993387 3.0
vertex 652.561507389885 1291.3615175307 3.0
endloop
endfacet
facet normal 0.0 0.0 1.0
outer loop
vertex 652.561507389885 1294.92667993387 3.0
vertex 668.582020521618 1291.3615175307 3.0
vertex 652.677012251806 1313.03510169387 3.0
endloop
endfacet
facet normal 0.0 0.0 1.0
outer loop
vertex 652.677012251806 1313.03510169387 3.0
vertex 668.582020521618 1291.3615175307 3.0
vertex 652.677012251806 1315.9140490507 3.0
endloop
endfacet
facet normal 0.0 0.0 1.0
outer loop
vertex 652.677012251806 1315.9140490507 3.0
vertex 668.582020521618 1291.3615175307 3.0
vertex 701.067272251631 1315.9140490507 3.0
endloop
endfacet
facet normal 0.0 0.0 1.0
outer loop
vertex 701.067272251631 1315.9140490507 3.0
vertex 668.582020521618 1291.3615175307 3.0
vertex 669.027705794976 1290.98306509269 3.0
endloop
endfacet
facet normal 0.0 0.0 1.0
outer loop
vertex 701.067272251631 1315.9140490507 3.0
vertex 669.027705794976 1290.98306509269 3.0
vertex 669.490114570053 1290.62523868862 3.0
endloop
endfacet
facet normal 0.0 0.0 1.0
outer loop
vertex 701.067272251631 1315.9140490507 3.0
vertex 669.490114570053 1290.62523868862 3.0
vertex 669.968293102762 1290.28877635554 3.0
endloop
endfacet
facet normal 0.0 0.0 1.0
outer loop
vertex 701.067272251631 1315.9140490507 3.0
vertex 669.968293102762 1290.28877635554 3.0
vertex 670.461255123004 1289.97437206594 3.0
endloop
endfacet
facet normal 0.0 0.0 1.0
outer loop
vertex 701.067272251631 1315.9140490507 3.0
vertex 670.461255123004 1289.97437206594 3.0
vertex 670.967983868907 1289.68267429632 3.0
endloop
endfacet
facet normal 0.0 0.0 1.0
outer loop
vertex 701.067272251631 1315.9140490507 3.0
vertex 670.967983868907 1289.68267429632 3.0
vertex 671.487434183953 1289.41428468974 3.0
endloop
endfacet
facet normal 0.0 0.0 1.0
outer loop
vertex 701.067272251631 1315.9140490507 3.0
vertex 671.487434183953 1289.41428468974 3.0
vertex 672.018534672674 1289.16975681484 3.0
endloop
endfacet
facet normal 0.0 0.0 1.0
outer loop
vertex 701.067272251631 1315.9140490507 3.0
vertex 672.018534672674 1289.16975681484 3.0
vertex 672.560189910462 1288.94959502411 3.0
endloop
endfacet
facet normal 0.0 0.0 1.0
outer loop
vertex 701.067272251631 1315.9140490507 3.0
vertex 672.560189910462 1288.94959502411 3.0
vertex 673.111282702948 1288.75425341361 3.0
endloop
endfacet
facet normal 0.0 0.0 1.0
outer loop
vertex 701.067272251631 1315.9140490507 3.0
vertex 673.111282702948 1288.75425341361 3.0
vertex 673.670676390274 1288.58413488639 3.0
endloop
endfacet
facet normal 0.0 0.0 1.0
outer loop
vertex 701.067272251631 1315.9140490507 3.0
vertex 673.670676390274 1288.58413488639 3.0
vertex 674.23721719152 1288.43959032148 3.0
endloop
endfacet
facet normal 0.0 0.0 1.0
outer loop
vertex 701.067272251631 1315.9140490507 3.0
vertex 674.23721719152 1288.43959032148 3.0
vertex 674.809736584445 1288.32091785016 3.0
endloop
endfacet
facet normal 0.0 0.0 1.0
outer loop
vertex 701.067272251631 1315.9140490507 3.0
vertex 674.809736584445 1288.32091785016 3.0
vertex 675.387053715622 1288.22836224109 3.0
endloop
endfacet
facet normal 0.0 0.0 1.0
outer loop
vertex 701.067272251631 1315.9140490507 3.0
vertex 675.387053715622 1288.22836224109 3.0
vertex 675.967977836023 1288.16211439539 3.0
endloop
endfacet
facet normal 0.0 0.0 1.0
outer loop
vertex 701.067272251631 1315.9140490507 3.0
vertex 675.967977836023 1288.16211439539 3.0
vertex 676.551310757 1288.12231095298 3.0
endloop
endfacet
facet normal 0.0 0.0 1.0
outer loop
vertex 701.067272251631 1315.9140490507 3.0
vertex 676.551310757 1288.12231095298 3.0
vertex 677.135849321618 1288.1090340107 3.0
endloop
endfacet
facet normal 0.0 0.0 1.0
outer loop
vertex 701.067272251631 1315.9140490507 3.0
vertex 677.135849321618 1288.1090340107 3.0
vertex 677.720387886236 1288.12231095298 3.0
endloop
endfacet
facet normal 0.0 0.0 1.0
outer loop
vertex 701.067272251631 1315.9140490507 3.0
vertex 677.720387886236 1288.12231095298 3.0
vertex 678.303720807213 1288.16211439539 3.0
endloop
endfacet
facet normal 0.0 0.0 1.0
outer loop
vertex 701.067272251631 1315.9140490507 3.0
vertex 678.303720807213 1288.16211439539 3.0
vertex 678.884644927613 1288.22836224109 3.0
endloop
endfacet
facet normal 0.0 0.0 1.0
outer loop
vertex 701.067272251631 1315.9140490507 3.0
vertex 678.884644927613 1288.22836224109 3.0
vertex 679.461962058791 1288.32091785016 3.0
endloop
endfacet
facet normal 0.0 0.0 1.0
outer loop
vertex 701.067272251631 1315.9140490507 3.0
vertex 679.461962058791 1288.32091785016 3.0
vertex 680.034481451715 1288.43959032148 3.0
endloop
endfacet
facet normal 0.0 0.0 1.0
outer loop
vertex 701.067272251631 1315.9140490507 3.0
vertex 680.034481451715 1288.43959032148 3.0
vertex 680.601022252962 1288.58413488639 3.0
endloop
endfacet
facet normal 0.0 0.0 1.0
outer loop
vertex 701.067272251631 1315.9140490507 3.0
vertex 680.601022252962 1288.58413488639 3.0
vertex 681.160415940288 1288.75425341361 3.0
endloop
endfacet
facet normal 0.0 0.0 1.0
outer loop
vertex 701.067272251631 1315.9140490507 3.0
vertex 681.160415940288 1288.75425341361 3.0
vertex 681.711508732773 1288.94959502411 3.0
endloop
endfacet
facet normal 0.0 0.0 1.0
outer loop
vertex 701.067272251631 1315.9140490507 3.0
vertex 681.711508732773 1288.94959502411 3.0
vertex 682.253163970562 1289.16975681484 3.0
endloop
endfacet
facet normal 0.0 0.0 1.0
outer loop
vertex 701.067272251631 1315.9140490507 3.0
vertex 682.253163970562 1289.16975681484 3.0
vertex 682.784264459282 1289.41428468974 3.0
endloop
endfacet
facet normal 0.0 0.0 1.0
outer loop
vertex 701.067272251631 1315.9140490507 3.0
vertex 682.784264459282 1289.41428468974 3.0
vertex 683.303714774329 1289.68267429632 3.0
endloop
endfacet
facet normal 0.0 0.0 1.0
outer loop
vertex 701.067272251631 1315.9140490507 3.0
vertex 683.303714774329 1289.68267429632 3.0
vertex 683.810443520232 1289.97437206594 3.0
endloop
endfacet
facet normal 0.0 0.0 1.0
outer loop
vertex 701.067272251631 1315.9140490507 3.0
vertex 683.810443520232 1289.97437206594 3.0
vertex 684.303405540473 1290.28877635554 3.0
endloop
endfacet
facet normal 0.0 0.0 1.0
outer loop
vertex 701.067272251631 1315.9140490507 3.0
vertex 684.303405540473 1290.28877635554 3.0
vertex 684.781584073183 1290.62523868862 3.0
endloop
endfacet
facet normal 0.0 0.0 1.0
outer loop
vertex 701.067272251631 1315.9140490507 3.0
vertex 684.781584073183 1290.62523868862 3.0
vertex 685.243992848259 1290.98306509269 3.0
endloop
endfacet
facet normal 0.0 0.0 1.0
outer loop
vertex 701.067272251631 1315.9140490507 3.0
vertex 685.243992848259 1290.98306509269 3.0
vertex 685.689678121618 1291.3615175307 3.0
endloop
endfacet
facet normal 0.0 0.0 1.0
outer loop
vertex 701.067272251631 1315.9140490507 3.0
vertex 685.689678121618 1291.3615175307 3.0
vertex 701.018852382596 1294.92667993387 3.0
endloop
endfacet
facet normal 0.0 0.0 1.0
outer loop
vertex 701.018852382596 1294.92667993387 3.0
vertex 685.689678121618 1291.3615175307 3.0
vertex 701.018852382596 1291.3615175307 3.0
endloop
endfacet
facet normal 0.0 0.0 1.0
outer loop
vertex 701.067272251631 1315.9140490507 3.0
vertex 701.018852382596 1294.92667993387 3.0
vertex 701.067272251631 1313.03510169387 3.0
endloop
endfacet
facet normal 0.0 0.0 1.0
outer loop
vertex 652.561507389885 1294.92667993387 3.0
vertex 642.575356548974 1313.03510169387 3.0
vertex 642.575356548974 1294.92667993387 3.0
endloop
endfacet
facet normal 0.0 0.0 1.0
outer loop
vertex 642.575356548974 1313.03510169387 3.0
vertex 652.561507389885 1294.92667993387 3.0
vertex 652.677012251806 1313.03510169387 3.0
endloop
endfacet
facet normal 0.0 0.0 1.0
outer loop
vertex 631.128615278459 1300.6251066116 3.0
vertex 631.125895556533 1302.18762189443 3.0
vertex 631.119585646641 1301.40635090298 3.0
endloop
endfacet
facet normal 0.0 0.0 1.0
outer loop
vertex 631.125895556533 1302.18762189443 3.0
vertex 631.128615278459 1300.6251066116 3.0
vertex 631.147542575834 1302.96861842683 3.0
endloop
endfacet
facet normal 0.0 0.0 1.0
outer loop
vertex 631.147542575834 1302.96861842683 3.0
vertex 631.128615278459 1300.6251066116 3.0
vertex 631.152980971305 1299.84419016917 3.0
endloop
endfacet
facet normal 0.0 0.0 1.0
outer loop
vertex 631.147542575834 1302.96861842683 3.0
vertex 631.152980971305 1299.84419016917 3.0
vertex 631.184518360194 1303.74903944681 3.0
endloop
endfacet
facet normal 0.0 0.0 1.0
outer loop
vertex 631.184518360194 1303.74903944681 3.0
vertex 631.152980971305 1299.84419016917 3.0
vertex 631.192673332854 1299.06390259814 3.0
endloop
endfacet
facet normal 0.0 0.0 1.0
outer loop
vertex 631.184518360194 1303.74903944681 3.0
vertex 631.192673332854 1299.06390259814 3.0
vertex 631.236808656433 1304.52858412287 3.0
endloop
endfacet
facet normal 0.0 0.0 1.0
outer loop
vertex 631.236808656433 1304.52858412287 3.0
vertex 631.192673332854 1299.06390259814 3.0
vertex 631.247677062758 1298.2845446786 3.0
endloop
endfacet
facet normal 0.0 0.0 1.0
outer loop
vertex 631.236808656433 1304.52858412287 3.0
vertex 631.247677062758 1298.2845446786 3.0
vertex 631.304393308037 1305.30695196131 3.0
endloop
endfacet
facet normal 0.0 0.0 1.0
outer loop
vertex 631.304393308037 1305.30695196131 3.0
vertex 631.247677062758 1298.2845446786 3.0
vertex 631.317970958545 1297.50641683225 3.0
endloop
endfacet
facet normal 0.0 0.0 1.0
outer loop
vertex 631.304393308037 1305.30695196131 3.0
vertex 631.317970958545 1297.50641683225 3.0
vertex 631.387246262922 1306.08384292208 3.0
endloop
endfacet
facet normal 0.0 0.0 1.0
outer loop
vertex 631.387246262922 1306.08384292208 3.0
vertex 631.317970958545 1297.50641683225 3.0
vertex 631.403527923791 1296.72981900663 3.0
endloop
endfacet
facet normal 0.0 0.0 1.0
outer loop
vertex 631.387246262922 1306.08384292208 3.0
vertex 631.403527923791 1296.72981900663 3.0
vertex 631.485335583484 1306.85895753441 3.0
endloop
endfacet
facet normal 0.0 0.0 1.0
outer loop
vertex 631.485335583484 1306.85895753441 3.0
vertex 631.403527923791 1296.72981900663 3.0
vertex 631.504314978567 1295.95505055952 3.0
endloop
endfacet
facet normal 0.0 0.0 1.0
outer loop
vertex 631.485335583484 1306.85895753441 3.0
vertex 631.504314978567 1295.95505055952 3.0
vertex 631.598623458902 1307.63199701228 3.0
endloop
endfacet
facet normal 0.0 0.0 1.0
outer loop
vertex 631.598623458902 1307.63199701228 3.0
vertex 631.504314978567 1295.95505055952 3.0
vertex 631.620293272149 1295.18241014349 3.0
endloop
endfacet
facet normal 0.0 0.0 1.0
outer loop
vertex 631.598623458902 1307.63199701228 3.0
vertex 631.620293272149 1295.18241014349 3.0
vertex 631.72706621972 1308.40266336956 3.0
endloop
endfacet
facet normal 0.0 0.0 1.0
outer loop
vertex 631.72706621972 1308.40266336956 3.0
vertex 631.620293272149 1295.18241014349 3.0
vertex 631.751418097995 1294.41219559085 3.0
endloop
endfacet
facet normal 0.0 0.0 1.0
outer loop
vertex 631.72706621972 1308.40266336956 3.0
vertex 631.751418097995 1294.41219559085 3.0
vertex 631.870614354676 1309.17065953492 3.0
endloop
endfacet
facet normal 0.0 0.0 1.0
outer loop
vertex 631.870614354676 1309.17065953492 3.0
vertex 631.751418097995 1294.41219559085 3.0
vertex 631.897638910979 1293.64470379877 3.0
endloop
endfacet
facet normal 0.0 0.0 1.0
outer loop
vertex 631.870614354676 1309.17065953492 3.0
vertex 631.897638910979 1293.64470379877 3.0
vertex 632.029212529791 1309.9356894663 3.0
endloop
endfacet
facet normal 0.0 0.0 1.0
outer loop
vertex 632.029212529791 1309.9356894663 3.0
vertex 631.897638910979 1293.64470379877 3.0
vertex 632.058899346875 1292.88023061489 3.0
endloop
endfacet
facet normal 0.0 0.0 1.0
outer loop
vertex 632.029212529791 1309.9356894663 3.0
vertex 632.058899346875 1292.88023061489 3.0
vertex 632.202799609693 1310.69745826505 3.0
endloop
endfacet
facet normal 0.0 0.0 1.0
outer loop
vertex 632.202799609693 1310.69745826505 3.0
vertex 632.058899346875 1292.88023061489 3.0
vertex 632.235137244082 1292.11907072325 3.0
endloop
endfacet
facet normal 0.0 0.0 1.0
outer loop
vertex 632.202799609693 1310.69745826505 3.0
vertex 632.235137244082 1292.11907072325 3.0
vertex 632.39130868119 1311.4556722896 3.0
endloop
endfacet
facet normal 0.0 0.0 1.0
outer loop
vertex 632.39130868119 1311.4556722896 3.0
vertex 632.235137244082 1292.11907072325 3.0
vertex 632.426284667588 1291.3615175307 3.0
endloop
endfacet
facet normal 0.0 0.0 1.0
outer loop
vertex 632.39130868119 1311.4556722896 3.0
vertex 632.426284667588 1291.3615175307 3.0
vertex 632.426284667588 1311.58541725943 3.0
endloop
endfacet
facet normal 0.0 0.0 1.0
outer loop
vertex 632.426284667588 1311.58541725943 3.0
vertex 632.426284667588 1291.3615175307 3.0
vertex 642.575356548974 1291.3615175307 3.0
endloop
endfacet
facet normal 0.0 0.0 1.0
outer loop
vertex 632.426284667588 1311.58541725943 3.0
vertex 642.575356548974 1291.3615175307 3.0
vertex 632.594667079059 1312.21003926864 3.0
endloop
endfacet
facet normal 0.0 0.0 1.0
outer loop
vertex 632.594667079059 1312.21003926864 3.0
vertex 642.575356548974 1291.3615175307 3.0
vertex 632.812796414055 1312.96026841381 3.0
endloop
endfacet
facet normal 0.0 0.0 1.0
outer loop
vertex 632.812796414055 1312.96026841381 3.0
vertex 642.575356548974 1291.3615175307 3.0
vertex 633.045612603135 1313.70607053178 3.0
endloop
endfacet
facet normal 0.0 0.0 1.0
outer loop
vertex 633.045612603135 1313.70607053178 3.0
vertex 642.575356548974 1291.3615175307 3.0
vertex 633.29302590186 1314.44715813569 3.0
endloop
endfacet
facet normal 0.0 0.0 1.0
outer loop
vertex 633.29302590186 1314.44715813569 3.0
vertex 642.575356548974 1291.3615175307 3.0
vertex 633.554940938999 1315.18324555602 3.0
endloop
endfacet
facet normal 0.0 0.0 1.0
outer loop
vertex 633.554940938999 1315.18324555602 3.0
vertex 642.575356548974 1291.3615175307 3.0
vertex 633.831256753284 1315.9140490507 3.0
endloop
endfacet
facet normal 0.0 0.0 1.0
outer loop
vertex 633.831256753284 1315.9140490507 3.0
vertex 642.575356548974 1291.3615175307 3.0
vertex 642.575356548974 1315.9140490507 3.0
endloop
endfacet
facet normal 0.0 0.0 1.0
outer loop
vertex 642.575356548974 1315.9140490507 3.0
vertex 642.575356548974 1291.3615175307 3.0
vertex 642.575356548974 1294.92667993387 3.0
endloop
endfacet
facet normal 0.0 0.0 1.0
outer loop
vertex 642.575356548974 1315.9140490507 3.0
vertex 642.575356548974 1294.92667993387 3.0
vertex 642.575356548974 1313.03510169387 3.0
endloop
endfacet
facet normal 0.0 -1.0 0.0
outer loop
vertex 652.561507389885 1294.92667993387 3.0
vertex 642.575356548974 1294.92667993387 0.0
vertex 652.561507389885 1294.92667993387 0.0
endloop
endfacet
facet normal 0.0 -1.0 0.0
outer loop
vertex 642.575356548974 1294.92667993387 0.0
vertex 652.561507389885 1294.92667993387 3.0
vertex 642.575356548974 1294.92667993387 3.0
endloop
endfacet
facet normal -1.0 -0.0 -0.0
outer loop
vertex 652.561507389885 1294.92667993387 3.0
vertex 652.561507389885 1291.3615175307 0.0
vertex 652.561507389885 1291.3615175307 3.0
endloop
endfacet
facet normal -1.0 -0.0 -0.0
outer loop
vertex 652.561507389885 1291.3615175307 0.0
vertex 652.561507389885 1294.92667993387 3.0
vertex 652.561507389885 1294.92667993387 0.0
endloop
endfacet
facet normal 0.0 -1.0 0.0
outer loop
vertex 668.582020521618 1291.3615175307 3.0
vertex 652.561507389885 1291.3615175307 0.0
vertex 668.582020521618 1291.3615175307 0.0
endloop
endfacet
facet normal 0.0 -1.0 0.0
outer loop
vertex 652.561507389885 1291.3615175307 0.0
vertex 668.582020521618 1291.3615175307 3.0
vertex 652.561507389885 1291.3615175307 3.0
endloop
endfacet
facet normal -0.647270985868032 -0.762259975896299 -0.0
outer loop
vertex 669.027705794976 1290.98306509269 3.0
vertex 668.582020521618 1291.3615175307 0.0
vertex 669.027705794976 1290.98306509269 0.0
endloop
endfacet
facet normal -0.647270985868032 -0.762259975896299 -0.0
outer loop
vertex 668.582020521618 1291.3615175307 0.0
vertex 669.027705794976 1290.98306509269 3.0
vertex 668.582020521618 1291.3615175307 3.0
endloop
endfacet
facet normal -0.611994073959813 -0.790862347970916 -0.0
outer loop
vertex 669.490114570053 1290.62523868862 3.0
vertex 669.027705794976 1290.98306509269 0.0
vertex 669.490114570053 1290.62523868862 0.0
endloop
endfacet
facet normal -0.611994073959813 -0.790862347970916 -0.0
outer loop
vertex 669.027705794976 1290.98306509269 0.0
vertex 669.490114570053 1290.62523868862 3.0
vertex 669.027705794976 1290.98306509269 3.0
endloop
endfacet
facet normal -0.575454889878013 -0.817833522005233 -0.0
outer loop
vertex 669.968293102762 1290.28877635554 3.0
vertex 669.490114570053 1290.62523868862 0.0
vertex 669.968293102762 1290.28877635554 0.0
endloop
endfacet
facet normal -0.575454889878013 -0.817833522005233 -0.0
outer loop
vertex 669.490114570053 1290.62523868862 0.0
vertex 669.968293102762 1290.28877635554 3.0
vertex 669.490114570053 1290.62523868862 3.0
endloop
endfacet
facet normal -0.537728797743804 -0.843117868436557 -0.0
outer loop
vertex 670.461255123004 1289.97437206594 3.0
vertex 669.968293102762 1290.28877635554 0.0
vertex 670.461255123004 1289.97437206594 0.0
endloop
endfacet
facet normal -0.537728797743804 -0.843117868436557 -0.0
outer loop
vertex 669.968293102762 1290.28877635554 0.0
vertex 670.461255123004 1289.97437206594 3.0
vertex 669.968293102762 1290.28877635554 3.0
endloop
endfacet
facet normal -0.498893609743954 -0.866663236878458 -0.0
outer loop
vertex 670.967983868907 1289.68267429632 3.0
vertex 670.461255123004 1289.97437206594 0.0
vertex 670.967983868907 1289.68267429632 0.0
endloop
endfacet
facet normal -0.498893609743954 -0.866663236878458 -0.0
outer loop
vertex 670.461255123004 1289.97437206594 0.0
vertex 670.967983868907 1289.68267429632 3.0
vertex 670.461255123004 1289.97437206594 3.0
endloop
endfacet
facet normal -0.459029425633944 -0.88842106368668 -0.0
outer loop
vertex 671.487434183953 1289.41428468974 3.0
vertex 670.967983868907 1289.68267429632 0.0
vertex 671.487434183953 1289.41428468974 0.0
endloop
endfacet
facet normal -0.459029425633944 -0.88842106368668 -0.0
outer loop
vertex 670.967983868907 1289.68267429632 0.0
vertex 671.487434183953 1289.41428468974 3.0
vertex 670.967983868907 1289.68267429632 3.0
endloop
endfacet
facet normal -0.418218467535043 -0.908346472119885 -0.0
outer loop
vertex 672.018534672674 1289.16975681484 3.0
vertex 671.487434183953 1289.41428468974 0.0
vertex 672.018534672674 1289.16975681484 0.0
endloop
endfacet
facet normal -0.418218467535043 -0.908346472119885 -0.0
outer loop
vertex 671.487434183953 1289.41428468974 0.0
vertex 672.018534672674 1289.16975681484 3.0
vertex 671.487434183953 1289.41428468974 3.0
endloop
endfacet
facet normal -0.376544910343566 -0.926398364902678 -0.0
outer loop
vertex 672.560189910462 1288.94959502411 3.0
vertex 672.018534672674 1289.16975681484 0.0
vertex 672.560189910462 1288.94959502411 0.0
endloop
endfacet
facet normal -0.376544910343566 -0.926398364902678 -0.0
outer loop
vertex 672.018534672674 1289.16975681484 0.0
vertex 672.560189910462 1288.94959502411 3.0
vertex 672.018534672674 1289.16975681484 3.0
endloop
endfacet
facet normal -0.334094708110134 -0.942539508993021 -0.0
outer loop
vertex 673.111282702948 1288.75425341361 3.0
vertex 672.560189910462 1288.94959502411 0.0
vertex 673.111282702948 1288.75425341361 0.0
endloop
endfacet
facet normal -0.334094708110134 -0.942539508993021 -0.0
outer loop
vertex 672.560189910462 1288.94959502411 0.0
vertex 673.111282702948 1288.75425341361 3.0
vertex 672.560189910462 1288.94959502411 3.0
endloop
endfacet
facet normal -0.290955416765431 -0.956736612372943 -0.0
outer loop
vertex 673.670676390274 1288.58413488639 3.0
vertex 673.111282702948 1288.75425341361 0.0
vertex 673.670676390274 1288.58413488639 0.0
endloop
endfacet
facet normal -0.290955416765431 -0.956736612372943 -0.0
outer loop
vertex 673.111282702948 1288.75425341361 0.0
vertex 673.670676390274 1288.58413488639 3.0
vertex 673.111282702948 1288.75425341361 3.0
endloop
endfacet
facet normal -0.247216013521898 -0.968960392719094 -0.0
outer loop
vertex 674.23721719152 1288.43959032148 3.0
vertex 673.670676390274 1288.58413488639 0.0
vertex 674.23721719152 1288.43959032148 0.0
endloop
endfacet
facet normal -0.247216013521898 -0.968960392719094 -0.0
outer loop
vertex 673.670676390274 1288.58413488639 0.0
vertex 674.23721719152 1288.43959032148 3.0
vertex 673.670676390274 1288.58413488639 3.0
endloop
endfacet
facet normal -0.202966713354634 -0.979185637798073 -0.0
outer loop
vertex 674.809736584445 1288.32091785016 3.0
vertex 674.23721719152 1288.43959032148 0.0
vertex 674.809736584445 1288.32091785016 0.0
endloop
endfacet
facet normal -0.202966713354634 -0.979185637798073 -0.0
outer loop
vertex 674.23721719152 1288.43959032148 0.0
vertex 674.809736584445 1288.32091785016 3.0
vertex 674.23721719152 1288.43959032148 3.0
endloop
endfacet
facet normal -0.158298782935191 -0.98739125746648 -0.0
outer loop
vertex 675.387053715622 1288.22836224109 3.0
vertex 674.809736584445 1288.32091785016 0.0
vertex 675.387053715622 1288.22836224109 0.0
endloop
endfacet
facet normal -0.158298782935191 -0.98739125746648 -0.0
outer loop
vertex 674.809736584445 1288.32091785016 0.0
vertex 675.387053715622 1288.22836224109 3.0
vertex 674.809736584445 1288.32091785016 3.0
endloop
endfacet
facet normal -0.113304352378661 -0.993560327172967 -0.0
outer loop
vertex 675.967977836023 1288.16211439539 3.0
vertex 675.387053715622 1288.22836224109 0.0
vertex 675.967977836023 1288.16211439539 0.0
endloop
endfacet
facet normal -0.113304352378661 -0.993560327172967 -0.0
outer loop
vertex 675.387053715622 1288.22836224109 0.0
vertex 675.967977836023 1288.16211439539 3.0
vertex 675.387053715622 1288.22836224109 3.0
endloop
endfacet
facet normal -0.0680762252275271 -0.997680122864424 -0.0
outer loop
vertex 676.551310757 1288.12231095298 3.0
vertex 675.967977836023 1288.16211439539 0.0
vertex 676.551310757 1288.12231095298 0.0
endloop
endfacet
facet normal -0.0680762252275271 -0.997680122864424 -0.0
outer loop
vertex 675.967977836023 1288.16211439539 0.0
vertex 676.551310757 1288.12231095298 3.0
vertex 675.967977836023 1288.16211439539 3.0
endloop
endfacet
facet normal -0.0227076870360144 -0.999742147230712 -0.0
outer loop
vertex 677.135849321618 1288.1090340107 3.0
vertex 676.551310757 1288.12231095298 0.0
vertex 677.135849321618 1288.1090340107 0.0
endloop
endfacet
facet normal -0.0227076870360144 -0.999742147230712 -0.0
outer loop
vertex 676.551310757 1288.12231095298 0.0
vertex 677.135849321618 1288.1090340107 3.0
vertex 676.551310757 1288.12231095298 3.0
endloop
endfacet
facet normal 0.0227076870359969 -0.999742147230712 0.0
outer loop
vertex 677.720387886236 1288.12231095298 3.0
vertex 677.135849321618 1288.1090340107 0.0
vertex 677.720387886236 1288.12231095298 0.0
endloop
endfacet
facet normal 0.0227076870359969 -0.999742147230712 0.0
outer loop
vertex 677.135849321618 1288.1090340107 0.0
vertex 677.720387886236 1288.12231095298 3.0
vertex 677.135849321618 1288.1090340107 3.0
endloop
endfacet
facet normal 0.0680762252274852 -0.997680122864426 0.0
outer loop
vertex 678.303720807213 1288.16211439539 3.0
vertex 677.720387886236 1288.12231095298 0.0
vertex 678.303720807213 1288.16211439539 0.0
endloop
endfacet
facet normal 0.0680762252274852 -0.997680122864426 0.0
outer loop
vertex 677.720387886236 1288.12231095298 0.0
vertex 678.303720807213 1288.16211439539 3.0
vertex 677.720387886236 1288.12231095298 3.0
endloop
endfacet
facet normal 0.113304352378834 -0.993560327172947 0.0
outer loop
vertex 678.884644927613 1288.22836224109 3.0
vertex 678.303720807213 1288.16211439539 0.0
vertex 678.884644927613 1288.22836224109 0.0
endloop
endfacet
facet normal 0.113304352378834 -0.993560327172947 0.0
outer loop
vertex 678.303720807213 1288.16211439539 0.0
vertex 678.884644927613 1288.22836224109 3.0
vertex 678.303720807213 1288.16211439539 3.0
endloop
endfacet
facet normal 0.158298782935143 -0.987391257466488 0.0
outer loop
vertex 679.461962058791 1288.32091785016 3.0
vertex 678.884644927613 1288.22836224109 0.0
vertex 679.461962058791 1288.32091785016 0.0
endloop
endfacet
facet normal 0.158298782935143 -0.987391257466488 0.0
outer loop
vertex 678.884644927613 1288.22836224109 0.0
vertex 679.461962058791 1288.32091785016 3.0
vertex 678.884644927613 1288.22836224109 3.0
endloop
endfacet
facet normal 0.202966713354542 -0.979185637798092 0.0
outer loop
vertex 680.034481451715 1288.43959032148 3.0
vertex 679.461962058791 1288.32091785016 0.0
vertex 680.034481451715 1288.43959032148 0.0
endloop
endfacet
facet normal 0.202966713354542 -0.979185637798092 0.0
outer loop
vertex 679.461962058791 1288.32091785016 0.0
vertex 680.034481451715 1288.43959032148 3.0
vertex 679.461962058791 1288.32091785016 3.0
endloop
endfacet
facet normal 0.247216013521639 -0.96896039271916 0.0
outer loop
vertex 680.601022252962 1288.58413488639 3.0
vertex 680.034481451715 1288.43959032148 0.0
vertex 680.601022252962 1288.58413488639 0.0
endloop
endfacet
facet normal 0.247216013521639 -0.96896039271916 0.0
outer loop
vertex 680.034481451715 1288.43959032148 0.0
vertex 680.601022252962 1288.58413488639 3.0
vertex 680.034481451715 1288.43959032148 3.0
endloop
endfacet
facet normal 0.290955416765732 -0.956736612372851 0.0
outer loop
vertex 681.160415940288 1288.75425341361 3.0
vertex 680.601022252962 1288.58413488639 0.0
vertex 681.160415940288 1288.75425341361 0.0
endloop
endfacet
facet normal 0.290955416765732 -0.956736612372851 0.0
outer loop
vertex 680.601022252962 1288.58413488639 0.0
vertex 681.160415940288 1288.75425341361 3.0
vertex 680.601022252962 1288.58413488639 3.0
endloop
endfacet
facet normal 0.334094708110037 -0.942539508993055 0.0
outer loop
vertex 681.711508732773 1288.94959502411 3.0
vertex 681.160415940288 1288.75425341361 0.0
vertex 681.711508732773 1288.94959502411 0.0
endloop
endfacet
facet normal 0.334094708110037 -0.942539508993055 0.0
outer loop
vertex 681.160415940288 1288.75425341361 0.0
vertex 681.711508732773 1288.94959502411 3.0
vertex 681.160415940288 1288.75425341361 3.0
endloop
endfacet
facet normal 0.37654491034362 -0.926398364902656 0.0
outer loop
vertex 682.253163970562 1289.16975681484 3.0
vertex 681.711508732773 1288.94959502411 0.0
vertex 682.253163970562 1289.16975681484 0.0
endloop
endfacet
facet normal 0.37654491034362 -0.926398364902656 0.0
outer loop
vertex 681.711508732773 1288.94959502411 0.0
vertex 682.253163970562 1289.16975681484 3.0
vertex 681.711508732773 1288.94959502411 3.0
endloop
endfacet
facet normal 0.418218467535043 -0.908346472119885 0.0
outer loop
vertex 682.784264459282 1289.41428468974 3.0
vertex 682.253163970562 1289.16975681484 0.0
vertex 682.784264459282 1289.41428468974 0.0
endloop
endfacet
facet normal 0.418218467535043 -0.908346472119885 0.0
outer loop
vertex 682.253163970562 1289.16975681484 0.0
vertex 682.784264459282 1289.41428468974 3.0
vertex 682.253163970562 1289.16975681484 3.0
endloop
endfacet
facet normal 0.459029425634006 -0.888421063686648 0.0
outer loop
vertex 683.303714774329 1289.68267429632 3.0
vertex 682.784264459282 1289.41428468974 0.0
vertex 683.303714774329 1289.68267429632 0.0
endloop
endfacet
facet normal 0.459029425634006 -0.888421063686648 0.0
outer loop
vertex 682.784264459282 1289.41428468974 0.0
vertex 683.303714774329 1289.68267429632 3.0
vertex 682.784264459282 1289.41428468974 3.0
endloop
endfacet
facet normal 0.498893609743821 -0.866663236878535 0.0
outer loop
vertex 683.810443520232 1289.97437206594 3.0
vertex 683.303714774329 1289.68267429632 0.0
vertex 683.810443520232 1289.97437206594 0.0
endloop
endfacet
facet normal 0.498893609743821 -0.866663236878535 0.0
outer loop
vertex 683.303714774329 1289.68267429632 0.0
vertex 683.810443520232 1289.97437206594 3.0
vertex 683.303714774329 1289.68267429632 3.0
endloop
endfacet
facet normal 0.537728797744364 -0.8431178684362 0.0
outer loop
vertex 684.303405540473 1290.28877635554 3.0
vertex 683.810443520232 1289.97437206594 0.0
vertex 684.303405540473 1290.28877635554 0.0
endloop
endfacet
facet normal 0.537728797744364 -0.8431178684362 0.0
outer loop
vertex 683.810443520232 1289.97437206594 0.0
vertex 684.303405540473 1290.28877635554 3.0
vertex 683.810443520232 1289.97437206594 3.0
endloop
endfacet
facet normal 0.575454889877577 -0.81783352200554 0.0
outer loop
vertex 684.781584073183 1290.62523868862 3.0
vertex 684.303405540473 1290.28877635554 0.0
vertex 684.781584073183 1290.62523868862 0.0
endloop
endfacet
facet normal 0.575454889877577 -0.81783352200554 0.0
outer loop
vertex 684.303405540473 1290.28877635554 0.0
vertex 684.781584073183 1290.62523868862 3.0
vertex 684.303405540473 1290.28877635554 3.0
endloop
endfacet
facet normal 0.611994073959813 -0.790862347970916 0.0
outer loop
vertex 685.243992848259 1290.98306509269 3.0
vertex 684.781584073183 1290.62523868862 0.0
vertex 685.243992848259 1290.98306509269 0.0
endloop
endfacet
facet normal 0.611994073959813 -0.790862347970916 0.0
outer loop
vertex 684.781584073183 1290.62523868862 0.0
vertex 685.243992848259 1290.98306509269 3.0
vertex 684.781584073183 1290.62523868862 3.0
endloop
endfacet
facet normal 0.64727098586788 -0.762259975896428 0.0
outer loop
vertex 685.689678121618 1291.3615175307 3.0
vertex 685.243992848259 1290.98306509269 0.0
vertex 685.689678121618 1291.3615175307 0.0
endloop
endfacet
facet normal 0.64727098586788 -0.762259975896428 0.0
outer loop
vertex 685.243992848259 1290.98306509269 0.0
vertex 685.689678121618 1291.3615175307 3.0
vertex 685.243992848259 1290.98306509269 3.0
endloop
endfacet
facet normal 0.0 -1.0 0.0
outer loop
vertex 701.018852382596 1291.3615175307 3.0
vertex 685.689678121618 1291.3615175307 0.0
vertex 701.018852382596 1291.3615175307 0.0
endloop
endfacet
facet normal 0.0 -1.0 0.0
outer loop
vertex 685.689678121618 1291.3615175307 0.0
vertex 701.018852382596 1291.3615175307 3.0
vertex 685.689678121618 1291.3615175307 3.0
endloop
endfacet
facet normal 1.0 -0.0 0.0
outer loop
vertex 701.018852382596 1294.92667993387 0.0
vertex 701.018852382596 1291.3615175307 3.0
vertex 701.018852382596 1291.3615175307 0.0
endloop
endfacet
facet normal 1.0 -0.0 0.0
outer loop
vertex 701.018852382596 1291.3615175307 3.0
vertex 701.018852382596 1294.92667993387 0.0
vertex 701.018852382596 1294.92667993387 3.0
endloop
endfacet
facet normal 0.0 -1.0 0.0
outer loop
vertex 710.924843908974 1294.92667993387 3.0
vertex 701.018852382596 1294.92667993387 0.0
vertex 710.924843908974 1294.92667993387 0.0
endloop
endfacet
facet normal 0.0 -1.0 0.0
outer loop
vertex 701.018852382596 1294.92667993387 0.0
vertex 710.924843908974 1294.92667993387 3.0
vertex 701.018852382596 1294.92667993387 3.0
endloop
endfacet
facet normal -1.0 -0.0 -0.0
outer loop
vertex 710.924843908974 1294.92667993387 3.0
vertex 710.924843908974 1291.3615175307 0.0
vertex 710.924843908974 1291.3615175307 3.0
endloop
endfacet
facet normal -1.0 -0.0 -0.0
outer loop
vertex 710.924843908974 1291.3615175307 0.0
vertex 710.924843908974 1294.92667993387 3.0
vertex 710.924843908974 1294.92667993387 0.0
endloop
endfacet
facet normal 0.0 -1.0 0.0
outer loop
vertex 721.758009787588 1291.3615175307 3.0
vertex 710.924843908974 1291.3615175307 0.0
vertex 721.758009787588 1291.3615175307 0.0
endloop
endfacet
facet normal 0.0 -1.0 0.0
outer loop
vertex 710.924843908974 1291.3615175307 0.0
vertex 721.758009787588 1291.3615175307 3.0
vertex 710.924843908974 1291.3615175307 3.0
endloop
endfacet
facet normal 0.988396904840707 -0.151893247056315 0.0
outer loop
vertex 721.876123381101 1292.13010410391 0.0
vertex 721.758009787588 1291.3615175307 3.0
vertex 721.758009787588 1291.3615175307 0.0
endloop
endfacet
facet normal 0.988396904840707 -0.151893247056315 0.0
outer loop
vertex 721.758009787588 1291.3615175307 3.0
vertex 721.876123381101 1292.13010410391 0.0
vertex 721.876123381101 1292.13010410391 3.0
endloop
endfacet
facet normal 0.990594791801014 -0.136828207825386 0.0
outer loop
vertex 721.982522260797 1292.90039977434 0.0
vertex 721.876123381101 1292.13010410391 3.0
vertex 721.876123381101 1292.13010410391 0.0
endloop
endfacet
facet normal 0.990594791801014 -0.136828207825386 0.0
outer loop
vertex 721.876123381101 1292.13010410391 3.0
vertex 721.982522260797 1292.90039977434 0.0
vertex 721.982522260797 1292.90039977434 3.0
endloop
endfacet
facet normal 0.992563072643775 -0.121731453716563 0.0
outer loop
vertex 722.077181764894 1293.67222599815 0.0
vertex 721.982522260797 1292.90039977434 3.0
vertex 721.982522260797 1292.90039977434 0.0
endloop
endfacet
facet normal 0.992563072643775 -0.121731453716563 0.0
outer loop
vertex 721.982522260797 1292.90039977434 3.0
vertex 722.077181764894 1293.67222599815 0.0
vertex 722.077181764894 1293.67222599815 3.0
endloop
endfacet
facet normal 0.994301291148965 -0.106606483946813 0.0
outer loop
vertex 722.160079952633 1294.44540387675 0.0
vertex 722.077181764894 1293.67222599815 3.0
vertex 722.077181764894 1293.67222599815 0.0
endloop
endfacet
facet normal 0.994301291148965 -0.106606483946813 0.0
outer loop
vertex 722.077181764894 1293.67222599815 3.0
vertex 722.160079952633 1294.44540387675 0.0
vertex 722.160079952633 1294.44540387675 3.0
endloop
endfacet
facet normal 0.995809044421612 -0.0914568042745605 0.0
outer loop
vertex 722.231197609365 1295.21975419823 0.0
vertex 722.160079952633 1294.44540387675 3.0
vertex 722.160079952633 1294.44540387675 0.0
endloop
endfacet
facet normal 0.995809044421612 -0.0914568042745605 0.0
outer loop
vertex 722.160079952633 1294.44540387675 3.0
vertex 722.231197609365 1295.21975419823 0.0
vertex 722.231197609365 1295.21975419823 3.0
endloop
endfacet
facet normal 0.997085982985525 -0.0762859261842488 0.0
outer loop
vertex 722.290518251005 1295.99509747895 0.0
vertex 722.231197609365 1295.21975419823 3.0
vertex 722.231197609365 1295.21975419823 0.0
endloop
endfacet
facet normal 0.997085982985525 -0.0762859261842488 0.0
outer loop
vertex 722.231197609365 1295.21975419823 3.0
vertex 722.290518251005 1295.99509747895 0.0
vertex 722.290518251005 1295.99509747895 3.0
endloop
endfacet
facet normal 0.998131810863938 -0.0610973660764199 0.0
outer loop
vertex 722.338028127851 1296.7712540051 0.0
vertex 722.290518251005 1295.99509747895 3.0
vertex 722.290518251005 1295.99509747895 0.0
endloop
endfacet
facet normal 0.998131810863938 -0.0610973660764199 0.0
outer loop
vertex 722.290518251005 1295.99509747895 3.0
vertex 722.338028127851 1296.7712540051 0.0
vertex 722.338028127851 1296.7712540051 3.0
endloop
endfacet
facet normal 0.998946285648582 -0.0458946444468426 0.0
outer loop
vertex 722.373716227775 1297.54804387438 0.0
vertex 722.338028127851 1296.7712540051 3.0
vertex 722.338028127851 1296.7712540051 0.0
endloop
endfacet
facet normal 0.998946285648582 -0.0458946444468426 0.0
outer loop
vertex 722.338028127851 1296.7712540051 3.0
vertex 722.373716227775 1297.54804387438 0.0
vertex 722.373716227775 1297.54804387438 3.0
endloop
endfacet
facet normal 0.999529218555426 -0.0306812850770576 0.0
outer loop
vertex 722.39757427877 1298.32528703767 0.0
vertex 722.373716227775 1297.54804387438 3.0
vertex 722.373716227775 1297.54804387438 0.0
endloop
endfacet
facet normal 0.999529218555426 -0.0306812850770576 0.0
outer loop
vertex 722.373716227775 1297.54804387438 3.0
vertex 722.39757427877 1298.32528703767 0.0
vertex 722.39757427877 1298.32528703767 3.0
endloop
endfacet
facet normal 0.999880474468796 -0.0154608142106386 0.0
outer loop
vertex 722.409596750871 1299.10280334081 0.0
vertex 722.39757427877 1298.32528703767 3.0
vertex 722.39757427877 1298.32528703767 0.0
endloop
endfacet
facet normal 0.999880474468796 -0.0154608142106386 0.0
outer loop
vertex 722.39757427877 1298.32528703767 3.0
vertex 722.409596750871 1299.10280334081 0.0
vertex 722.409596750871 1299.10280334081 3.0
endloop
endfacet
facet normal 0.999999971972412 -0.000236759741735463 0.0
outer loop
vertex 722.409780857435 1299.88041256631 0.0
vertex 722.409596750871 1299.10280334081 3.0
vertex 722.409596750871 1299.10280334081 0.0
endloop
endfacet
facet normal 0.999999971972412 -0.000236759741735463 0.0
outer loop
vertex 722.409596750871 1299.10280334081 3.0
vertex 722.409780857435 1299.88041256631 0.0
vertex 722.409780857435 1299.88041256631 3.0
endloop
endfacet
facet normal 0.999887683368414 0.0149873496037633 0.0
outer loop
vertex 722.398126555791 1300.65793447516 0.0
vertex 722.409780857435 1299.88041256631 3.0
vertex 722.409780857435 1299.88041256631 0.0
endloop
endfacet
facet normal 0.999887683368414 0.0149873496037633 0.0
outer loop
vertex 722.409780857435 1299.88041256631 3.0
vertex 722.398126555791 1300.65793447516 0.0
vertex 722.398126555791 1300.65793447516 3.0
endloop
endfacet
facet normal 0.999543634683744 0.0302079850902054 0.0
outer loop
vertex 722.374636547242 1301.43518884857 0.0
vertex 722.398126555791 1300.65793447516 3.0
vertex 722.398126555791 1300.65793447516 0.0
endloop
endfacet
facet normal 0.999543634683744 0.0302079850902054 0.0
outer loop
vertex 722.398126555791 1300.65793447516 3.0
vertex 722.374636547242 1301.43518884857 0.0
vertex 722.374636547242 1301.43518884857 3.0
endloop
endfacet
facet normal 0.998967905664088 0.0454216187856169 0.0
outer loop
vertex 722.339316276447 1302.21199552977 0.0
vertex 722.374636547242 1301.43518884857 3.0
vertex 722.374636547242 1301.43518884857 0.0
endloop
endfacet
facet normal 0.998967905664088 0.0454216187856169 0.0
outer loop
vertex 722.374636547242 1301.43518884857 3.0
vertex 722.339316276447 1302.21199552977 0.0
vertex 722.339316276447 1302.21199552977 3.0
endloop
endfacet
facet normal 0.998160629755484 0.0606247243798827 0.0
outer loop
vertex 722.292173930155 1302.98817446575 0.0
vertex 722.339316276447 1302.21199552977 3.0
vertex 722.339316276447 1302.21199552977 0.0
endloop
endfacet
facet normal 0.998160629755484 0.0606247243798827 0.0
outer loop
vertex 722.339316276447 1302.21199552977 3.0
vertex 722.292173930155 1302.98817446575 0.0
vertex 722.292173930155 1302.98817446575 3.0
endloop
endfacet
facet normal 0.997121994073256 0.0758137780048787 0.0
outer loop
vertex 722.233220435306 1303.76354574903 0.0
vertex 722.292173930155 1302.98817446575 3.0
vertex 722.292173930155 1302.98817446575 0.0
endloop
endfacet
facet normal 0.997121994073256 0.0758137780048787 0.0
outer loop
vertex 722.292173930155 1302.98817446575 3.0
vertex 722.233220435306 1303.76354574903 0.0
vertex 722.233220435306 1303.76354574903 3.0
endloop
endfacet
facet normal 0.995852239358734 0.0909852590488983 0.0
outer loop
vertex 722.162469456501 1304.5379296593 0.0
vertex 722.233220435306 1303.76354574903 3.0
vertex 722.233220435306 1303.76354574903 0.0
endloop
endfacet
facet normal 0.995852239358734 0.0909852590488983 0.0
outer loop
vertex 722.233220435306 1303.76354574903 3.0
vertex 722.162469456501 1304.5379296593 0.0
vertex 722.162469456501 1304.5379296593 3.0
endloop
endfacet
facet normal 0.994351659923294 0.106135650974541 0.0
outer loop
vertex 722.079937392836 1305.31114670512 0.0
vertex 722.162469456501 1304.5379296593 3.0
vertex 722.162469456501 1304.5379296593 0.0
endloop
endfacet
facet normal 0.994351659923294 0.106135650974541 0.0
outer loop
vertex 722.162469456501 1304.5379296593 3.0
vertex 722.079937392836 1305.31114670512 0.0
vertex 722.079937392836 1305.31114670512 3.0
endloop
endfacet
facet normal 0.992620603580778 0.12126144212788 0.0
outer loop
vertex 721.985643374096 1306.08301766552 0.0
vertex 722.079937392836 1305.31114670512 3.0
vertex 722.079937392836 1305.31114670512 0.0
endloop
endfacet
facet normal 0.992620603580778 0.12126144212788 0.0
outer loop
vertex 722.079937392836 1305.31114670512 3.0
vertex 721.985643374096 1306.08301766552 0.0
vertex 721.985643374096 1306.08301766552 3.0
endloop
endfacet
facet normal 0.990659471565629 0.136359126564044 0.0
outer loop
vertex 721.879609256327 1306.85336363154 0.0
vertex 721.985643374096 1306.08301766552 3.0
vertex 721.985643374096 1306.08301766552 0.0
endloop
endfacet
facet normal 0.990659471565629 0.136359126564044 0.0
outer loop
vertex 721.985643374096 1306.08301766552 3.0
vertex 721.879609256327 1306.85336363154 0.0
vertex 721.879609256327 1306.85336363154 3.0
endloop
endfacet
facet normal 0.988402037002738 0.151859847388432 0.0
outer loop
vertex 721.758009787588 1307.64481156637 0.0
vertex 721.879609256327 1306.85336363154 3.0
vertex 721.879609256327 1306.85336363154 0.0
endloop
endfacet
facet normal 0.988402037002738 0.151859847388432 0.0
outer loop
vertex 721.879609256327 1306.85336363154 3.0
vertex 721.758009787588 1307.64481156637 0.0
vertex 721.758009787588 1307.64481156637 3.0
endloop
endfacet
facet normal 0.98604885199351 0.166456184872422 0.0
outer loop
vertex 721.632421748136 1308.38876675326 0.0
vertex 721.758009787588 1307.64481156637 3.0
vertex 721.758009787588 1307.64481156637 0.0
endloop
endfacet
facet normal 0.98604885199351 0.166456184872422 0.0
outer loop
vertex 721.758009787588 1307.64481156637 3.0
vertex 721.632421748136 1308.38876675326 0.0
vertex 721.632421748136 1308.38876675326 3.0
endloop
endfacet
facet normal 0.983400433114164 0.181448582664277 0.0
outer loop
vertex 721.491325652347 1309.15346802384 0.0
vertex 721.632421748136 1308.38876675326 3.0
vertex 721.632421748136 1308.38876675326 0.0
endloop
endfacet
facet normal 0.983400433114164 0.181448582664277 0.0
outer loop
vertex 721.632421748136 1308.38876675326 3.0
vertex 721.491325652347 1309.15346802384 0.0
vertex 721.491325652347 1309.15346802384 3.0
endloop
endfacet
facet normal 0.980524075669918 0.196398923193719 0.0
outer loop
vertex 721.338604033512 1309.91593261228 0.0
vertex 721.491325652347 1309.15346802384 3.0
vertex 721.491325652347 1309.15346802384 0.0
endloop
endfacet
facet normal 0.980524075669918 0.196398923193719 0.0
outer loop
vertex 721.491325652347 1309.15346802384 3.0
vertex 721.338604033512 1309.91593261228 0.0
vertex 721.338604033512 1309.91593261228 3.0
endloop
endfacet
facet normal 0.977420446360293 0.211303741180429 0.0
outer loop
vertex 721.174292290382 1310.67598378987 0.0
vertex 721.338604033512 1309.91593261228 3.0
vertex 721.338604033512 1309.91593261228 0.0
endloop
endfacet
facet normal 0.977420446360293 0.211303741180429 0.0
outer loop
vertex 721.338604033512 1309.91593261228 3.0
vertex 721.174292290382 1310.67598378987 0.0
vertex 721.174292290382 1310.67598378987 3.0
endloop
endfacet
facet normal 0.974090264563451 0.226159581894523 0.0
outer loop
vertex 720.998428508136 1311.4334453873 0.0
vertex 721.174292290382 1310.67598378987 3.0
vertex 721.174292290382 1310.67598378987 0.0
endloop
endfacet
facet normal 0.974090264563451 0.226159581894523 0.0
outer loop
vertex 721.174292290382 1310.67598378987 3.0
vertex 720.998428508136 1311.4334453873 0.0
vertex 720.998428508136 1311.4334453873 3.0
endloop
endfacet
facet normal 0.970534302169492 0.240963001957514 0.0
outer loop
vertex 720.811053449557 1312.18814183549 0.0
vertex 720.998428508136 1311.4334453873 3.0
vertex 720.998428508136 1311.4334453873 0.0
endloop
endfacet
facet normal 0.970534302169492 0.240963001957514 0.0
outer loop
vertex 720.998428508136 1311.4334453873 3.0
vertex 720.811053449557 1312.18814183549 0.0
vertex 720.811053449557 1312.18814183549 3.0
endloop
endfacet
facet normal 0.966753383401033 0.255710570142602 0.0
outer loop
vertex 720.612210545582 1312.93989820627 0.0
vertex 720.811053449557 1312.18814183549 3.0
vertex 720.811053449557 1312.18814183549 0.0
endloop
endfacet
facet normal 0.966753383401033 0.255710570142602 0.0
outer loop
vertex 720.811053449557 1312.18814183549 3.0
vertex 720.612210545582 1312.93989820627 0.0
vertex 720.612210545582 1312.93989820627 3.0
endloop
endfacet
facet normal 0.962748384622462 0.270398868168564 0.0
outer loop
vertex 720.401945885235 1313.68854025298 0.0
vertex 720.612210545582 1312.93989820627 3.0
vertex 720.612210545582 1312.93989820627 0.0
endloop
endfacet
facet normal 0.962748384622462 0.270398868168564 0.0
outer loop
vertex 720.612210545582 1312.93989820627 3.0
vertex 720.401945885235 1313.68854025298 0.0
vertex 720.401945885235 1313.68854025298 3.0
endloop
endfacet
facet normal 0.95852023413716 0.285024491490897 0.0
outer loop
vertex 720.180308204946 1314.43389445077 0.0
vertex 720.401945885235 1313.68854025298 3.0
vertex 720.401945885235 1313.68854025298 0.0
endloop
endfacet
facet normal 0.95852023413716 0.285024491490897 0.0
outer loop
vertex 720.401945885235 1313.68854025298 3.0
vertex 720.180308204946 1314.43389445077 0.0
vertex 720.180308204946 1314.43389445077 3.0
endloop
endfacet
facet normal 0.954069911971248 0.299584050094751 0.0
outer loop
vertex 719.947348877249 1315.17578803688 0.0
vertex 720.180308204946 1314.43389445077 3.0
vertex 720.180308204946 1314.43389445077 0.0
endloop
endfacet
facet normal 0.954069911971248 0.299584050094751 0.0
outer loop
vertex 720.180308204946 1314.43389445077 3.0
vertex 719.947348877249 1315.17578803688 0.0
vertex 719.947348877249 1315.17578803688 3.0
endloop
endfacet
facet normal 0.949398449647928 0.314074169275524 0.0
outer loop
vertex 719.703121898883 1315.9140490507 0.0
vertex 719.947348877249 1315.17578803688 3.0
vertex 719.947348877249 1315.17578803688 0.0
endloop
endfacet
facet normal 0.949398449647928 0.314074169275524 0.0
outer loop
vertex 719.947348877249 1315.17578803688 3.0
vertex 719.703121898883 1315.9140490507 0.0
vertex 719.703121898883 1315.9140490507 3.0
endloop
endfacet
facet normal 0.0 1.0 0.0
outer loop
vertex 710.924843908974 1315.9140490507 3.0
vertex 719.703121898883 1315.9140490507 0.0
vertex 710.924843908974 1315.9140490507 0.0
endloop
endfacet
facet normal 0.0 1.0 0.0
outer loop
vertex 719.703121898883 1315.9140490507 0.0
vertex 710.924843908974 1315.9140490507 3.0
vertex 719.703121898883 1315.9140490507 3.0
endloop
endfacet
facet normal -1.0 -0.0 -0.0
outer loop
vertex 710.924843908974 1315.9140490507 3.0
vertex 710.924843908974 1313.03510169387 0.0
vertex 710.924843908974 1313.03510169387 3.0
endloop
endfacet
facet normal -1.0 -0.0 -0.0
outer loop
vertex 710.924843908974 1313.03510169387 0.0
vertex 710.924843908974 1315.9140490507 3.0
vertex 710.924843908974 1315.9140490507 0.0
endloop
endfacet
facet normal 0.0 1.0 0.0
outer loop
vertex 701.067272251631 1313.03510169387 3.0
vertex 710.924843908974 1313.03510169387 0.0
vertex 701.067272251631 1313.03510169387 0.0
endloop
endfacet
facet normal 0.0 1.0 0.0
outer loop
vertex 710.924843908974 1313.03510169387 0.0
vertex 701.067272251631 1313.03510169387 3.0
vertex 710.924843908974 1313.03510169387 3.0
endloop
endfacet
facet normal 1.0 -0.0 0.0
outer loop
vertex 701.067272251631 1315.9140490507 0.0
vertex 701.067272251631 1313.03510169387 3.0
vertex 701.067272251631 1313.03510169387 0.0
endloop
endfacet
facet normal 1.0 -0.0 0.0
outer loop
vertex 701.067272251631 1313.03510169387 3.0
vertex 701.067272251631 1315.9140490507 0.0
vertex 701.067272251631 1315.9140490507 3.0
endloop
endfacet
facet normal 0.0 1.0 0.0
outer loop
vertex 652.677012251806 1315.9140490507 3.0
vertex 701.067272251631 1315.9140490507 0.0
vertex 652.677012251806 1315.9140490507 0.0
endloop
endfacet
facet normal 0.0 1.0 0.0
outer loop
vertex 701.067272251631 1315.9140490507 0.0
vertex 652.677012251806 1315.9140490507 3.0
vertex 701.067272251631 1315.9140490507 3.0
endloop
endfacet
facet normal -1.0 -0.0 -0.0
outer loop
vertex 652.677012251806 1315.9140490507 3.0
vertex 652.677012251806 1313.03510169387 0.0
vertex 652.677012251806 1313.03510169387 3.0
endloop
endfacet
facet normal -1.0 -0.0 -0.0
outer loop
vertex 652.677012251806 1313.03510169387 0.0
vertex 652.677012251806 1315.9140490507 3.0
vertex 652.677012251806 1315.9140490507 0.0
endloop
endfacet
facet normal 0.0 1.0 0.0
outer loop
vertex 642.575356548974 1313.03510169387 3.0
vertex 652.677012251806 1313.03510169387 0.0
vertex 642.575356548974 1313.03510169387 0.0
endloop
endfacet
facet normal 0.0 1.0 0.0
outer loop
vertex 652.677012251806 1313.03510169387 0.0
vertex 642.575356548974 1313.03510169387 3.0
vertex 652.677012251806 1313.03510169387 3.0
endloop
endfacet
facet normal 1.0 -0.0 0.0
outer loop
vertex 642.575356548974 1315.9140490507 0.0
vertex 642.575356548974 1313.03510169387 3.0
vertex 642.575356548974 1313.03510169387 0.0
endloop
endfacet
facet normal 1.0 -0.0 0.0
outer loop
vertex 642.575356548974 1313.03510169387 3.0
vertex 642.575356548974 1315.9140490507 0.0
vertex 642.575356548974 1315.9140490507 3.0
endloop
endfacet
facet normal 0.0 1.0 0.0
outer loop
vertex 633.831256753284 1315.9140490507 3.0
vertex 642.575356548974 1315.9140490507 0.0
vertex 633.831256753284 1315.9140490507 0.0
endloop
endfacet
facet normal 0.0 1.0 0.0
outer loop
vertex 642.575356548974 1315.9140490507 0.0
vertex 633.831256753284 1315.9140490507 3.0
vertex 642.575356548974 1315.9140490507 3.0
endloop
endfacet
facet normal -0.935372833398735 0.353663204955821 0.0
outer loop
vertex 633.831256753284 1315.9140490507 3.0
vertex 633.554940938999 1315.18324555602 0.0
vertex 633.554940938999 1315.18324555602 3.0
endloop
endfacet
facet normal -0.935372833398735 0.353663204955821 0.0
outer loop
vertex 633.554940938999 1315.18324555602 0.0
vertex 633.831256753284 1315.9140490507 3.0
vertex 633.831256753284 1315.9140490507 0.0
endloop
endfacet
facet normal -0.942135855949737 0.335231306613591 0.0
outer loop
vertex 633.554940938999 1315.18324555602 3.0
vertex 633.29302590186 1314.44715813569 0.0
vertex 633.29302590186 1314.44715813569 3.0
endloop
endfacet
facet normal -0.942135855949737 0.335231306613591 0.0
outer loop
vertex 633.29302590186 1314.44715813569 0.0
vertex 633.554940938999 1315.18324555602 3.0
vertex 633.554940938999 1315.18324555602 0.0
endloop
endfacet
facet normal -0.948535710235963 0.31667018553561 0.0
outer loop
vertex 633.29302590186 1314.44715813569 3.0
vertex 633.045612603135 1313.70607053178 0.0
vertex 633.045612603135 1313.70607053178 3.0
endloop
endfacet
facet normal -0.948535710235963 0.31667018553561 0.0
outer loop
vertex 633.045612603135 1313.70607053178 0.0
vertex 633.29302590186 1314.44715813569 3.0
vertex 633.29302590186 1314.44715813569 0.0
endloop
endfacet
facet normal -0.954569929283641 0.297986996540831 0.0
outer loop
vertex 633.045612603135 1313.70607053178 3.0
vertex 632.812796414055 1312.96026841381 0.0
vertex 632.812796414055 1312.96026841381 3.0
endloop
endfacet
facet normal -0.954569929283641 0.297986996540831 0.0
outer loop
vertex 632.812796414055 1312.96026841381 0.0
vertex 633.045612603135 1313.70607053178 3.0
vertex 633.045612603135 1313.70607053178 0.0
endloop
endfacet
facet normal -0.960236187062352 0.279188941500117 0.0
outer loop
vertex 632.812796414055 1312.96026841381 3.0
vertex 632.594667079059 1312.21003926864 0.0
vertex 632.594667079059 1312.21003926864 3.0
endloop
endfacet
facet normal -0.960236187062352 0.279188941500117 0.0
outer loop
vertex 632.594667079059 1312.21003926864 0.0
vertex 632.812796414055 1312.96026841381 3.0
vertex 632.812796414055 1312.96026841381 0.0
endloop
endfacet
facet normal -0.965532299380966 0.260283266561846 0.0
outer loop
vertex 632.594667079059 1312.21003926864 3.0
vertex 632.426284667588 1311.58541725943 0.0
vertex 632.426284667588 1311.58541725943 3.0
endloop
endfacet
facet normal -0.965532299380966 0.260283266561846 0.0
outer loop
vertex 632.426284667588 1311.58541725943 0.0
vertex 632.594667079059 1312.21003926864 3.0
vertex 632.594667079059 1312.21003926864 0.0
endloop
endfacet
facet normal -0.965532299380587 0.260283266563253 0.0
outer loop
vertex 632.426284667588 1311.58541725943 3.0
vertex 632.39130868119 1311.4556722896 0.0
vertex 632.39130868119 1311.4556722896 3.0
endloop
endfacet
facet normal -0.965532299380587 0.260283266563253 0.0
outer loop
vertex 632.39130868119 1311.4556722896 0.0
vertex 632.426284667588 1311.58541725943 3.0
vertex 632.426284667588 1311.58541725943 0.0
endloop
endfacet
facet normal -0.970456224728777 0.241277259361861 0.0
outer loop
vertex 632.39130868119 1311.4556722896 3.0
vertex 632.202799609693 1310.69745826505 0.0
vertex 632.202799609693 1310.69745826505 3.0
endloop
endfacet
facet normal -0.970456224728777 0.241277259361861 0.0
outer loop
vertex 632.202799609693 1310.69745826505 0.0
vertex 632.39130868119 1311.4556722896 3.0
vertex 632.39130868119 1311.4556722896 0.0
endloop
endfacet
facet normal -0.975006065064262 0.222178246207643 0.0
outer loop
vertex 632.202799609693 1310.69745826505 3.0
vertex 632.029212529791 1309.9356894663 0.0
vertex 632.029212529791 1309.9356894663 3.0
endloop
endfacet
facet normal -0.975006065064262 0.222178246207643 0.0
outer loop
vertex 632.029212529791 1309.9356894663 0.0
vertex 632.202799609693 1310.69745826505 3.0
vertex 632.202799609693 1310.69745826505 0.0
endloop
endfacet
facet normal -0.979180066545017 0.20299358926059 0.0
outer loop
vertex 632.029212529791 1309.9356894663 3.0
vertex 631.870614354676 1309.17065953492 0.0
vertex 631.870614354676 1309.17065953492 3.0
endloop
endfacet
facet normal -0.979180066545017 0.20299358926059 0.0
outer loop
vertex 631.870614354676 1309.17065953492 0.0
vertex 632.029212529791 1309.9356894663 3.0
vertex 632.029212529791 1309.9356894663 0.0
endloop
endfacet
facet normal -0.982976620204814 0.183730683694154 0.0
outer loop
vertex 631.870614354676 1309.17065953492 3.0
vertex 631.72706621972 1308.40266336956 0.0
vertex 631.72706621972 1308.40266336956 3.0
endloop
endfacet
facet normal -0.982976620204814 0.183730683694154 0.0
outer loop
vertex 631.72706621972 1308.40266336956 0.0
vertex 631.870614354676 1309.17065953492 3.0
vertex 631.870614354676 1309.17065953492 0.0
endloop
endfacet
facet normal -0.986394262573113 0.164396954846629 0.0
outer loop
vertex 631.72706621972 1308.40266336956 3.0
vertex 631.598623458902 1307.63199701228 0.0
vertex 631.598623458902 1307.63199701228 3.0
endloop
endfacet
facet normal -0.986394262573113 0.164396954846629 0.0
outer loop
vertex 631.598623458902 1307.63199701228 0.0
vertex 631.72706621972 1308.40266336956 3.0
vertex 631.72706621972 1308.40266336956 0.0
endloop
endfacet
facet normal -0.989431676240302 0.144999855352708 0.0
outer loop
vertex 631.598623458902 1307.63199701228 3.0
vertex 631.485335583484 1306.85895753441 0.0
vertex 631.485335583484 1306.85895753441 3.0
endloop
endfacet
facet normal -0.989431676240302 0.144999855352708 0.0
outer loop
vertex 631.485335583484 1306.85895753441 0.0
vertex 631.598623458902 1307.63199701228 3.0
vertex 631.598623458902 1307.63199701228 0.0
endloop
endfacet
facet normal -0.992087690363994 0.125546862279535 0.0
outer loop
vertex 631.485335583484 1306.85895753441 3.0
vertex 631.387246262922 1306.08384292208 0.0
vertex 631.387246262922 1306.08384292208 3.0
endloop
endfacet
facet normal -0.992087690363994 0.125546862279535 0.0
outer loop
vertex 631.387246262922 1306.08384292208 0.0
vertex 631.485335583484 1306.85895753441 3.0
vertex 631.485335583484 1306.85895753441 0.0
endloop
endfacet
facet normal -0.994361281121662 0.106045474236703 0.0
outer loop
vertex 631.387246262922 1306.08384292208 3.0
vertex 631.304393308037 1305.30695196131 0.0
vertex 631.304393308037 1305.30695196131 3.0
endloop
endfacet
facet normal -0.994361281121662 0.106045474236703 0.0
outer loop
vertex 631.304393308037 1305.30695196131 0.0
vertex 631.387246262922 1306.08384292208 3.0
vertex 631.387246262922 1306.08384292208 0.0
endloop
endfacet
facet normal -0.996251572104698 0.0865032084891577 0.0
outer loop
vertex 631.304393308037 1305.30695196131 3.0
vertex 631.236808656433 1304.52858412287 0.0
vertex 631.236808656433 1304.52858412287 3.0
endloop
endfacet
facet normal -0.996251572104698 0.0865032084891577 0.0
outer loop
vertex 631.236808656433 1304.52858412287 0.0
vertex 631.304393308037 1305.30695196131 3.0
vertex 631.304393308037 1305.30695196131 0.0
endloop
endfacet
facet normal -0.997757834656231 0.066927598060216 0.0
outer loop
vertex 631.236808656433 1304.52858412287 3.0
vertex 631.184518360194 1303.74903944681 0.0
vertex 631.184518360194 1303.74903944681 3.0
endloop
endfacet
facet normal -0.997757834656231 0.066927598060216 0.0
outer loop
vertex 631.184518360194 1303.74903944681 0.0
vertex 631.236808656433 1304.52858412287 3.0
vertex 631.236808656433 1304.52858412287 0.0
endloop
endfacet
facet normal -0.998879488152208 0.0473261888258738 0.0
outer loop
vertex 631.184518360194 1303.74903944681 3.0
vertex 631.147542575834 1302.96861842683 0.0
vertex 631.147542575834 1302.96861842683 3.0
endloop
endfacet
facet normal -0.998879488152208 0.0473261888258738 0.0
outer loop
vertex 631.147542575834 1302.96861842683 0.0
vertex 631.184518360194 1303.74903944681 3.0
vertex 631.184518360194 1303.74903944681 0.0
endloop
endfacet
facet normal -0.999616100225099 0.0277065366071759 0.0
outer loop
vertex 631.147542575834 1302.96861842683 3.0
vertex 631.125895556533 1302.18762189443 0.0
vertex 631.125895556533 1302.18762189443 3.0
endloop
endfacet
facet normal -0.999616100225099 0.0277065366071759 0.0
outer loop
vertex 631.125895556533 1302.18762189443 0.0
vertex 631.147542575834 1302.96861842683 3.0
vertex 631.147542575834 1302.96861842683 0.0
endloop
endfacet
facet normal -0.999967386930599 0.00807620425636356 0.0
outer loop
vertex 631.125895556533 1302.18762189443 3.0
vertex 631.119585646641 1301.40635090298 0.0
vertex 631.119585646641 1301.40635090298 3.0
endloop
endfacet
facet normal -0.999967386930599 0.00807620425636356 0.0
outer loop
vertex 631.119585646641 1301.40635090298 0.0
vertex 631.125895556533 1302.18762189443 3.0
vertex 631.125895556533 1302.18762189443 0.0
endloop
endfacet
facet normal -0.999933212857022 -0.011557241255272 -0.0
outer loop
vertex 631.119585646641 1301.40635090298 3.0
vertex 631.128615278459 1300.6251066116 0.0
vertex 631.128615278459 1300.6251066116 3.0
endloop
endfacet
facet normal -0.999933212857022 -0.011557241255272 -0.0
outer loop
vertex 631.128615278459 1300.6251066116 0.0
vertex 631.119585646641 1301.40635090298 3.0
vertex 631.119585646641 1301.40635090298 0.0
endloop
endfacet
facet normal -0.999513591177582 -0.0311862317584856 -0.0
outer loop
vertex 631.128615278459 1300.6251066116 3.0
vertex 631.152980971305 1299.84419016917 0.0
vertex 631.152980971305 1299.84419016917 3.0
endloop
endfacet
facet normal -0.999513591177582 -0.0311862317584856 -0.0
outer loop
vertex 631.152980971305 1299.84419016917 0.0
vertex 631.128615278459 1300.6251066116 3.0
vertex 631.128615278459 1300.6251066116 0.0
endloop
endfacet
facet normal -0.998708683645209 -0.0508032008012679 -0.0
outer loop
vertex 631.152980971305 1299.84419016917 3.0
vertex 631.192673332854 1299.06390259814 0.0
vertex 631.192673332854 1299.06390259814 3.0
endloop
endfacet
facet normal -0.998708683645209 -0.0508032008012679 -0.0
outer loop
vertex 631.192673332854 1299.06390259814 0.0
vertex 631.152980971305 1299.84419016917 3.0
vertex 631.152980971305 1299.84419016917 0.0
endloop
endfacet
facet normal -0.997518800530386 -0.0704005865630357 -0.0
outer loop
vertex 631.192673332854 1299.06390259814 3.0
vertex 631.247677062758 1298.2845446786 0.0
vertex 631.247677062758 1298.2845446786 3.0
endloop
endfacet
facet normal -0.997518800530386 -0.0704005865630357 -0.0
outer loop
vertex 631.247677062758 1298.2845446786 0.0
vertex 631.192673332854 1299.06390259814 3.0
vertex 631.192673332854 1299.06390259814 0.0
endloop
endfacet
facet normal -0.995944400501257 -0.0899708347754481 -0.0
outer loop
vertex 631.247677062758 1298.2845446786 3.0
vertex 631.317970958545 1297.50641683225 0.0
vertex 631.317970958545 1297.50641683225 3.0
endloop
endfacet
facet normal -0.995944400501257 -0.0899708347754481 -0.0
outer loop
vertex 631.317970958545 1297.50641683225 0.0
vertex 631.247677062758 1298.2845446786 3.0
vertex 631.247677062758 1298.2845446786 0.0
endloop
endfacet
facet normal -0.993986090447138 -0.109506401628461 -0.0
outer loop
vertex 631.317970958545 1297.50641683225 3.0
vertex 631.403527923791 1296.72981900663 0.0
vertex 631.403527923791 1296.72981900663 3.0
endloop
endfacet
facet normal -0.993986090447138 -0.109506401628461 -0.0
outer loop
vertex 631.403527923791 1296.72981900663 0.0
vertex 631.317970958545 1297.50641683225 3.0
vertex 631.317970958545 1297.50641683225 0.0
endloop
endfacet
facet normal -0.991644625244375 -0.128999756681723 -0.0
outer loop
vertex 631.403527923791 1296.72981900663 3.0
vertex 631.504314978567 1295.95505055952 0.0
vertex 631.504314978567 1295.95505055952 3.0
endloop
endfacet
facet normal -0.991644625244375 -0.128999756681723 -0.0
outer loop
vertex 631.504314978567 1295.95505055952 0.0
vertex 631.403527923791 1296.72981900663 3.0
vertex 631.403527923791 1296.72981900663 0.0
endloop
endfacet
facet normal -0.988920907465299 -0.14844338576713 -0.0
outer loop
vertex 631.504314978567 1295.95505055952 3.0
vertex 631.620293272149 1295.18241014349 0.0
vertex 631.620293272149 1295.18241014349 3.0
endloop
endfacet
facet normal -0.988920907465299 -0.14844338576713 -0.0
outer loop
vertex 631.620293272149 1295.18241014349 0.0
vertex 631.504314978567 1295.95505055952 3.0
vertex 631.504314978567 1295.95505055952 0.0
endloop
endfacet
facet normal -0.985815987030655 -0.167829793882896 -0.0
outer loop
vertex 631.620293272149 1295.18241014349 3.0
vertex 631.751418097995 1294.41219559085 0.0
vertex 631.751418097995 1294.41219559085 3.0
endloop
endfacet
facet normal -0.985815987030655 -0.167829793882896 -0.0
outer loop
vertex 631.751418097995 1294.41219559085 0.0
vertex 631.620293272149 1295.18241014349 3.0
vertex 631.620293272149 1295.18241014349 0.0
endloop
endfacet
facet normal -0.982331060804557 -0.18715150808528 -0.0
outer loop
vertex 631.751418097995 1294.41219559085 3.0
vertex 631.897638910979 1293.64470379877 0.0
vertex 631.897638910979 1293.64470379877 3.0
endloop
endfacet
facet normal -0.982331060804557 -0.18715150808528 -0.0
outer loop
vertex 631.897638910979 1293.64470379877 0.0
vertex 631.751418097995 1294.41219559085 3.0
vertex 631.751418097995 1294.41219559085 0.0
endloop
endfacet
facet normal -0.978467472132913 -0.206401080369815 -0.0
outer loop
vertex 631.897638910979 1293.64470379877 3.0
vertex 632.058899346875 1292.88023061489 0.0
vertex 632.058899346875 1292.88023061489 3.0
endloop
endfacet
facet normal -0.978467472132913 -0.206401080369815 -0.0
outer loop
vertex 632.058899346875 1292.88023061489 0.0
vertex 631.897638910979 1293.64470379877 3.0
vertex 631.897638910979 1293.64470379877 0.0
endloop
endfacet
facet normal -0.974226710326602 -0.225571090537344 -0.0
outer loop
vertex 632.058899346875 1292.88023061489 3.0
vertex 632.235137244082 1292.11907072325 0.0
vertex 632.235137244082 1292.11907072325 3.0
endloop
endfacet
facet normal -0.974226710326602 -0.225571090537344 -0.0
outer loop
vertex 632.235137244082 1292.11907072325 0.0
vertex 632.058899346875 1292.88023061489 3.0
vertex 632.058899346875 1292.88023061489 0.0
endloop
endfacet
facet normal -0.969610410085886 -0.244654149061652 -0.0
outer loop
vertex 632.235137244082 1292.11907072325 3.0
vertex 632.426284667588 1291.3615175307 0.0
vertex 632.426284667588 1291.3615175307 3.0
endloop
endfacet
facet normal -0.969610410085886 -0.244654149061652 -0.0
outer loop
vertex 632.426284667588 1291.3615175307 0.0
vertex 632.235137244082 1292.11907072325 3.0
vertex 632.235137244082 1292.11907072325 0.0
endloop
endfacet
facet normal 0.0 -1.0 0.0
outer loop
vertex 642.575356548974 1291.3615175307 3.0
vertex 632.426284667588 1291.3615175307 0.0
vertex 642.575356548974 1291.3615175307 0.0
endloop
endfacet
facet normal 0.0 -1.0 0.0
outer loop
vertex 632.426284667588 1291.3615175307 0.0
vertex 642.575356548974 1291.3615175307 3.0
vertex 632.426284667588 1291.3615175307 3.0
endloop
endfacet
facet normal 1.0 -0.0 0.0
outer loop
vertex 642.575356548974 1294.92667993387 0.0
vertex 642.575356548974 1291.3615175307 3.0
vertex 642.575356548974 1291.3615175307 0.0
endloop
endfacet
facet normal 1.0 -0.0 0.0
outer loop
vertex 642.575356548974 1291.3615175307 3.0
vertex 642.575356548974 1294.92667993387 0.0
vertex 642.575356548974 1294.92667993387 3.0
endloop
endfacet
endsolid rov
