solid rov
facet normal 0.0 0.0 -1.0
outer loop
vertex 618.444268531206 1569.58348588875 0.0
vertex 608.429865011206 1566.56766956875 0.0
vertex 608.429865011206 1569.58348588875 0.0
endloop
endfacet
facet normal 0.0 0.0 -1.0
outer loop
vertex 630.895938370331 1560.44058218655 0.0
vertex 627.974788930331 1551.00770378654 0.0
vertex 627.974788930331 1560.44058218655 0.0
endloop
endfacet
facet normal 0.0 0.0 -1.0
outer loop
vertex 627.974788930331 1551.00770378654 0.0
vertex 630.895938370331 1560.44058218655 0.0
vertex 630.895938370331 1551.00770378654 0.0
endloop
endfacet
facet normal 0.0 0.0 -1.0
outer loop
vertex 608.429865011206 1566.56766956875 0.0
vertex 598.993199810331 1542.44790092875 0.0
vertex 598.993199810331 1566.56766956875 0.0
endloop
endfacet
facet normal 0.0 0.0 -1.0
outer loop
vertex 598.993199810331 1542.44790092875 0.0
vertex 608.429865011206 1566.56766956875 0.0
vertex 627.974788930331 1542.44790092875 0.0
endloop
endfacet
facet normal 0.0 0.0 -1.0
outer loop
vertex 627.974788930331 1542.44790092875 0.0
vertex 608.429865011206 1566.56766956875 0.0
vertex 618.444268531206 1566.56766956875 0.0
endloop
endfacet
facet normal 0.0 0.0 -1.0
outer loop
vertex 618.444268531206 1566.56766956875 0.0
vertex 608.429865011206 1566.56766956875 0.0
vertex 618.444268531206 1569.58348588875 0.0
endloop
endfacet
facet normal 0.0 0.0 -1.0
outer loop
vertex 627.974788930331 1542.44790092875 0.0
vertex 618.444268531206 1566.56766956875 0.0
vertex 627.974788930331 1566.56766956875 0.0
endloop
endfacet
facet normal 0.0 0.0 -1.0
outer loop
vertex 627.974788930331 1542.44790092875 0.0
vertex 627.974788930331 1566.56766956875 0.0
vertex 627.974788930331 1560.44058218655 0.0
endloop
endfacet
facet normal 0.0 0.0 -1.0
outer loop
vertex 627.974788930331 1542.44790092875 0.0
vertex 627.974788930331 1560.44058218655 0.0
vertex 627.974788930331 1551.00770378654 0.0
endloop
endfacet
facet normal 0.0 0.0 1.0
outer loop
vertex 630.895938370331 1551.00770378654 3.0
vertex 627.974788930331 1560.44058218655 3.0
vertex 627.974788930331 1551.00770378654 3.0
endloop
endfacet
facet normal 0.0 0.0 1.0
outer loop
vertex 627.974788930331 1560.44058218655 3.0
vertex 630.895938370331 1551.00770378654 3.0
vertex 630.895938370331 1560.44058218655 3.0
endloop
endfacet
facet normal 0.0 0.0 1.0
outer loop
vertex 627.974788930331 1542.44790092875 3.0
vertex 598.993199810331 1566.56766956875 3.0
vertex 598.993199810331 1542.44790092875 3.0
endloop
endfacet
facet normal 0.0 0.0 1.0
outer loop
vertex 598.993199810331 1566.56766956875 3.0
vertex 627.974788930331 1542.44790092875 3.0
vertex 608.429865011206 1566.56766956875 3.0
endloop
endfacet
facet normal 0.0 0.0 1.0
outer loop
vertex 608.429865011206 1566.56766956875 3.0
vertex 627.974788930331 1542.44790092875 3.0
vertex 608.429865011206 1569.58348588875 3.0
endloop
endfacet
facet normal 0.0 0.0 1.0
outer loop
vertex 608.429865011206 1569.58348588875 3.0
vertex 627.974788930331 1542.44790092875 3.0
vertex 618.444268531206 1566.56766956875 3.0
endloop
endfacet
facet normal 0.0 0.0 1.0
outer loop
vertex 618.444268531206 1566.56766956875 3.0
vertex 627.974788930331 1542.44790092875 3.0
vertex 627.974788930331 1566.56766956875 3.0
endloop
endfacet
facet normal 0.0 0.0 1.0
outer loop
vertex 627.974788930331 1566.56766956875 3.0
vertex 627.974788930331 1542.44790092875 3.0
vertex 627.974788930331 1551.00770378654 3.0
endloop
endfacet
facet normal 0.0 0.0 1.0
outer loop
vertex 627.974788930331 1566.56766956875 3.0
vertex 627.974788930331 1551.00770378654 3.0
vertex 627.974788930331 1560.44058218655 3.0
endloop
endfacet
facet normal 0.0 0.0 1.0
outer loop
vertex 618.444268531206 1569.58348588875 3.0
vertex 608.429865011206 1569.58348588875 3.0
vertex 618.444268531206 1566.56766956875 3.0
endloop
endfacet
facet normal 0.0 1.0 0.0
outer loop
vertex 598.993199810331 1566.56766956875 3.0
vertex 608.429865011206 1566.56766956875 0.0
vertex 598.993199810331 1566.56766956875 0.0
endloop
endfacet
facet normal 0.0 1.0 0.0
outer loop
vertex 608.429865011206 1566.56766956875 0.0
vertex 598.993199810331 1566.56766956875 3.0
vertex 608.429865011206 1566.56766956875 3.0
endloop
endfacet
facet normal -1.0 -0.0 -0.0
outer loop
vertex 598.993199810331 1566.56766956875 3.0
vertex 598.993199810331 1542.44790092875 0.0
vertex 598.993199810331 1542.44790092875 3.0
endloop
endfacet
facet normal -1.0 -0.0 -0.0
outer loop
vertex 598.993199810331 1542.44790092875 0.0
vertex 598.993199810331 1566.56766956875 3.0
vertex 598.993199810331 1566.56766956875 0.0
endloop
endfacet
facet normal 0.0 -1.0 0.0
outer loop
vertex 627.974788930331 1542.44790092875 3.0
vertex 598.993199810331 1542.44790092875 0.0
vertex 627.974788930331 1542.44790092875 0.0
endloop
endfacet
facet normal 0.0 -1.0 0.0
outer loop
vertex 598.993199810331 1542.44790092875 0.0
vertex 627.974788930331 1542.44790092875 3.0
vertex 598.993199810331 1542.44790092875 3.0
endloop
endfacet
facet normal 1.0 -0.0 0.0
outer loop
vertex 627.974788930331 1551.00770378654 0.0
vertex 627.974788930331 1542.44790092875 3.0
vertex 627.974788930331 1542.44790092875 0.0
endloop
endfacet
facet normal 1.0 -0.0 0.0
outer loop
vertex 627.974788930331 1542.44790092875 3.0
vertex 627.974788930331 1551.00770378654 0.0
vertex 627.974788930331 1551.00770378654 3.0
endloop
endfacet
facet normal 0.0 -1.0 0.0
outer loop
vertex 630.895938370331 1551.00770378654 3.0
vertex 627.974788930331 1551.00770378654 0.0
vertex 630.895938370331 1551.00770378654 0.0
endloop
endfacet
facet normal 0.0 -1.0 0.0
outer loop
vertex 627.974788930331 1551.00770378654 0.0
vertex 630.895938370331 1551.00770378654 3.0
vertex 627.974788930331 1551.00770378654 3.0
endloop
endfacet
facet normal 1.0 -0.0 0.0
outer loop
vertex 630.895938370331 1560.44058218655 0.0
vertex 630.895938370331 1551.00770378654 3.0
vertex 630.895938370331 1551.00770378654 0.0
endloop
endfacet
facet normal 1.0 -0.0 0.0
outer loop
vertex 630.895938370331 1551.00770378654 3.0
vertex 630.895938370331 1560.44058218655 0.0
vertex 630.895938370331 1560.44058218655 3.0
endloop
endfacet
facet normal 0.0 1.0 0.0
outer loop
vertex 627.974788930331 1560.44058218655 3.0
vertex 630.895938370331 1560.44058218655 0.0
vertex 627.974788930331 1560.44058218655 0.0
endloop
endfacet
facet normal 0.0 1.0 0.0
outer loop
vertex 630.895938370331 1560.44058218655 0.0
vertex 627.974788930331 1560.44058218655 3.0
vertex 630.895938370331 1560.44058218655 3.0
endloop
endfacet
facet normal 1.0 -0.0 0.0
outer loop
vertex 627.974788930331 1566.56766956875 0.0
vertex 627.974788930331 1560.44058218655 3.0
vertex 627.974788930331 1560.44058218655 0.0
endloop
endfacet
facet normal 1.0 -0.0 0.0
outer loop
vertex 627.974788930331 1560.44058218655 3.0
vertex 627.974788930331 1566.56766956875 0.0
vertex 627.974788930331 1566.56766956875 3.0
endloop
endfacet
facet normal 0.0 1.0 0.0
outer loop
vertex 618.444268531206 1566.56766956875 3.0
vertex 627.974788930331 1566.56766956875 0.0
vertex 618.444268531206 1566.56766956875 0.0
endloop
endfacet
facet normal 0.0 1.0 0.0
outer loop
vertex 627.974788930331 1566.56766956875 0.0
vertex 618.444268531206 1566.56766956875 3.0
vertex 627.974788930331 1566.56766956875 3.0
endloop
endfacet
facet normal 1.0 -0.0 0.0
outer loop
vertex 618.444268531206 1569.58348588875 0.0
vertex 618.444268531206 1566.56766956875 3.0
vertex 618.444268531206 1566.56766956875 0.0
endloop
endfacet
facet normal 1.0 -0.0 0.0
outer loop
vertex 618.444268531206 1566.56766956875 3.0
vertex 618.444268531206 1569.58348588875 0.0
vertex 618.444268531206 1569.58348588875 3.0
endloop
endfacet
facet normal 0.0 1.0 0.0
outer loop
vertex 608.429865011206 1569.58348588875 3.0
vertex 618.444268531206 1569.58348588875 0.0
vertex 608.429865011206 1569.58348588875 0.0
endloop
endfacet
facet normal 0.0 1.0 0.0
outer loop
vertex 618.444268531206 1569.58348588875 0.0
vertex 608.429865011206 1569.58348588875 3.0
vertex 618.444268531206 1569.58348588875 3.0
endloop
endfacet
facet normal -1.0 -0.0 -0.0
outer loop
vertex 608.429865011206 1569.58348588875 3.0
vertex 608.429865011206 1566.56766956875 0.0
vertex 608.429865011206 1566.56766956875 3.0
endloop
endfacet
facet normal -1.0 -0.0 -0.0
outer loop
vertex 608.429865011206 1566.56766956875 0.0
vertex 608.429865011206 1569.58348588875 3.0
vertex 608.429865011206 1569.58348588875 0.0
endloop
endfacet
endsolid rov
