solid rov
facet normal 0.0 0.0 -1.0
outer loop
vertex 545.105886605024 1032.50195720676 0.0
vertex 545.259040527053 1061.29307145626 0.0
vertex 547.864749965024 1032.50195720676 0.0
endloop
endfacet
facet normal 0.0 0.0 -1.0
outer loop
vertex 545.259040527053 1061.29307145626 0.0
vertex 545.105886605024 1032.50195720676 0.0
vertex 545.259040527053 1071.40214185626 0.0
endloop
endfacet
facet normal 0.0 0.0 -1.0
outer loop
vertex 547.864749965024 1032.50195720676 0.0
vertex 545.259040527053 1061.29307145626 0.0
vertex 548.017903887053 1061.29307145626 0.0
endloop
endfacet
facet normal 0.0 0.0 -1.0
outer loop
vertex 547.864749965024 1032.50195720676 0.0
vertex 548.017903887053 1061.29307145626 0.0
vertex 547.864749965024 1022.39288680676 0.0
endloop
endfacet
facet normal 0.0 0.0 -1.0
outer loop
vertex 532.067633479803 1081.35714678818 0.0
vertex 545.259040527053 1071.40214185626 0.0
vertex 545.105886605024 1032.50195720676 0.0
endloop
endfacet
facet normal 0.0 0.0 -1.0
outer loop
vertex 545.259040527053 1071.40214185626 0.0
vertex 532.067633479803 1081.35714678818 0.0
vertex 551.53835133027 1081.35714678818 0.0
endloop
endfacet
facet normal 0.0 0.0 -1.0
outer loop
vertex 545.259040527053 1071.40214185626 0.0
vertex 551.53835133027 1081.35714678818 0.0
vertex 548.017903887053 1071.40214185626 0.0
endloop
endfacet
facet normal 0.0 0.0 -1.0
outer loop
vertex 548.017903887053 1071.40214185626 0.0
vertex 551.53835133027 1081.35714678818 0.0
vertex 548.017903887053 1061.29307145626 0.0
endloop
endfacet
facet normal 0.0 0.0 -1.0
outer loop
vertex 629.34100542686 1051.80079446818 0.0
vertex 585.405119940003 1029.74801054814 0.0
vertex 551.53835133027 1051.80079446818 0.0
endloop
endfacet
facet normal 0.0 0.0 -1.0
outer loop
vertex 585.405119940003 1029.74801054814 0.0
vertex 629.34100542686 1051.80079446818 0.0
vertex 595.291046980004 1029.74801054814 0.0
endloop
endfacet
facet normal 0.0 0.0 -1.0
outer loop
vertex 595.291046980004 1029.74801054814 0.0
vertex 629.34100542686 1051.80079446818 0.0
vertex 595.291046980004 1026.45495550814 0.0
endloop
endfacet
facet normal 0.0 0.0 -1.0
outer loop
vertex 629.34100542686 1081.35714678818 0.0
vertex 632.403622161938 1071.4030534023 0.0
vertex 629.34100542686 1051.80079446818 0.0
endloop
endfacet
facet normal 0.0 0.0 -1.0
outer loop
vertex 632.403622161938 1071.4030534023 0.0
vertex 629.34100542686 1081.35714678818 0.0
vertex 648.791091819112 1081.35714678818 0.0
endloop
endfacet
facet normal 0.0 0.0 -1.0
outer loop
vertex 632.403622161938 1071.4030534023 0.0
vertex 648.791091819112 1081.35714678818 0.0
vertex 635.162485521938 1071.4030534023 0.0
endloop
endfacet
facet normal 0.0 0.0 -1.0
outer loop
vertex 635.162485521938 1071.4030534023 0.0
vertex 648.791091819112 1081.35714678818 0.0
vertex 635.162485521938 1061.2939830023 0.0
endloop
endfacet
facet normal 0.0 0.0 -1.0
outer loop
vertex 635.162485521938 1061.2939830023 0.0
vertex 648.791091819112 1081.35714678818 0.0
vertex 635.468793365997 1032.65511112879 0.0
endloop
endfacet
facet normal 0.0 0.0 -1.0
outer loop
vertex 635.468793365997 1032.65511112879 0.0
vertex 648.791091819112 1081.35714678818 0.0
vertex 635.468793365997 1022.54604072879 0.0
endloop
endfacet
facet normal 0.0 0.0 -1.0
outer loop
vertex 658.260877111855 1083.96076346269 0.0
vertex 648.791091819112 1081.35714678818 0.0
vertex 648.791091819112 1083.96076346269 0.0
endloop
endfacet
facet normal 0.0 0.0 -1.0
outer loop
vertex 677.892380766863 1081.35714678818 0.0
vertex 672.070487967623 1042.45605059265 0.0
vertex 658.260877111855 1081.35714678818 0.0
endloop
endfacet
facet normal 0.0 0.0 -1.0
outer loop
vertex 672.070487967623 1042.45605059265 0.0
vertex 677.892380766863 1081.35714678818 0.0
vertex 677.892380766863 1061.60052041082 0.0
endloop
endfacet
facet normal 0.0 0.0 -1.0
outer loop
vertex 672.070487967623 1042.45605059265 0.0
vertex 677.892380766863 1061.60052041082 0.0
vertex 678.041263327623 1042.45605059265 0.0
endloop
endfacet
facet normal 0.0 0.0 -1.0
outer loop
vertex 678.041263327623 1042.45605059265 0.0
vertex 677.892380766863 1061.60052041082 0.0
vertex 686.925452509109 1061.60052041082 0.0
endloop
endfacet
facet normal 0.0 0.0 -1.0
outer loop
vertex 678.041263327623 1042.45605059265 0.0
vertex 686.925452509109 1061.60052041082 0.0
vertex 678.041263327623 1032.79513312098 0.0
endloop
endfacet
facet normal 0.0 0.0 -1.0
outer loop
vertex 492.72898924043 1022.69919465082 0.0
vertex 490.42993644043 1013.04993481082 0.0
vertex 490.42993644043 1022.69919465082 0.0
endloop
endfacet
facet normal 0.0 0.0 -1.0
outer loop
vertex 490.42993644043 1013.04993481082 0.0
vertex 492.72898924043 1022.69919465082 0.0
vertex 690.29876780043 1013.04993481082 0.0
endloop
endfacet
facet normal 0.0 0.0 -1.0
outer loop
vertex 690.29876780043 1013.04993481082 0.0
vertex 492.72898924043 1022.69919465082 0.0
vertex 545.105886605024 1022.39288680676 0.0
endloop
endfacet
facet normal 0.0 0.0 -1.0
outer loop
vertex 545.105886605024 1022.39288680676 0.0
vertex 492.72898924043 1022.69919465082 0.0
vertex 502.835404124833 1032.29184636707 0.0
endloop
endfacet
facet normal 0.0 0.0 -1.0
outer loop
vertex 502.835404124833 1032.29184636707 0.0
vertex 492.72898924043 1022.69919465082 0.0
vertex 502.835404124833 1042.45605059265 0.0
endloop
endfacet
facet normal 0.0 0.0 -1.0
outer loop
vertex 545.105886605024 1022.39288680676 0.0
vertex 502.835404124833 1032.29184636707 0.0
vertex 509.117227804833 1032.29184636707 0.0
endloop
endfacet
facet normal 0.0 0.0 -1.0
outer loop
vertex 545.105886605024 1022.39288680676 0.0
vertex 509.117227804833 1032.29184636707 0.0
vertex 522.285952222602 1081.35714678818 0.0
endloop
endfacet
facet normal 0.0 0.0 -1.0
outer loop
vertex 545.105886605024 1022.39288680676 0.0
vertex 522.285952222602 1081.35714678818 0.0
vertex 532.067633479803 1081.35714678818 0.0
endloop
endfacet
facet normal 0.0 0.0 -1.0
outer loop
vertex 532.067633479803 1081.35714678818 0.0
vertex 522.285952222602 1081.35714678818 0.0
vertex 532.067633479803 1084.26707130675 0.0
endloop
endfacet
facet normal 0.0 0.0 -1.0
outer loop
vertex 545.105886605024 1022.39288680676 0.0
vertex 532.067633479803 1081.35714678818 0.0
vertex 545.105886605024 1032.50195720676 0.0
endloop
endfacet
facet normal 0.0 0.0 -1.0
outer loop
vertex 690.29876780043 1013.04993481082 0.0
vertex 545.105886605024 1022.39288680676 0.0
vertex 547.864749965024 1022.39288680676 0.0
endloop
endfacet
facet normal 0.0 0.0 -1.0
outer loop
vertex 690.29876780043 1013.04993481082 0.0
vertex 547.864749965024 1022.39288680676 0.0
vertex 585.405119940003 1026.45495550814 0.0
endloop
endfacet
facet normal 0.0 0.0 -1.0
outer loop
vertex 585.405119940003 1026.45495550814 0.0
vertex 547.864749965024 1022.39288680676 0.0
vertex 551.53835133027 1051.80079446818 0.0
endloop
endfacet
facet normal 0.0 0.0 -1.0
outer loop
vertex 551.53835133027 1051.80079446818 0.0
vertex 547.864749965024 1022.39288680676 0.0
vertex 548.017903887053 1061.29307145626 0.0
endloop
endfacet
facet normal 0.0 0.0 -1.0
outer loop
vertex 551.53835133027 1051.80079446818 0.0
vertex 548.017903887053 1061.29307145626 0.0
vertex 551.53835133027 1081.35714678818 0.0
endloop
endfacet
facet normal 0.0 0.0 -1.0
outer loop
vertex 585.405119940003 1026.45495550814 0.0
vertex 551.53835133027 1051.80079446818 0.0
vertex 585.405119940003 1029.74801054814 0.0
endloop
endfacet
facet normal 0.0 0.0 -1.0
outer loop
vertex 690.29876780043 1013.04993481082 0.0
vertex 585.405119940003 1026.45495550814 0.0
vertex 595.291046980004 1026.45495550814 0.0
endloop
endfacet
facet normal 0.0 0.0 -1.0
outer loop
vertex 690.29876780043 1013.04993481082 0.0
vertex 595.291046980004 1026.45495550814 0.0
vertex 632.709930005997 1022.54604072879 0.0
endloop
endfacet
facet normal 0.0 0.0 -1.0
outer loop
vertex 632.709930005997 1022.54604072879 0.0
vertex 595.291046980004 1026.45495550814 0.0
vertex 629.34100542686 1051.80079446818 0.0
endloop
endfacet
facet normal 0.0 0.0 -1.0
outer loop
vertex 632.709930005997 1022.54604072879 0.0
vertex 629.34100542686 1051.80079446818 0.0
vertex 632.403622161938 1061.2939830023 0.0
endloop
endfacet
facet normal 0.0 0.0 -1.0
outer loop
vertex 632.403622161938 1061.2939830023 0.0
vertex 629.34100542686 1051.80079446818 0.0
vertex 632.403622161938 1071.4030534023 0.0
endloop
endfacet
facet normal 0.0 0.0 -1.0
outer loop
vertex 632.709930005997 1022.54604072879 0.0
vertex 632.403622161938 1061.2939830023 0.0
vertex 632.709930005997 1032.65511112879 0.0
endloop
endfacet
facet normal 0.0 0.0 -1.0
outer loop
vertex 690.29876780043 1013.04993481082 0.0
vertex 632.709930005997 1022.54604072879 0.0
vertex 635.468793365997 1022.54604072879 0.0
endloop
endfacet
facet normal 0.0 0.0 -1.0
outer loop
vertex 690.29876780043 1013.04993481082 0.0
vertex 635.468793365997 1022.54604072879 0.0
vertex 672.070487967623 1032.79513312098 0.0
endloop
endfacet
facet normal 0.0 0.0 -1.0
outer loop
vertex 672.070487967623 1032.79513312098 0.0
vertex 635.468793365997 1022.54604072879 0.0
vertex 648.791091819112 1081.35714678818 0.0
endloop
endfacet
facet normal 0.0 0.0 -1.0
outer loop
vertex 672.070487967623 1032.79513312098 0.0
vertex 648.791091819112 1081.35714678818 0.0
vertex 658.260877111855 1081.35714678818 0.0
endloop
endfacet
facet normal 0.0 0.0 -1.0
outer loop
vertex 658.260877111855 1081.35714678818 0.0
vertex 648.791091819112 1081.35714678818 0.0
vertex 658.260877111855 1083.96076346269 0.0
endloop
endfacet
facet normal 0.0 0.0 -1.0
outer loop
vertex 672.070487967623 1032.79513312098 0.0
vertex 658.260877111855 1081.35714678818 0.0
vertex 672.070487967623 1042.45605059265 0.0
endloop
endfacet
facet normal 0.0 0.0 -1.0
outer loop
vertex 690.29876780043 1013.04993481082 0.0
vertex 672.070487967623 1032.79513312098 0.0
vertex 678.041263327623 1032.79513312098 0.0
endloop
endfacet
facet normal 0.0 0.0 -1.0
outer loop
vertex 690.29876780043 1013.04993481082 0.0
vertex 678.041263327623 1032.79513312098 0.0
vertex 686.925452509109 1022.61278916309 0.0
endloop
endfacet
facet normal 0.0 0.0 -1.0
outer loop
vertex 686.925452509109 1022.61278916309 0.0
vertex 678.041263327623 1032.79513312098 0.0
vertex 686.925452509109 1061.60052041082 0.0
endloop
endfacet
facet normal 0.0 0.0 -1.0
outer loop
vertex 690.29876780043 1013.04993481082 0.0
vertex 686.925452509109 1022.61278916309 0.0
vertex 690.29876780043 1022.61278916309 0.0
endloop
endfacet
facet normal 0.0 0.0 -1.0
outer loop
vertex 635.162485521938 1061.2939830023 0.0
vertex 632.709930005997 1032.65511112879 0.0
vertex 632.403622161938 1061.2939830023 0.0
endloop
endfacet
facet normal 0.0 0.0 -1.0
outer loop
vertex 632.709930005997 1032.65511112879 0.0
vertex 635.162485521938 1061.2939830023 0.0
vertex 635.468793365997 1032.65511112879 0.0
endloop
endfacet
facet normal 0.0 0.0 -1.0
outer loop
vertex 522.285952222602 1081.35714678818 0.0
vertex 502.988558046863 1061.60052041082 0.0
vertex 502.988558046863 1081.35714678818 0.0
endloop
endfacet
facet normal 0.0 0.0 -1.0
outer loop
vertex 502.988558046863 1061.60052041082 0.0
vertex 522.285952222602 1081.35714678818 0.0
vertex 509.117227804833 1042.45605059265 0.0
endloop
endfacet
facet normal 0.0 0.0 -1.0
outer loop
vertex 509.117227804833 1042.45605059265 0.0
vertex 522.285952222602 1081.35714678818 0.0
vertex 509.117227804833 1032.29184636707 0.0
endloop
endfacet
facet normal 0.0 0.0 -1.0
outer loop
vertex 532.067633479803 1084.26707130675 0.0
vertex 522.285952222602 1081.35714678818 0.0
vertex 522.285952222602 1084.26707130675 0.0
endloop
endfacet
facet normal 0.0 0.0 -1.0
outer loop
vertex 502.988558046863 1061.60052041082 0.0
vertex 492.72898924043 1022.69919465082 0.0
vertex 492.72898924043 1061.60052041082 0.0
endloop
endfacet
facet normal 0.0 0.0 -1.0
outer loop
vertex 492.72898924043 1022.69919465082 0.0
vertex 502.988558046863 1061.60052041082 0.0
vertex 502.835404124833 1042.45605059265 0.0
endloop
endfacet
facet normal 0.0 0.0 -1.0
outer loop
vertex 502.835404124833 1042.45605059265 0.0
vertex 502.988558046863 1061.60052041082 0.0
vertex 509.117227804833 1042.45605059265 0.0
endloop
endfacet
facet normal 0.0 0.0 1.0
outer loop
vertex 551.53835133027 1051.80079446818 3.0
vertex 585.405119940003 1029.74801054814 3.0
vertex 629.34100542686 1051.80079446818 3.0
endloop
endfacet
facet normal 0.0 0.0 1.0
outer loop
vertex 585.405119940003 1029.74801054814 3.0
vertex 551.53835133027 1051.80079446818 3.0
vertex 585.405119940003 1026.45495550814 3.0
endloop
endfacet
facet normal 0.0 0.0 1.0
outer loop
vertex 629.34100542686 1051.80079446818 3.0
vertex 585.405119940003 1029.74801054814 3.0
vertex 595.291046980004 1029.74801054814 3.0
endloop
endfacet
facet normal 0.0 0.0 1.0
outer loop
vertex 632.403622161938 1061.2939830023 3.0
vertex 632.709930005997 1032.65511112879 3.0
vertex 635.162485521938 1061.2939830023 3.0
endloop
endfacet
facet normal 0.0 0.0 1.0
outer loop
vertex 632.709930005997 1032.65511112879 3.0
vertex 632.403622161938 1061.2939830023 3.0
vertex 632.709930005997 1022.54604072879 3.0
endloop
endfacet
facet normal 0.0 0.0 1.0
outer loop
vertex 635.162485521938 1061.2939830023 3.0
vertex 632.709930005997 1032.65511112879 3.0
vertex 635.468793365997 1032.65511112879 3.0
endloop
endfacet
facet normal 0.0 0.0 1.0
outer loop
vertex 635.162485521938 1061.2939830023 3.0
vertex 635.468793365997 1032.65511112879 3.0
vertex 635.162485521938 1071.4030534023 3.0
endloop
endfacet
facet normal 0.0 0.0 1.0
outer loop
vertex 629.34100542686 1081.35714678818 3.0
vertex 632.403622161938 1071.4030534023 3.0
vertex 648.791091819112 1081.35714678818 3.0
endloop
endfacet
facet normal 0.0 0.0 1.0
outer loop
vertex 632.403622161938 1071.4030534023 3.0
vertex 629.34100542686 1081.35714678818 3.0
vertex 632.403622161938 1061.2939830023 3.0
endloop
endfacet
facet normal 0.0 0.0 1.0
outer loop
vertex 648.791091819112 1081.35714678818 3.0
vertex 632.403622161938 1071.4030534023 3.0
vertex 635.162485521938 1071.4030534023 3.0
endloop
endfacet
facet normal 0.0 0.0 1.0
outer loop
vertex 648.791091819112 1081.35714678818 3.0
vertex 635.162485521938 1071.4030534023 3.0
vertex 635.468793365997 1032.65511112879 3.0
endloop
endfacet
facet normal 0.0 0.0 1.0
outer loop
vertex 658.260877111855 1083.96076346269 3.0
vertex 648.791091819112 1083.96076346269 3.0
vertex 658.260877111855 1081.35714678818 3.0
endloop
endfacet
facet normal 0.0 0.0 1.0
outer loop
vertex 532.067633479803 1081.35714678818 3.0
vertex 545.259040527053 1071.40214185626 3.0
vertex 551.53835133027 1081.35714678818 3.0
endloop
endfacet
facet normal 0.0 0.0 1.0
outer loop
vertex 545.259040527053 1071.40214185626 3.0
vertex 532.067633479803 1081.35714678818 3.0
vertex 545.105886605024 1032.50195720676 3.0
endloop
endfacet
facet normal 0.0 0.0 1.0
outer loop
vertex 545.105886605024 1032.50195720676 3.0
vertex 532.067633479803 1081.35714678818 3.0
vertex 545.105886605024 1022.39288680676 3.0
endloop
endfacet
facet normal 0.0 0.0 1.0
outer loop
vertex 545.259040527053 1071.40214185626 3.0
vertex 545.105886605024 1032.50195720676 3.0
vertex 545.259040527053 1061.29307145626 3.0
endloop
endfacet
facet normal 0.0 0.0 1.0
outer loop
vertex 551.53835133027 1081.35714678818 3.0
vertex 545.259040527053 1071.40214185626 3.0
vertex 548.017903887053 1071.40214185626 3.0
endloop
endfacet
facet normal 0.0 0.0 1.0
outer loop
vertex 551.53835133027 1081.35714678818 3.0
vertex 548.017903887053 1071.40214185626 3.0
vertex 551.53835133027 1051.80079446818 3.0
endloop
endfacet
facet normal 0.0 0.0 1.0
outer loop
vertex 547.864749965024 1032.50195720676 3.0
vertex 545.259040527053 1061.29307145626 3.0
vertex 545.105886605024 1032.50195720676 3.0
endloop
endfacet
facet normal 0.0 0.0 1.0
outer loop
vertex 545.259040527053 1061.29307145626 3.0
vertex 547.864749965024 1032.50195720676 3.0
vertex 548.017903887053 1061.29307145626 3.0
endloop
endfacet
facet normal 0.0 0.0 1.0
outer loop
vertex 492.72898924043 1061.60052041082 3.0
vertex 502.835404124833 1042.45605059265 3.0
vertex 502.988558046863 1061.60052041082 3.0
endloop
endfacet
facet normal 0.0 0.0 1.0
outer loop
vertex 502.835404124833 1042.45605059265 3.0
vertex 492.72898924043 1061.60052041082 3.0
vertex 502.835404124833 1032.29184636707 3.0
endloop
endfacet
facet normal 0.0 0.0 1.0
outer loop
vertex 502.988558046863 1061.60052041082 3.0
vertex 502.835404124833 1042.45605059265 3.0
vertex 509.117227804833 1042.45605059265 3.0
endloop
endfacet
facet normal 0.0 0.0 1.0
outer loop
vertex 502.988558046863 1061.60052041082 3.0
vertex 509.117227804833 1042.45605059265 3.0
vertex 502.988558046863 1081.35714678818 3.0
endloop
endfacet
facet normal 0.0 0.0 1.0
outer loop
vertex 502.988558046863 1081.35714678818 3.0
vertex 509.117227804833 1042.45605059265 3.0
vertex 522.285952222602 1081.35714678818 3.0
endloop
endfacet
facet normal 0.0 0.0 1.0
outer loop
vertex 690.29876780043 1013.04993481082 3.0
vertex 490.42993644043 1022.69919465082 3.0
vertex 490.42993644043 1013.04993481082 3.0
endloop
endfacet
facet normal 0.0 0.0 1.0
outer loop
vertex 490.42993644043 1022.69919465082 3.0
vertex 690.29876780043 1013.04993481082 3.0
vertex 492.72898924043 1022.69919465082 3.0
endloop
endfacet
facet normal 0.0 0.0 1.0
outer loop
vertex 492.72898924043 1022.69919465082 3.0
vertex 690.29876780043 1013.04993481082 3.0
vertex 545.105886605024 1022.39288680676 3.0
endloop
endfacet
facet normal 0.0 0.0 1.0
outer loop
vertex 492.72898924043 1022.69919465082 3.0
vertex 545.105886605024 1022.39288680676 3.0
vertex 502.835404124833 1032.29184636707 3.0
endloop
endfacet
facet normal 0.0 0.0 1.0
outer loop
vertex 492.72898924043 1022.69919465082 3.0
vertex 502.835404124833 1032.29184636707 3.0
vertex 492.72898924043 1061.60052041082 3.0
endloop
endfacet
facet normal 0.0 0.0 1.0
outer loop
vertex 502.835404124833 1032.29184636707 3.0
vertex 545.105886605024 1022.39288680676 3.0
vertex 509.117227804833 1032.29184636707 3.0
endloop
endfacet
facet normal 0.0 0.0 1.0
outer loop
vertex 509.117227804833 1032.29184636707 3.0
vertex 545.105886605024 1022.39288680676 3.0
vertex 509.117227804833 1042.45605059265 3.0
endloop
endfacet
facet normal 0.0 0.0 1.0
outer loop
vertex 509.117227804833 1042.45605059265 3.0
vertex 545.105886605024 1022.39288680676 3.0
vertex 522.285952222602 1081.35714678818 3.0
endloop
endfacet
facet normal 0.0 0.0 1.0
outer loop
vertex 522.285952222602 1081.35714678818 3.0
vertex 545.105886605024 1022.39288680676 3.0
vertex 522.285952222602 1084.26707130675 3.0
endloop
endfacet
facet normal 0.0 0.0 1.0
outer loop
vertex 522.285952222602 1084.26707130675 3.0
vertex 545.105886605024 1022.39288680676 3.0
vertex 532.067633479803 1081.35714678818 3.0
endloop
endfacet
facet normal 0.0 0.0 1.0
outer loop
vertex 545.105886605024 1022.39288680676 3.0
vertex 690.29876780043 1013.04993481082 3.0
vertex 547.864749965024 1022.39288680676 3.0
endloop
endfacet
facet normal 0.0 0.0 1.0
outer loop
vertex 547.864749965024 1022.39288680676 3.0
vertex 690.29876780043 1013.04993481082 3.0
vertex 585.405119940003 1026.45495550814 3.0
endloop
endfacet
facet normal 0.0 0.0 1.0
outer loop
vertex 547.864749965024 1022.39288680676 3.0
vertex 585.405119940003 1026.45495550814 3.0
vertex 547.864749965024 1032.50195720676 3.0
endloop
endfacet
facet normal 0.0 0.0 1.0
outer loop
vertex 547.864749965024 1032.50195720676 3.0
vertex 585.405119940003 1026.45495550814 3.0
vertex 551.53835133027 1051.80079446818 3.0
endloop
endfacet
facet normal 0.0 0.0 1.0
outer loop
vertex 547.864749965024 1032.50195720676 3.0
vertex 551.53835133027 1051.80079446818 3.0
vertex 548.017903887053 1061.29307145626 3.0
endloop
endfacet
facet normal 0.0 0.0 1.0
outer loop
vertex 548.017903887053 1061.29307145626 3.0
vertex 551.53835133027 1051.80079446818 3.0
vertex 548.017903887053 1071.40214185626 3.0
endloop
endfacet
facet normal 0.0 0.0 1.0
outer loop
vertex 585.405119940003 1026.45495550814 3.0
vertex 690.29876780043 1013.04993481082 3.0
vertex 595.291046980004 1026.45495550814 3.0
endloop
endfacet
facet normal 0.0 0.0 1.0
outer loop
vertex 595.291046980004 1026.45495550814 3.0
vertex 690.29876780043 1013.04993481082 3.0
vertex 632.709930005997 1022.54604072879 3.0
endloop
endfacet
facet normal 0.0 0.0 1.0
outer loop
vertex 595.291046980004 1026.45495550814 3.0
vertex 632.709930005997 1022.54604072879 3.0
vertex 595.291046980004 1029.74801054814 3.0
endloop
endfacet
facet normal 0.0 0.0 1.0
outer loop
vertex 595.291046980004 1029.74801054814 3.0
vertex 632.709930005997 1022.54604072879 3.0
vertex 629.34100542686 1051.80079446818 3.0
endloop
endfacet
facet normal 0.0 0.0 1.0
outer loop
vertex 629.34100542686 1051.80079446818 3.0
vertex 632.709930005997 1022.54604072879 3.0
vertex 629.34100542686 1081.35714678818 3.0
endloop
endfacet
facet normal 0.0 0.0 1.0
outer loop
vertex 629.34100542686 1081.35714678818 3.0
vertex 632.709930005997 1022.54604072879 3.0
vertex 632.403622161938 1061.2939830023 3.0
endloop
endfacet
facet normal 0.0 0.0 1.0
outer loop
vertex 632.709930005997 1022.54604072879 3.0
vertex 690.29876780043 1013.04993481082 3.0
vertex 635.468793365997 1022.54604072879 3.0
endloop
endfacet
facet normal 0.0 0.0 1.0
outer loop
vertex 635.468793365997 1022.54604072879 3.0
vertex 690.29876780043 1013.04993481082 3.0
vertex 635.468793365997 1032.65511112879 3.0
endloop
endfacet
facet normal 0.0 0.0 1.0
outer loop
vertex 635.468793365997 1032.65511112879 3.0
vertex 690.29876780043 1013.04993481082 3.0
vertex 672.070487967623 1032.79513312098 3.0
endloop
endfacet
facet normal 0.0 0.0 1.0
outer loop
vertex 635.468793365997 1032.65511112879 3.0
vertex 672.070487967623 1032.79513312098 3.0
vertex 648.791091819112 1081.35714678818 3.0
endloop
endfacet
facet normal 0.0 0.0 1.0
outer loop
vertex 648.791091819112 1081.35714678818 3.0
vertex 672.070487967623 1032.79513312098 3.0
vertex 648.791091819112 1083.96076346269 3.0
endloop
endfacet
facet normal 0.0 0.0 1.0
outer loop
vertex 648.791091819112 1083.96076346269 3.0
vertex 672.070487967623 1032.79513312098 3.0
vertex 658.260877111855 1081.35714678818 3.0
endloop
endfacet
facet normal 0.0 0.0 1.0
outer loop
vertex 672.070487967623 1032.79513312098 3.0
vertex 690.29876780043 1013.04993481082 3.0
vertex 678.041263327623 1032.79513312098 3.0
endloop
endfacet
facet normal 0.0 0.0 1.0
outer loop
vertex 678.041263327623 1032.79513312098 3.0
vertex 690.29876780043 1013.04993481082 3.0
vertex 678.041263327623 1042.45605059265 3.0
endloop
endfacet
facet normal 0.0 0.0 1.0
outer loop
vertex 678.041263327623 1042.45605059265 3.0
vertex 690.29876780043 1013.04993481082 3.0
vertex 686.925452509109 1022.61278916309 3.0
endloop
endfacet
facet normal 0.0 0.0 1.0
outer loop
vertex 686.925452509109 1022.61278916309 3.0
vertex 690.29876780043 1013.04993481082 3.0
vertex 690.29876780043 1022.61278916309 3.0
endloop
endfacet
facet normal 0.0 0.0 1.0
outer loop
vertex 678.041263327623 1042.45605059265 3.0
vertex 677.892380766863 1061.60052041082 3.0
vertex 672.070487967623 1042.45605059265 3.0
endloop
endfacet
facet normal 0.0 0.0 1.0
outer loop
vertex 677.892380766863 1061.60052041082 3.0
vertex 678.041263327623 1042.45605059265 3.0
vertex 686.925452509109 1061.60052041082 3.0
endloop
endfacet
facet normal 0.0 0.0 1.0
outer loop
vertex 686.925452509109 1061.60052041082 3.0
vertex 678.041263327623 1042.45605059265 3.0
vertex 686.925452509109 1022.61278916309 3.0
endloop
endfacet
facet normal 0.0 0.0 1.0
outer loop
vertex 658.260877111855 1081.35714678818 3.0
vertex 672.070487967623 1042.45605059265 3.0
vertex 677.892380766863 1081.35714678818 3.0
endloop
endfacet
facet normal 0.0 0.0 1.0
outer loop
vertex 672.070487967623 1042.45605059265 3.0
vertex 658.260877111855 1081.35714678818 3.0
vertex 672.070487967623 1032.79513312098 3.0
endloop
endfacet
facet normal 0.0 0.0 1.0
outer loop
vertex 677.892380766863 1081.35714678818 3.0
vertex 672.070487967623 1042.45605059265 3.0
vertex 677.892380766863 1061.60052041082 3.0
endloop
endfacet
facet normal 0.0 0.0 1.0
outer loop
vertex 532.067633479803 1084.26707130675 3.0
vertex 522.285952222602 1084.26707130675 3.0
vertex 532.067633479803 1081.35714678818 3.0
endloop
endfacet
facet normal 0.0 1.0 0.0
outer loop
vertex 677.892380766863 1061.60052041082 3.0
vertex 686.925452509109 1061.60052041082 0.0
vertex 677.892380766863 1061.60052041082 0.0
endloop
endfacet
facet normal 0.0 1.0 0.0
outer loop
vertex 686.925452509109 1061.60052041082 0.0
vertex 677.892380766863 1061.60052041082 3.0
vertex 686.925452509109 1061.60052041082 3.0
endloop
endfacet
facet normal 1.0 -0.0 0.0
outer loop
vertex 677.892380766863 1081.35714678818 0.0
vertex 677.892380766863 1061.60052041082 3.0
vertex 677.892380766863 1061.60052041082 0.0
endloop
endfacet
facet normal 1.0 -0.0 0.0
outer loop
vertex 677.892380766863 1061.60052041082 3.0
vertex 677.892380766863 1081.35714678818 0.0
vertex 677.892380766863 1081.35714678818 3.0
endloop
endfacet
facet normal 0.0 1.0 0.0
outer loop
vertex 658.260877111855 1081.35714678818 3.0
vertex 677.892380766863 1081.35714678818 0.0
vertex 658.260877111855 1081.35714678818 0.0
endloop
endfacet
facet normal 0.0 1.0 0.0
outer loop
vertex 677.892380766863 1081.35714678818 0.0
vertex 658.260877111855 1081.35714678818 3.0
vertex 677.892380766863 1081.35714678818 3.0
endloop
endfacet
facet normal 1.0 -0.0 0.0
outer loop
vertex 658.260877111855 1083.96076346269 0.0
vertex 658.260877111855 1081.35714678818 3.0
vertex 658.260877111855 1081.35714678818 0.0
endloop
endfacet
facet normal 1.0 -0.0 0.0
outer loop
vertex 658.260877111855 1081.35714678818 3.0
vertex 658.260877111855 1083.96076346269 0.0
vertex 658.260877111855 1083.96076346269 3.0
endloop
endfacet
facet normal 0.0 1.0 0.0
outer loop
vertex 648.791091819112 1083.96076346269 3.0
vertex 658.260877111855 1083.96076346269 0.0
vertex 648.791091819112 1083.96076346269 0.0
endloop
endfacet
facet normal 0.0 1.0 0.0
outer loop
vertex 658.260877111855 1083.96076346269 0.0
vertex 648.791091819112 1083.96076346269 3.0
vertex 658.260877111855 1083.96076346269 3.0
endloop
endfacet
facet normal -1.0 -0.0 -0.0
outer loop
vertex 648.791091819112 1083.96076346269 3.0
vertex 648.791091819112 1081.35714678818 0.0
vertex 648.791091819112 1081.35714678818 3.0
endloop
endfacet
facet normal -1.0 -0.0 -0.0
outer loop
vertex 648.791091819112 1081.35714678818 0.0
vertex 648.791091819112 1083.96076346269 3.0
vertex 648.791091819112 1083.96076346269 0.0
endloop
endfacet
facet normal 0.0 1.0 0.0
outer loop
vertex 629.34100542686 1081.35714678818 3.0
vertex 648.791091819112 1081.35714678818 0.0
vertex 629.34100542686 1081.35714678818 0.0
endloop
endfacet
facet normal 0.0 1.0 0.0
outer loop
vertex 648.791091819112 1081.35714678818 0.0
vertex 629.34100542686 1081.35714678818 3.0
vertex 648.791091819112 1081.35714678818 3.0
endloop
endfacet
facet normal -1.0 -0.0 -0.0
outer loop
vertex 629.34100542686 1081.35714678818 3.0
vertex 629.34100542686 1051.80079446818 0.0
vertex 629.34100542686 1051.80079446818 3.0
endloop
endfacet
facet normal -1.0 -0.0 -0.0
outer loop
vertex 629.34100542686 1051.80079446818 0.0
vertex 629.34100542686 1081.35714678818 3.0
vertex 629.34100542686 1081.35714678818 0.0
endloop
endfacet
facet normal 0.0 1.0 0.0
outer loop
vertex 551.53835133027 1051.80079446818 3.0
vertex 629.34100542686 1051.80079446818 0.0
vertex 551.53835133027 1051.80079446818 0.0
endloop
endfacet
facet normal 0.0 1.0 0.0
outer loop
vertex 629.34100542686 1051.80079446818 0.0
vertex 551.53835133027 1051.80079446818 3.0
vertex 629.34100542686 1051.80079446818 3.0
endloop
endfacet
facet normal 1.0 -0.0 0.0
outer loop
vertex 551.53835133027 1081.35714678818 0.0
vertex 551.53835133027 1051.80079446818 3.0
vertex 551.53835133027 1051.80079446818 0.0
endloop
endfacet
facet normal 1.0 -0.0 0.0
outer loop
vertex 551.53835133027 1051.80079446818 3.0
vertex 551.53835133027 1081.35714678818 0.0
vertex 551.53835133027 1081.35714678818 3.0
endloop
endfacet
facet normal 0.0 1.0 0.0
outer loop
vertex 532.067633479803 1081.35714678818 3.0
vertex 551.53835133027 1081.35714678818 0.0
vertex 532.067633479803 1081.35714678818 0.0
endloop
endfacet
facet normal 0.0 1.0 0.0
outer loop
vertex 551.53835133027 1081.35714678818 0.0
vertex 532.067633479803 1081.35714678818 3.0
vertex 551.53835133027 1081.35714678818 3.0
endloop
endfacet
facet normal 1.0 -0.0 0.0
outer loop
vertex 532.067633479803 1084.26707130675 0.0
vertex 532.067633479803 1081.35714678818 3.0
vertex 532.067633479803 1081.35714678818 0.0
endloop
endfacet
facet normal 1.0 -0.0 0.0
outer loop
vertex 532.067633479803 1081.35714678818 3.0
vertex 532.067633479803 1084.26707130675 0.0
vertex 532.067633479803 1084.26707130675 3.0
endloop
endfacet
facet normal 0.0 1.0 0.0
outer loop
vertex 522.285952222602 1084.26707130675 3.0
vertex 532.067633479803 1084.26707130675 0.0
vertex 522.285952222602 1084.26707130675 0.0
endloop
endfacet
facet normal 0.0 1.0 0.0
outer loop
vertex 532.067633479803 1084.26707130675 0.0
vertex 522.285952222602 1084.26707130675 3.0
vertex 532.067633479803 1084.26707130675 3.0
endloop
endfacet
facet normal -1.0 -0.0 -0.0
outer loop
vertex 522.285952222602 1084.26707130675 3.0
vertex 522.285952222602 1081.35714678818 0.0
vertex 522.285952222602 1081.35714678818 3.0
endloop
endfacet
facet normal -1.0 -0.0 -0.0
outer loop
vertex 522.285952222602 1081.35714678818 0.0
vertex 522.285952222602 1084.26707130675 3.0
vertex 522.285952222602 1084.26707130675 0.0
endloop
endfacet
facet normal 0.0 1.0 0.0
outer loop
vertex 502.988558046863 1081.35714678818 3.0
vertex 522.285952222602 1081.35714678818 0.0
vertex 502.988558046863 1081.35714678818 0.0
endloop
endfacet
facet normal 0.0 1.0 0.0
outer loop
vertex 522.285952222602 1081.35714678818 0.0
vertex 502.988558046863 1081.35714678818 3.0
vertex 522.285952222602 1081.35714678818 3.0
endloop
endfacet
facet normal -1.0 -0.0 -0.0
outer loop
vertex 502.988558046863 1081.35714678818 3.0
vertex 502.988558046863 1061.60052041082 0.0
vertex 502.988558046863 1061.60052041082 3.0
endloop
endfacet
facet normal -1.0 -0.0 -0.0
outer loop
vertex 502.988558046863 1061.60052041082 0.0
vertex 502.988558046863 1081.35714678818 3.0
vertex 502.988558046863 1081.35714678818 0.0
endloop
endfacet
facet normal 0.0 1.0 0.0
outer loop
vertex 492.72898924043 1061.60052041082 3.0
vertex 502.988558046863 1061.60052041082 0.0
vertex 492.72898924043 1061.60052041082 0.0
endloop
endfacet
facet normal 0.0 1.0 0.0
outer loop
vertex 502.988558046863 1061.60052041082 0.0
vertex 492.72898924043 1061.60052041082 3.0
vertex 502.988558046863 1061.60052041082 3.0
endloop
endfacet
facet normal -1.0 -0.0 -0.0
outer loop
vertex 492.72898924043 1061.60052041082 3.0
vertex 492.72898924043 1022.69919465082 0.0
vertex 492.72898924043 1022.69919465082 3.0
endloop
endfacet
facet normal -1.0 -0.0 -0.0
outer loop
vertex 492.72898924043 1022.69919465082 0.0
vertex 492.72898924043 1061.60052041082 3.0
vertex 492.72898924043 1061.60052041082 0.0
endloop
endfacet
facet normal 0.0 1.0 0.0
outer loop
vertex 490.42993644043 1022.69919465082 3.0
vertex 492.72898924043 1022.69919465082 0.0
vertex 490.42993644043 1022.69919465082 0.0
endloop
endfacet
facet normal 0.0 1.0 0.0
outer loop
vertex 492.72898924043 1022.69919465082 0.0
vertex 490.42993644043 1022.69919465082 3.0
vertex 492.72898924043 1022.69919465082 3.0
endloop
endfacet
facet normal -1.0 -0.0 -0.0
outer loop
vertex 490.42993644043 1022.69919465082 3.0
vertex 490.42993644043 1013.04993481082 0.0
vertex 490.42993644043 1013.04993481082 3.0
endloop
endfacet
facet normal -1.0 -0.0 -0.0
outer loop
vertex 490.42993644043 1013.04993481082 0.0
vertex 490.42993644043 1022.69919465082 3.0
vertex 490.42993644043 1022.69919465082 0.0
endloop
endfacet
facet normal 0.0 -1.0 0.0
outer loop
vertex 690.29876780043 1013.04993481082 3.0
vertex 490.42993644043 1013.04993481082 0.0
vertex 690.29876780043 1013.04993481082 0.0
endloop
endfacet
facet normal 0.0 -1.0 0.0
outer loop
vertex 490.42993644043 1013.04993481082 0.0
vertex 690.29876780043 1013.04993481082 3.0
vertex 490.42993644043 1013.04993481082 3.0
endloop
endfacet
facet normal 1.0 -0.0 0.0
outer loop
vertex 690.29876780043 1022.61278916309 0.0
vertex 690.29876780043 1013.04993481082 3.0
vertex 690.29876780043 1013.04993481082 0.0
endloop
endfacet
facet normal 1.0 -0.0 0.0
outer loop
vertex 690.29876780043 1013.04993481082 3.0
vertex 690.29876780043 1022.61278916309 0.0
vertex 690.29876780043 1022.61278916309 3.0
endloop
endfacet
facet normal 0.0 1.0 0.0
outer loop
vertex 686.925452509109 1022.61278916309 3.0
vertex 690.29876780043 1022.61278916309 0.0
vertex 686.925452509109 1022.61278916309 0.0
endloop
endfacet
facet normal 0.0 1.0 0.0
outer loop
vertex 690.29876780043 1022.61278916309 0.0
vertex 686.925452509109 1022.61278916309 3.0
vertex 690.29876780043 1022.61278916309 3.0
endloop
endfacet
facet normal 1.0 -0.0 0.0
outer loop
vertex 686.925452509109 1061.60052041082 0.0
vertex 686.925452509109 1022.61278916309 3.0
vertex 686.925452509109 1022.61278916309 0.0
endloop
endfacet
facet normal 1.0 -0.0 0.0
outer loop
vertex 686.925452509109 1022.61278916309 3.0
vertex 686.925452509109 1061.60052041082 0.0
vertex 686.925452509109 1061.60052041082 3.0
endloop
endfacet
facet normal -1.0 -0.0 -0.0
outer loop
vertex 678.041263327623 1042.45605059265 3.0
vertex 678.041263327623 1032.79513312098 0.0
vertex 678.041263327623 1032.79513312098 3.0
endloop
endfacet
facet normal -1.0 -0.0 -0.0
outer loop
vertex 678.041263327623 1032.79513312098 0.0
vertex 678.041263327623 1042.45605059265 3.0
vertex 678.041263327623 1042.45605059265 0.0
endloop
endfacet
facet normal 0.0 1.0 0.0
outer loop
vertex 672.070487967623 1032.79513312098 3.0
vertex 678.041263327623 1032.79513312098 0.0
vertex 672.070487967623 1032.79513312098 0.0
endloop
endfacet
facet normal 0.0 1.0 0.0
outer loop
vertex 678.041263327623 1032.79513312098 0.0
vertex 672.070487967623 1032.79513312098 3.0
vertex 678.041263327623 1032.79513312098 3.0
endloop
endfacet
facet normal 1.0 -0.0 0.0
outer loop
vertex 672.070487967623 1042.45605059265 0.0
vertex 672.070487967623 1032.79513312098 3.0
vertex 672.070487967623 1032.79513312098 0.0
endloop
endfacet
facet normal 1.0 -0.0 0.0
outer loop
vertex 672.070487967623 1032.79513312098 3.0
vertex 672.070487967623 1042.45605059265 0.0
vertex 672.070487967623 1042.45605059265 3.0
endloop
endfacet
facet normal 0.0 -1.0 0.0
outer loop
vertex 678.041263327623 1042.45605059265 3.0
vertex 672.070487967623 1042.45605059265 0.0
vertex 678.041263327623 1042.45605059265 0.0
endloop
endfacet
facet normal 0.0 -1.0 0.0
outer loop
vertex 672.070487967623 1042.45605059265 0.0
vertex 678.041263327623 1042.45605059265 3.0
vertex 672.070487967623 1042.45605059265 3.0
endloop
endfacet
facet normal 0.0 -1.0 0.0
outer loop
vertex 509.117227804833 1042.45605059265 3.0
vertex 502.835404124833 1042.45605059265 0.0
vertex 509.117227804833 1042.45605059265 0.0
endloop
endfacet
facet normal 0.0 -1.0 0.0
outer loop
vertex 502.835404124833 1042.45605059265 0.0
vertex 509.117227804833 1042.45605059265 3.0
vertex 502.835404124833 1042.45605059265 3.0
endloop
endfacet
facet normal -1.0 -0.0 -0.0
outer loop
vertex 509.117227804833 1042.45605059265 3.0
vertex 509.117227804833 1032.29184636707 0.0
vertex 509.117227804833 1032.29184636707 3.0
endloop
endfacet
facet normal -1.0 -0.0 -0.0
outer loop
vertex 509.117227804833 1032.29184636707 0.0
vertex 509.117227804833 1042.45605059265 3.0
vertex 509.117227804833 1042.45605059265 0.0
endloop
endfacet
facet normal 0.0 1.0 0.0
outer loop
vertex 502.835404124833 1032.29184636707 3.0
vertex 509.117227804833 1032.29184636707 0.0
vertex 502.835404124833 1032.29184636707 0.0
endloop
endfacet
facet normal 0.0 1.0 0.0
outer loop
vertex 509.117227804833 1032.29184636707 0.0
vertex 502.835404124833 1032.29184636707 3.0
vertex 509.117227804833 1032.29184636707 3.0
endloop
endfacet
facet normal 1.0 -0.0 0.0
outer loop
vertex 502.835404124833 1042.45605059265 0.0
vertex 502.835404124833 1032.29184636707 3.0
vertex 502.835404124833 1032.29184636707 0.0
endloop
endfacet
facet normal 1.0 -0.0 0.0
outer loop
vertex 502.835404124833 1032.29184636707 3.0
vertex 502.835404124833 1042.45605059265 0.0
vertex 502.835404124833 1042.45605059265 3.0
endloop
endfacet
facet normal -1.0 -0.0 -0.0
outer loop
vertex 547.864749965024 1032.50195720676 3.0
vertex 547.864749965024 1022.39288680676 0.0
vertex 547.864749965024 1022.39288680676 3.0
endloop
endfacet
facet normal -1.0 -0.0 -0.0
outer loop
vertex 547.864749965024 1022.39288680676 0.0
vertex 547.864749965024 1032.50195720676 3.0
vertex 547.864749965024 1032.50195720676 0.0
endloop
endfacet
facet normal 0.0 1.0 0.0
outer loop
vertex 545.105886605024 1022.39288680676 3.0
vertex 547.864749965024 1022.39288680676 0.0
vertex 545.105886605024 1022.39288680676 0.0
endloop
endfacet
facet normal 0.0 1.0 0.0
outer loop
vertex 547.864749965024 1022.39288680676 0.0
vertex 545.105886605024 1022.39288680676 3.0
vertex 547.864749965024 1022.39288680676 3.0
endloop
endfacet
facet normal 1.0 -0.0 0.0
outer loop
vertex 545.105886605024 1032.50195720676 0.0
vertex 545.105886605024 1022.39288680676 3.0
vertex 545.105886605024 1022.39288680676 0.0
endloop
endfacet
facet normal 1.0 -0.0 0.0
outer loop
vertex 545.105886605024 1022.39288680676 3.0
vertex 545.105886605024 1032.50195720676 0.0
vertex 545.105886605024 1032.50195720676 3.0
endloop
endfacet
facet normal 0.0 -1.0 0.0
outer loop
vertex 547.864749965024 1032.50195720676 3.0
vertex 545.105886605024 1032.50195720676 0.0
vertex 547.864749965024 1032.50195720676 0.0
endloop
endfacet
facet normal 0.0 -1.0 0.0
outer loop
vertex 545.105886605024 1032.50195720676 0.0
vertex 547.864749965024 1032.50195720676 3.0
vertex 545.105886605024 1032.50195720676 3.0
endloop
endfacet
facet normal -1.0 -0.0 -0.0
outer loop
vertex 635.468793365997 1032.65511112879 3.0
vertex 635.468793365997 1022.54604072879 0.0
vertex 635.468793365997 1022.54604072879 3.0
endloop
endfacet
facet normal -1.0 -0.0 -0.0
outer loop
vertex 635.468793365997 1022.54604072879 0.0
vertex 635.468793365997 1032.65511112879 3.0
vertex 635.468793365997 1032.65511112879 0.0
endloop
endfacet
facet normal 0.0 1.0 0.0
outer loop
vertex 632.709930005997 1022.54604072879 3.0
vertex 635.468793365997 1022.54604072879 0.0
vertex 632.709930005997 1022.54604072879 0.0
endloop
endfacet
facet normal 0.0 1.0 0.0
outer loop
vertex 635.468793365997 1022.54604072879 0.0
vertex 632.709930005997 1022.54604072879 3.0
vertex 635.468793365997 1022.54604072879 3.0
endloop
endfacet
facet normal 1.0 -0.0 0.0
outer loop
vertex 632.709930005997 1032.65511112879 0.0
vertex 632.709930005997 1022.54604072879 3.0
vertex 632.709930005997 1022.54604072879 0.0
endloop
endfacet
facet normal 1.0 -0.0 0.0
outer loop
vertex 632.709930005997 1022.54604072879 3.0
vertex 632.709930005997 1032.65511112879 0.0
vertex 632.709930005997 1032.65511112879 3.0
endloop
endfacet
facet normal 0.0 -1.0 0.0
outer loop
vertex 635.468793365997 1032.65511112879 3.0
vertex 632.709930005997 1032.65511112879 0.0
vertex 635.468793365997 1032.65511112879 0.0
endloop
endfacet
facet normal 0.0 -1.0 0.0
outer loop
vertex 632.709930005997 1032.65511112879 0.0
vertex 635.468793365997 1032.65511112879 3.0
vertex 632.709930005997 1032.65511112879 3.0
endloop
endfacet
facet normal -1.0 -0.0 -0.0
outer loop
vertex 548.017903887053 1071.40214185626 3.0
vertex 548.017903887053 1061.29307145626 0.0
vertex 548.017903887053 1061.29307145626 3.0
endloop
endfacet
facet normal -1.0 -0.0 -0.0
outer loop
vertex 548.017903887053 1061.29307145626 0.0
vertex 548.017903887053 1071.40214185626 3.0
vertex 548.017903887053 1071.40214185626 0.0
endloop
endfacet
facet normal 0.0 1.0 0.0
outer loop
vertex 545.259040527053 1061.29307145626 3.0
vertex 548.017903887053 1061.29307145626 0.0
vertex 545.259040527053 1061.29307145626 0.0
endloop
endfacet
facet normal 0.0 1.0 0.0
outer loop
vertex 548.017903887053 1061.29307145626 0.0
vertex 545.259040527053 1061.29307145626 3.0
vertex 548.017903887053 1061.29307145626 3.0
endloop
endfacet
facet normal 1.0 -0.0 0.0
outer loop
vertex 545.259040527053 1071.40214185626 0.0
vertex 545.259040527053 1061.29307145626 3.0
vertex 545.259040527053 1061.29307145626 0.0
endloop
endfacet
facet normal 1.0 -0.0 0.0
outer loop
vertex 545.259040527053 1061.29307145626 3.0
vertex 545.259040527053 1071.40214185626 0.0
vertex 545.259040527053 1071.40214185626 3.0
endloop
endfacet
facet normal 0.0 -1.0 0.0
outer loop
vertex 548.017903887053 1071.40214185626 3.0
vertex 545.259040527053 1071.40214185626 0.0
vertex 548.017903887053 1071.40214185626 0.0
endloop
endfacet
facet normal 0.0 -1.0 0.0
outer loop
vertex 545.259040527053 1071.40214185626 0.0
vertex 548.017903887053 1071.40214185626 3.0
vertex 545.259040527053 1071.40214185626 3.0
endloop
endfacet
facet normal 1.0 -0.0 0.0
outer loop
vertex 632.403622161938 1071.4030534023 0.0
vertex 632.403622161938 1061.2939830023 3.0
vertex 632.403622161938 1061.2939830023 0.0
endloop
endfacet
facet normal 1.0 -0.0 0.0
outer loop
vertex 632.403622161938 1061.2939830023 3.0
vertex 632.403622161938 1071.4030534023 0.0
vertex 632.403622161938 1071.4030534023 3.0
endloop
endfacet
facet normal 0.0 -1.0 0.0
outer loop
vertex 635.162485521938 1071.4030534023 3.0
vertex 632.403622161938 1071.4030534023 0.0
vertex 635.162485521938 1071.4030534023 0.0
endloop
endfacet
facet normal 0.0 -1.0 0.0
outer loop
vertex 632.403622161938 1071.4030534023 0.0
vertex 635.162485521938 1071.4030534023 3.0
vertex 632.403622161938 1071.4030534023 3.0
endloop
endfacet
facet normal -1.0 -0.0 -0.0
outer loop
vertex 635.162485521938 1071.4030534023 3.0
vertex 635.162485521938 1061.2939830023 0.0
vertex 635.162485521938 1061.2939830023 3.0
endloop
endfacet
facet normal -1.0 -0.0 -0.0
outer loop
vertex 635.162485521938 1061.2939830023 0.0
vertex 635.162485521938 1071.4030534023 3.0
vertex 635.162485521938 1071.4030534023 0.0
endloop
endfacet
facet normal 0.0 1.0 0.0
outer loop
vertex 632.403622161938 1061.2939830023 3.0
vertex 635.162485521938 1061.2939830023 0.0
vertex 632.403622161938 1061.2939830023 0.0
endloop
endfacet
facet normal 0.0 1.0 0.0
outer loop
vertex 635.162485521938 1061.2939830023 0.0
vertex 632.403622161938 1061.2939830023 3.0
vertex 635.162485521938 1061.2939830023 3.0
endloop
endfacet
facet normal 1.0 -0.0 0.0
outer loop
vertex 585.405119940003 1029.74801054814 0.0
vertex 585.405119940003 1026.45495550814 3.0
vertex 585.405119940003 1026.45495550814 0.0
endloop
endfacet
facet normal 1.0 -0.0 0.0
outer loop
vertex 585.405119940003 1026.45495550814 3.0
vertex 585.405119940003 1029.74801054814 0.0
vertex 585.405119940003 1029.74801054814 3.0
endloop
endfacet
facet normal 0.0 -1.0 0.0
outer loop
vertex 595.291046980004 1029.74801054814 3.0
vertex 585.405119940003 1029.74801054814 0.0
vertex 595.291046980004 1029.74801054814 0.0
endloop
endfacet
facet normal 0.0 -1.0 0.0
outer loop
vertex 585.405119940003 1029.74801054814 0.0
vertex 595.291046980004 1029.74801054814 3.0
vertex 585.405119940003 1029.74801054814 3.0
endloop
endfacet
facet normal -1.0 -0.0 -0.0
outer loop
vertex 595.291046980004 1029.74801054814 3.0
vertex 595.291046980004 1026.45495550814 0.0
vertex 595.291046980004 1026.45495550814 3.0
endloop
endfacet
facet normal -1.0 -0.0 -0.0
outer loop
vertex 595.291046980004 1026.45495550814 0.0
vertex 595.291046980004 1029.74801054814 3.0
vertex 595.291046980004 1029.74801054814 0.0
endloop
endfacet
facet normal 0.0 1.0 0.0
outer loop
vertex 585.405119940003 1026.45495550814 3.0
vertex 595.291046980004 1026.45495550814 0.0
vertex 585.405119940003 1026.45495550814 0.0
endloop
endfacet
facet normal 0.0 1.0 0.0
outer loop
vertex 595.291046980004 1026.45495550814 0.0
vertex 585.405119940003 1026.45495550814 3.0
vertex 595.291046980004 1026.45495550814 3.0
endloop
endfacet
endsolid rov
