solid rov
facet normal 0.0 0.0 -1.0
outer loop
vertex 704.89294183634 1473.73255975441 0.0
vertex 694.70949031634 1470.92981921515 0.0
vertex 694.70949031634 1473.73255975441 0.0
endloop
endfacet
facet normal 0.0 0.0 -1.0
outer loop
vertex 694.70949031634 1470.92981921515 0.0
vertex 704.89294183634 1473.73255975441 0.0
vertex 694.70949031634 1436.68808220537 0.0
endloop
endfacet
facet normal 0.0 0.0 -1.0
outer loop
vertex 694.70949031634 1436.68808220537 0.0
vertex 704.89294183634 1473.73255975441 0.0
vertex 694.70949031634 1433.63437415441 0.0
endloop
endfacet
facet normal 0.0 0.0 -1.0
outer loop
vertex 694.70949031634 1433.63437415441 0.0
vertex 704.89294183634 1473.73255975441 0.0
vertex 704.89294183634 1433.63437415441 0.0
endloop
endfacet
facet normal 0.0 0.0 -1.0
outer loop
vertex 694.70949031634 1470.92981921515 0.0
vertex 690.254797870521 1458.45557479211 0.0
vertex 690.254797870521 1470.92981921515 0.0
endloop
endfacet
facet normal 0.0 0.0 -1.0
outer loop
vertex 690.254797870521 1458.45557479211 0.0
vertex 694.70949031634 1470.92981921515 0.0
vertex 690.254797870521 1448.65438274543 0.0
endloop
endfacet
facet normal 0.0 0.0 -1.0
outer loop
vertex 690.254797870521 1448.65438274543 0.0
vertex 694.70949031634 1470.92981921515 0.0
vertex 690.254797870521 1436.68808220537 0.0
endloop
endfacet
facet normal 0.0 0.0 -1.0
outer loop
vertex 690.254797870521 1436.68808220537 0.0
vertex 694.70949031634 1470.92981921515 0.0
vertex 694.70949031634 1436.68808220537 0.0
endloop
endfacet
facet normal 0.0 0.0 -1.0
outer loop
vertex 690.254797870521 1458.45557479211 0.0
vertex 687.454457285756 1448.65438274543 0.0
vertex 687.454457285756 1458.45557479211 0.0
endloop
endfacet
facet normal 0.0 0.0 -1.0
outer loop
vertex 687.454457285756 1448.65438274543 0.0
vertex 690.254797870521 1458.45557479211 0.0
vertex 690.254797870521 1448.65438274543 0.0
endloop
endfacet
facet normal 0.0 0.0 1.0
outer loop
vertex 704.89294183634 1433.63437415441 3.0
vertex 694.70949031634 1436.68808220537 3.0
vertex 694.70949031634 1433.63437415441 3.0
endloop
endfacet
facet normal 0.0 0.0 1.0
outer loop
vertex 694.70949031634 1436.68808220537 3.0
vertex 704.89294183634 1433.63437415441 3.0
vertex 694.70949031634 1470.92981921515 3.0
endloop
endfacet
facet normal 0.0 0.0 1.0
outer loop
vertex 694.70949031634 1470.92981921515 3.0
vertex 704.89294183634 1433.63437415441 3.0
vertex 694.70949031634 1473.73255975441 3.0
endloop
endfacet
facet normal 0.0 0.0 1.0
outer loop
vertex 694.70949031634 1473.73255975441 3.0
vertex 704.89294183634 1433.63437415441 3.0
vertex 704.89294183634 1473.73255975441 3.0
endloop
endfacet
facet normal 0.0 0.0 1.0
outer loop
vertex 694.70949031634 1436.68808220537 3.0
vertex 690.254797870521 1448.65438274543 3.0
vertex 690.254797870521 1436.68808220537 3.0
endloop
endfacet
facet normal 0.0 0.0 1.0
outer loop
vertex 690.254797870521 1448.65438274543 3.0
vertex 694.70949031634 1436.68808220537 3.0
vertex 690.254797870521 1458.45557479211 3.0
endloop
endfacet
facet normal 0.0 0.0 1.0
outer loop
vertex 690.254797870521 1458.45557479211 3.0
vertex 694.70949031634 1436.68808220537 3.0
vertex 690.254797870521 1470.92981921515 3.0
endloop
endfacet
facet normal 0.0 0.0 1.0
outer loop
vertex 690.254797870521 1470.92981921515 3.0
vertex 694.70949031634 1436.68808220537 3.0
vertex 694.70949031634 1470.92981921515 3.0
endloop
endfacet
facet normal 0.0 0.0 1.0
outer loop
vertex 690.254797870521 1448.65438274543 3.0
vertex 687.454457285756 1458.45557479211 3.0
vertex 687.454457285756 1448.65438274543 3.0
endloop
endfacet
facet normal 0.0 0.0 1.0
outer loop
vertex 687.454457285756 1458.45557479211 3.0
vertex 690.254797870521 1448.65438274543 3.0
vertex 690.254797870521 1458.45557479211 3.0
endloop
endfacet
facet normal -1.0 -0.0 -0.0
outer loop
vertex 690.254797870521 1448.65438274543 3.0
vertex 690.254797870521 1436.68808220537 0.0
vertex 690.254797870521 1436.68808220537 3.0
endloop
endfacet
facet normal -1.0 -0.0 -0.0
outer loop
vertex 690.254797870521 1436.68808220537 0.0
vertex 690.254797870521 1448.65438274543 3.0
vertex 690.254797870521 1448.65438274543 0.0
endloop
endfacet
facet normal 0.0 -1.0 0.0
outer loop
vertex 694.70949031634 1436.68808220537 3.0
vertex 690.254797870521 1436.68808220537 0.0
vertex 694.70949031634 1436.68808220537 0.0
endloop
endfacet
facet normal 0.0 -1.0 0.0
outer loop
vertex 690.254797870521 1436.68808220537 0.0
vertex 694.70949031634 1436.68808220537 3.0
vertex 690.254797870521 1436.68808220537 3.0
endloop
endfacet
facet normal -1.0 -0.0 -0.0
outer loop
vertex 694.70949031634 1436.68808220537 3.0
vertex 694.70949031634 1433.63437415441 0.0
vertex 694.70949031634 1433.63437415441 3.0
endloop
endfacet
facet normal -1.0 -0.0 -0.0
outer loop
vertex 694.70949031634 1433.63437415441 0.0
vertex 694.70949031634 1436.68808220537 3.0
vertex 694.70949031634 1436.68808220537 0.0
endloop
endfacet
facet normal 0.0 -1.0 0.0
outer loop
vertex 704.89294183634 1433.63437415441 3.0
vertex 694.70949031634 1433.63437415441 0.0
vertex 704.89294183634 1433.63437415441 0.0
endloop
endfacet
facet normal 0.0 -1.0 0.0
outer loop
vertex 694.70949031634 1433.63437415441 0.0
vertex 704.89294183634 1433.63437415441 3.0
vertex 694.70949031634 1433.63437415441 3.0
endloop
endfacet
facet normal 1.0 -0.0 0.0
outer loop
vertex 704.89294183634 1473.73255975441 0.0
vertex 704.89294183634 1433.63437415441 3.0
vertex 704.89294183634 1433.63437415441 0.0
endloop
endfacet
facet normal 1.0 -0.0 0.0
outer loop
vertex 704.89294183634 1433.63437415441 3.0
vertex 704.89294183634 1473.73255975441 0.0
vertex 704.89294183634 1473.73255975441 3.0
endloop
endfacet
facet normal 0.0 1.0 0.0
outer loop
vertex 694.70949031634 1473.73255975441 3.0
vertex 704.89294183634 1473.73255975441 0.0
vertex 694.70949031634 1473.73255975441 0.0
endloop
endfacet
facet normal 0.0 1.0 0.0
outer loop
vertex 704.89294183634 1473.73255975441 0.0
vertex 694.70949031634 1473.73255975441 3.0
vertex 704.89294183634 1473.73255975441 3.0
endloop
endfacet
facet normal -1.0 -0.0 -0.0
outer loop
vertex 694.70949031634 1473.73255975441 3.0
vertex 694.70949031634 1470.92981921515 0.0
vertex 694.70949031634 1470.92981921515 3.0
endloop
endfacet
facet normal -1.0 -0.0 -0.0
outer loop
vertex 694.70949031634 1470.92981921515 0.0
vertex 694.70949031634 1473.73255975441 3.0
vertex 694.70949031634 1473.73255975441 0.0
endloop
endfacet
facet normal 0.0 1.0 0.0
outer loop
vertex 690.254797870521 1470.92981921515 3.0
vertex 694.70949031634 1470.92981921515 0.0
vertex 690.254797870521 1470.92981921515 0.0
endloop
endfacet
facet normal 0.0 1.0 0.0
outer loop
vertex 694.70949031634 1470.92981921515 0.0
vertex 690.254797870521 1470.92981921515 3.0
vertex 694.70949031634 1470.92981921515 3.0
endloop
endfacet
facet normal -1.0 -0.0 -0.0
outer loop
vertex 690.254797870521 1470.92981921515 3.0
vertex 690.254797870521 1458.45557479211 0.0
vertex 690.254797870521 1458.45557479211 3.0
endloop
endfacet
facet normal -1.0 -0.0 -0.0
outer loop
vertex 690.254797870521 1458.45557479211 0.0
vertex 690.254797870521 1470.92981921515 3.0
vertex 690.254797870521 1470.92981921515 0.0
endloop
endfacet
facet normal 0.0 1.0 0.0
outer loop
vertex 687.454457285756 1458.45557479211 3.0
vertex 690.254797870521 1458.45557479211 0.0
vertex 687.454457285756 1458.45557479211 0.0
endloop
endfacet
facet normal 0.0 1.0 0.0
outer loop
vertex 690.254797870521 1458.45557479211 0.0
vertex 687.454457285756 1458.45557479211 3.0
vertex 690.254797870521 1458.45557479211 3.0
endloop
endfacet
facet normal -1.0 -0.0 -0.0
outer loop
vertex 687.454457285756 1458.45557479211 3.0
vertex 687.454457285756 1448.65438274543 0.0
vertex 687.454457285756 1448.65438274543 3.0
endloop
endfacet
facet normal -1.0 -0.0 -0.0
outer loop
vertex 687.454457285756 1448.65438274543 0.0
vertex 687.454457285756 1458.45557479211 3.0
vertex 687.454457285756 1458.45557479211 0.0
endloop
endfacet
facet normal 0.0 -1.0 0.0
outer loop
vertex 690.254797870521 1448.65438274543 3.0
vertex 687.454457285756 1448.65438274543 0.0
vertex 690.254797870521 1448.65438274543 0.0
endloop
endfacet
facet normal 0.0 -1.0 0.0
outer loop
vertex 687.454457285756 1448.65438274543 0.0
vertex 690.254797870521 1448.65438274543 3.0
vertex 687.454457285756 1448.65438274543 3.0
endloop
endfacet
endsolid rov
